<svg width="100" height="100" viewBox="0 0 100 100" fill="none" xmlns="http://www.w3.org/2000/svg">
<path d="M94.2952 28.2912C92.022 27.5494 89.6942 26.9863 87.3332 26.6072L87.3812 23.8602C87.3852 23.6504 87.3249 23.4445 87.2086 23.2699C87.0922 23.0953 86.9253 22.9604 86.7302 22.8832C80.4887 20.6187 73.7932 19.8922 67.2112 20.7652C59.9452 21.7002 53.8902 24.5062 50.0012 28.7112C47.8869 26.4646 45.3402 24.6686 42.5142 23.4312L43.5712 17.7842C44.3026 17.7588 45.0037 17.4856 45.5593 17.0093C46.115 16.5331 46.4922 15.8821 46.6292 15.1632L46.6672 14.9632C46.8231 14.1253 46.6401 13.2599 46.1584 12.5568C45.6768 11.8537 44.9358 11.3705 44.0982 11.2132L32.4842 9.05321C31.6458 8.89903 30.7804 9.08301 30.0771 9.56495C29.3739 10.0469 28.89 10.7876 28.7312 11.6252L28.6932 11.8252C28.5594 12.5441 28.6747 13.2871 29.0202 13.9316C29.3656 14.5762 29.9205 15.0836 30.5932 15.3702L29.6312 20.4842C24.0686 20.144 18.4959 20.9612 13.2652 22.8842C13.0701 22.9614 12.9032 23.0963 12.7869 23.2709C12.6706 23.4455 12.6103 23.6514 12.6142 23.8612L12.6622 26.6082C10.3012 26.9873 7.97349 27.5504 5.70024 28.2922C5.49246 28.3629 5.3126 28.498 5.18673 28.6778C5.06087 28.8576 4.99555 29.0728 5.00024 29.2922L6.07424 81.0152C6.07773 81.1743 6.11797 81.3303 6.19182 81.4712C6.26567 81.6121 6.37112 81.734 6.49993 81.8274C6.62873 81.9207 6.77739 81.983 6.93427 82.0094C7.09116 82.0357 7.25201 82.0254 7.40424 81.9792C17.3442 78.9602 33.3442 78.8792 43.8042 84.5562V85.9292C43.8056 87.1594 44.2948 88.3388 45.1647 89.2087C46.0346 90.0786 47.214 90.5679 48.4442 90.5692H51.0952C52.3256 90.5682 53.5053 90.079 54.3754 89.2091C55.2455 88.3392 55.7349 87.1596 55.7362 85.9292V84.8112C66.1762 78.8712 82.4172 78.8902 92.5882 81.9792C92.7405 82.0254 92.9013 82.0357 93.0582 82.0094C93.2151 81.983 93.3637 81.9207 93.4925 81.8274C93.6213 81.734 93.7268 81.6121 93.8007 81.4712C93.8745 81.3303 93.9147 81.1743 93.9182 81.0152L94.9952 29.2912C94.9999 29.0718 94.9346 28.8566 94.8087 28.6768C94.6829 28.497 94.503 28.3619 94.2952 28.2912ZM51.0262 30.6542C54.5472 26.5032 60.3692 23.7232 67.4692 22.8102C73.4686 22.0193 79.5694 22.6139 85.3032 24.5482L85.2572 27.1412C85.2365 27.201 85.2214 27.2626 85.2122 27.3252C85.1901 27.4762 85.2017 27.6302 85.2462 27.7762L84.4462 73.1762C78.6967 71.516 72.6615 71.088 66.7352 71.9202C62.0212 72.5862 55.7352 74.3202 51.0262 78.7512V30.6542ZM32.0952 44.4312C32.1576 44.4423 32.2209 44.448 32.2842 44.4482C32.5406 44.447 32.7873 44.3504 32.9763 44.1771C33.1652 44.0039 33.2828 43.7664 33.3062 43.5112C33.3296 43.2559 33.257 43.001 33.1026 42.7964C32.9482 42.5917 32.7231 42.4519 32.4712 42.4042L27.7712 41.5322L28.0572 40.0102L30.9222 40.5412C30.9846 40.5528 31.0478 40.5585 31.1112 40.5582C31.3673 40.5563 31.6136 40.4591 31.802 40.2857C31.9904 40.1122 32.1075 39.8748 32.1304 39.6197C32.1534 39.3646 32.0806 39.1101 31.9262 38.9057C31.7718 38.7014 31.5469 38.5618 31.2952 38.5142L28.4352 37.9842L28.7212 36.4612L33.4272 37.3342C33.4896 37.3458 33.5528 37.3515 33.6162 37.3512C33.8725 37.3498 34.1191 37.253 34.3078 37.0796C34.4966 36.9063 34.614 36.6689 34.6373 36.4137C34.6605 36.1584 34.5878 35.9037 34.4334 35.6992C34.2791 35.4946 34.054 35.3549 33.8022 35.3072L29.1022 34.4362L29.3882 32.9132L32.2532 33.4452C32.3156 33.4563 32.3789 33.462 32.4422 33.4622C32.6985 33.4608 32.9451 33.364 33.1338 33.1906C33.3226 33.0173 33.44 32.7799 33.4633 32.5247C33.4865 32.2694 33.4138 32.0147 33.2594 31.8102C33.1051 31.6056 32.88 31.4659 32.6282 31.4182L29.7692 30.8882L30.0552 29.3652L34.7552 30.2382C34.8176 30.2492 34.8809 30.2549 34.9442 30.2552C35.2006 30.254 35.4473 30.1574 35.6363 29.9841C35.8252 29.8109 35.9428 29.5734 35.9662 29.3182C35.9896 29.0629 35.917 28.808 35.7626 28.6034C35.6082 28.3987 35.3831 28.2589 35.1312 28.2112L30.4312 27.3392L30.7172 25.8172L33.5812 26.3482C33.7143 26.3729 33.8509 26.3711 33.9832 26.343C34.1156 26.3149 34.2411 26.2611 34.3526 26.1844C34.4641 26.1078 34.5595 26.01 34.6332 25.8966C34.7069 25.7831 34.7575 25.6562 34.7822 25.5232C34.8069 25.3902 34.8052 25.2536 34.7771 25.1212C34.749 24.9889 34.6951 24.8634 34.6185 24.7518C34.5419 24.6403 34.444 24.545 34.3306 24.4713C34.2171 24.3975 34.0903 24.3469 33.9572 24.3222L31.0982 23.7912L31.3842 22.2692L36.0892 23.1412C36.2223 23.1659 36.3589 23.1641 36.4912 23.136C36.6236 23.1079 36.7491 23.0541 36.8606 22.9774C36.9721 22.9008 37.0675 22.803 37.1412 22.6896C37.2149 22.5761 37.2655 22.4492 37.2902 22.3162C37.3149 22.1832 37.3132 22.0466 37.2851 21.9142C37.257 21.7819 37.2031 21.6564 37.1265 21.5448C37.0499 21.4333 36.952 21.338 36.8386 21.2643C36.7251 21.1905 36.5983 21.1399 36.4652 21.1152L31.7652 20.2432L32.5952 15.8252L41.5302 17.4842L40.3302 23.8482V23.8572L36.4592 44.4602C36.1762 45.5609 35.4708 46.5056 34.4959 47.0896C33.521 47.6737 32.3552 47.8499 31.2512 47.5802C30.0048 47.3603 28.8956 46.6569 28.1652 45.6232C27.7437 45.0201 27.5042 44.3085 27.4752 43.5732L32.0952 44.4312ZM30.7192 12.2082L30.7572 12.0082C30.8075 11.7427 30.9487 11.503 31.1566 11.3303C31.3644 11.1577 31.626 11.0628 31.8962 11.0622C31.9674 11.062 32.0384 11.0687 32.1082 11.0822L43.7222 13.2342C44.0217 13.291 44.2865 13.4641 44.4587 13.7156C44.6309 13.967 44.6965 14.2765 44.6412 14.5762L44.6032 14.7762C44.5462 15.0778 44.372 15.3445 44.1189 15.518C43.8657 15.6916 43.5541 15.7578 43.2522 15.7022L42.9252 15.6412L31.6382 13.5502C31.339 13.4929 31.0746 13.3198 30.9025 13.0684C30.7303 12.8171 30.6645 12.5079 30.7192 12.2082ZM29.2472 22.5282L28.8902 24.4282L28.2232 27.9752L27.5562 31.5202L26.8892 35.0652L26.2222 38.6102L25.5552 42.1552L25.5062 42.4132C25.368 43.169 25.3816 43.9447 25.5462 44.6951C25.7109 45.4456 26.0233 46.1557 26.4652 46.7842C27.5064 48.2686 29.0918 49.2818 30.8762 49.6032C31.3069 49.6837 31.7441 49.7242 32.1822 49.7242C33.6369 49.7698 35.0619 49.3066 36.2118 48.4146C37.3618 47.5226 38.1647 46.2575 38.4822 44.8372L42.1132 25.5172C44.7353 26.7225 47.07 28.4735 48.9612 30.6532V78.7532C44.2542 74.3242 37.9612 72.5862 33.2522 71.9202C27.3253 71.0864 21.2891 71.5127 15.5382 73.1712L14.7382 27.7762C14.7828 27.6302 14.7944 27.4762 14.7722 27.3252C14.763 27.2626 14.748 27.201 14.7272 27.1412L14.6812 24.5482C19.3624 22.9482 24.3073 22.2624 29.2472 22.5282ZM91.8832 79.6362C81.0832 76.7582 64.7102 77.0512 54.2142 83.3052H54.2072L54.1742 83.3242L54.1542 83.3382L54.1062 83.3702L54.0672 83.3992L54.0292 83.4302L53.9882 83.4672L53.9592 83.4972L53.9192 83.5412L53.8932 83.5732L53.8592 83.6182L53.8342 83.6562L53.8072 83.7002L53.7832 83.7462L53.7632 83.7872L53.7422 83.8402L53.7282 83.8782C53.7212 83.8972 53.7162 83.9162 53.7112 83.9352L53.7002 83.9762C53.7002 83.9942 53.6922 84.0122 53.6892 84.0302L53.6822 84.0782V84.1262C53.6812 84.1459 53.6812 84.1656 53.6822 84.1852V85.9262C53.6812 86.61 53.409 87.2656 52.9253 87.749C52.4417 88.2325 51.7861 88.5044 51.1022 88.5052H48.4392C47.7555 88.5044 47.1 88.2324 46.6165 87.749C46.133 87.2655 45.861 86.61 45.8602 85.9262V83.9442V83.9152C45.8602 83.8945 45.8602 83.8735 45.8602 83.8522C45.8602 83.8362 45.8602 83.8202 45.8542 83.8042C45.8482 83.7882 45.8542 83.7712 45.8472 83.7552L45.8352 83.7002L45.8242 83.6592C45.8242 83.6402 45.8122 83.6212 45.8062 83.6032L45.7922 83.5642C45.7852 83.5472 45.7772 83.5292 45.7692 83.5122L45.7502 83.4722C45.7422 83.4572 45.7342 83.4422 45.7252 83.4272C45.7162 83.4122 45.7082 83.3982 45.6982 83.3832L45.6732 83.3472C45.6622 83.3312 45.6512 83.3162 45.6392 83.3012L45.6132 83.2702C45.6002 83.2552 45.5872 83.2402 45.5732 83.2262L45.5422 83.1962L45.5012 83.1592L45.4612 83.1272L45.4242 83.0992L45.3682 83.0642L45.3462 83.0492L45.3312 83.0412L45.3212 83.0362C38.8892 79.3662 31.2292 78.2512 25.9322 77.9622C19.9417 77.6132 13.933 78.1776 8.11224 79.6362L7.07224 30.0152C8.91609 29.4532 10.7943 29.011 12.6952 28.6912L13.5022 74.6092C13.5051 74.7731 13.547 74.9339 13.6245 75.0784C13.7019 75.2228 13.8127 75.3467 13.9476 75.4398C14.0825 75.5329 14.2377 75.5924 14.4002 75.6135C14.5628 75.6347 14.728 75.6167 14.8822 75.5612C20.7043 73.6347 26.8943 73.087 32.9642 73.9612C37.9552 74.6612 44.8222 76.6362 49.1922 82.0182C49.2062 82.0352 49.2222 82.0522 49.2372 82.0682L49.2532 82.0862L49.2662 82.0992L49.2942 82.1242C49.311 82.1406 49.3287 82.156 49.3472 82.1702L49.3632 82.1842H49.3712L49.3842 82.1932L49.4352 82.2282L49.4752 82.2532L49.5312 82.2832L49.5692 82.3012L49.6332 82.3272L49.6452 82.3322L49.6642 82.3392C49.6889 82.3472 49.7149 82.3542 49.7422 82.3602L49.7672 82.3672L49.8022 82.3732H49.8272H49.8582H49.8752C49.9118 82.3772 49.9485 82.3792 49.9852 82.3792C50.0217 82.3792 50.058 82.3772 50.0942 82.3732H50.1152H50.1372L50.1662 82.3682L50.2032 82.3612L50.2282 82.3552C50.2552 82.3482 50.2822 82.3412 50.3082 82.3322H50.3182L50.3362 82.3252L50.4072 82.2962L50.4402 82.2802C50.4532 82.2742 50.4662 82.2682 50.4782 82.2612L50.4892 82.2542L50.5022 82.2462L50.5362 82.2262L50.5932 82.1872L50.6252 82.1622H50.6322C50.6482 82.1492 50.6632 82.1342 50.6792 82.1202L50.7012 82.1002C50.7288 82.0734 50.7548 82.045 50.7792 82.0152C55.1492 76.6332 62.0152 74.6642 67.0062 73.9592C73.0761 73.085 79.2662 73.6327 85.0882 75.5592C85.2425 75.6147 85.4077 75.6327 85.5702 75.6115C85.7328 75.5904 85.8879 75.5309 86.0228 75.4378C86.1578 75.3447 86.2685 75.2208 86.346 75.0764C86.4235 74.9319 86.4654 74.7711 86.4682 74.6072L87.2952 28.6912C89.1972 29.0108 91.0764 29.4531 92.9212 30.0152L91.8832 79.6362ZM20.0382 55.6472C20.0181 55.5134 20.0245 55.3769 20.0571 55.2456C20.0898 55.1142 20.1479 54.9906 20.2284 54.8818C20.3088 54.7729 20.4099 54.681 20.5258 54.6112C20.6418 54.5415 20.7704 54.4953 20.9042 54.4752C29.7842 53.1462 38.8522 54.6112 45.1622 58.3932C45.3556 58.5093 45.5056 58.6855 45.5892 58.8949C45.6728 59.1043 45.6854 59.3354 45.6252 59.5527C45.5649 59.77 45.4351 59.9615 45.2556 60.098C45.076 60.2345 44.8567 60.3083 44.6312 60.3082C44.4448 60.3085 44.2618 60.2576 44.1022 60.1612C38.1892 56.6172 29.6312 55.2532 21.2092 56.5132C20.9391 56.5536 20.664 56.4851 20.4444 56.3227C20.2248 56.1603 20.0787 55.9173 20.0382 55.6472ZM20.0382 62.9132C20.0181 62.7794 20.0245 62.6429 20.0571 62.5116C20.0898 62.3802 20.1479 62.2566 20.2284 62.1478C20.3088 62.0389 20.4099 61.947 20.5258 61.8772C20.6418 61.8075 20.7704 61.7613 20.9042 61.7412C29.7842 60.4122 38.8522 61.8772 45.1622 65.6592C45.3556 65.7753 45.5056 65.9515 45.5892 66.1609C45.6728 66.3703 45.6854 66.6014 45.6252 66.8187C45.5649 67.036 45.4351 67.2275 45.2556 67.364C45.076 67.5005 44.8567 67.5743 44.6312 67.5742C44.4448 67.5745 44.2618 67.5236 44.1022 67.4272C38.1892 63.8842 29.6312 62.5202 21.2092 63.7842C21.0751 63.8042 20.9384 63.7975 20.8069 63.7645C20.6754 63.7315 20.5517 63.6728 20.4429 63.5919C20.3341 63.511 20.2423 63.4094 20.1729 63.2929C20.1034 63.1764 20.0577 63.0474 20.0382 62.9132ZM54.1712 38.2132C54.0998 38.0983 54.0517 37.9703 54.0297 37.8368C54.0078 37.7033 54.0123 37.5667 54.0432 37.4349C54.074 37.3031 54.1305 37.1787 54.2094 37.0688C54.2884 36.9588 54.3882 36.8655 54.5032 36.7942C60.8032 32.8822 69.9492 31.3362 78.9682 32.6602C79.1021 32.6799 79.2308 32.7258 79.347 32.7952C79.4631 32.8647 79.5645 32.9563 79.6452 33.0649C79.7259 33.1735 79.7845 33.2969 79.8175 33.4281C79.8506 33.5594 79.8574 33.6958 79.8377 33.8297C79.818 33.9636 79.7722 34.0923 79.7027 34.2084C79.6333 34.3246 79.5417 34.4259 79.4331 34.5067C79.3245 34.5874 79.201 34.646 79.0698 34.679C78.9386 34.712 78.8021 34.7189 78.6682 34.6992C70.1172 33.4432 61.4952 34.8842 55.5952 38.5442C55.4804 38.6159 55.3524 38.6642 55.2188 38.6863C55.0853 38.7084 54.9486 38.7039 54.8167 38.6731C54.6849 38.6422 54.5604 38.5857 54.4505 38.5066C54.3406 38.4275 54.2474 38.3274 54.1762 38.2122L54.1712 38.2132ZM54.1712 45.4792C54.0998 45.3643 54.0517 45.2363 54.0297 45.1028C54.0078 44.9693 54.0123 44.8327 54.0432 44.7009C54.074 44.5691 54.1305 44.4447 54.2094 44.3348C54.2884 44.2248 54.3882 44.1315 54.5032 44.0602C60.8032 40.1482 69.9492 38.6022 78.9682 39.9262C79.1021 39.9459 79.2308 39.9918 79.347 40.0612C79.4631 40.1307 79.5645 40.2223 79.6452 40.3309C79.7259 40.4395 79.7845 40.5629 79.8175 40.6941C79.8506 40.8254 79.8574 40.9618 79.8377 41.0957C79.818 41.2296 79.7722 41.3583 79.7027 41.4744C79.6333 41.5906 79.5417 41.6919 79.4331 41.7727C79.3245 41.8534 79.201 41.912 79.0698 41.945C78.9386 41.978 78.8021 41.9849 78.6682 41.9652C70.1162 40.7102 61.4892 42.1482 55.5892 45.8112C55.4744 45.8829 55.3464 45.9312 55.2128 45.9533C55.0793 45.9754 54.9426 45.971 54.8107 45.9401C54.6789 45.9093 54.5544 45.8527 54.4445 45.7736C54.3346 45.6945 54.2424 45.5944 54.1712 45.4792ZM54.1712 52.7462C54.0998 52.6313 54.0517 52.5034 54.0297 52.3698C54.0078 52.2363 54.0123 52.0997 54.0432 51.9679C54.074 51.8361 54.1305 51.7117 54.2094 51.6018C54.2884 51.4918 54.3882 51.3985 54.5032 51.3272C60.8032 47.4142 69.9502 45.8692 78.9682 47.1922C79.1021 47.2119 79.2308 47.2578 79.347 47.3272C79.4631 47.3967 79.5645 47.4883 79.6452 47.5969C79.7259 47.7055 79.7845 47.8289 79.8175 47.9601C79.8506 48.0914 79.8574 48.2278 79.8377 48.3617C79.818 48.4956 79.7722 48.6243 79.7027 48.7404C79.6333 48.8566 79.5417 48.9579 79.4331 49.0387C79.3245 49.1194 79.201 49.178 79.0698 49.211C78.9386 49.244 78.8021 49.2509 78.6682 49.2312C70.1162 47.9762 61.4882 49.4142 55.5892 53.0772C55.4269 53.1793 55.239 53.2333 55.0472 53.2332C54.8718 53.2331 54.6992 53.1883 54.5459 53.1029C54.3926 53.0175 54.2637 52.8944 54.1712 52.7452V52.7462ZM54.1712 60.0122C54.0998 59.8973 54.0517 59.7693 54.0297 59.6358C54.0078 59.5023 54.0123 59.3657 54.0432 59.2339C54.074 59.1021 54.1305 58.9777 54.2094 58.8678C54.2884 58.7578 54.3882 58.6645 54.5032 58.5932C58.3204 56.3339 62.5675 54.8969 66.9722 54.3742C67.2395 54.3455 67.5073 54.4222 67.7188 54.5881C67.9303 54.754 68.0686 54.9959 68.1043 55.2623C68.14 55.5286 68.0703 55.7984 67.9101 56.0142C67.7498 56.2299 67.5116 56.3745 67.2462 56.4172C63.1317 56.9011 59.1635 58.2383 55.5952 60.3432C55.4803 60.4146 55.3524 60.4627 55.2188 60.4847C55.0853 60.5067 54.9487 60.5021 54.8169 60.4713C54.6851 60.4405 54.5607 60.384 54.4508 60.305C54.3409 60.2261 54.2476 60.1262 54.1762 60.0112L54.1712 60.0122ZM65.1622 62.9592C65.1911 63.0915 65.1936 63.2281 65.1696 63.3613C65.1455 63.4945 65.0955 63.6217 65.0223 63.7355C64.9492 63.8494 64.8542 63.9477 64.743 64.0249C64.6318 64.102 64.5065 64.1565 64.3742 64.1852C61.2742 64.8182 58.3052 65.9762 55.5952 67.6092C55.4803 67.6806 55.3524 67.7286 55.2188 67.7506C55.0853 67.7725 54.9487 67.7679 54.817 67.7371C54.6852 67.7063 54.5608 67.6498 54.4509 67.5709C54.3409 67.492 54.2476 67.3922 54.1762 67.2772C54.1049 67.1622 54.0568 67.0343 54.0349 66.9008C54.0129 66.7673 54.0175 66.6307 54.0484 66.4989C54.0792 66.3672 54.1357 66.2428 54.2146 66.1328C54.2935 66.0229 54.3933 65.9296 54.5082 65.8582C57.4191 64.0996 60.6095 62.8523 63.9412 62.1702C64.2076 62.1137 64.4854 62.1649 64.7142 62.3125C64.9429 62.4602 65.104 62.6933 65.1622 62.9592ZM74.3732 52.3142C74.2817 52.1611 74.1521 52.0344 73.997 51.9464C73.8419 51.8584 73.6666 51.8121 73.4882 51.8121C73.3099 51.8121 73.1346 51.8584 72.9795 51.9464C72.8244 52.0344 72.6947 52.1611 72.6032 52.3142C72.3142 52.7992 71.8742 53.4782 71.3662 54.2652C68.8662 58.1252 66.9602 61.2102 66.9602 62.8862C67.0725 64.5411 67.809 66.0915 69.0209 67.224C70.2328 68.3565 71.8296 68.9864 73.4882 68.9864C75.1469 68.9864 76.7437 68.3565 77.9555 67.224C79.1674 66.0915 79.904 64.5411 80.0162 62.8862C80.0162 61.2102 78.1062 58.1242 75.6102 54.2642C75.1012 53.4772 74.6622 52.7992 74.3732 52.3142ZM73.4882 66.9142C72.3626 66.9676 71.2615 66.5741 70.4248 65.8192C69.588 65.0643 69.0836 64.0094 69.0212 62.8842C69.0212 61.6842 71.7742 57.4272 73.0962 55.3842L73.4882 54.7782C73.6132 54.9712 73.7442 55.1732 73.8792 55.3782C75.2022 57.4242 77.9552 61.6782 77.9552 62.8782C77.8955 64.0052 77.3921 65.0627 76.5551 65.8196C75.7181 66.5766 74.6155 66.9716 73.4882 66.9182V66.9142Z" fill="black"/>
</svg>
