<svg xmlns="http://www.w3.org/2000/svg" data-name="Layer 1" viewBox="-5.0 -10.0 110.0 135.0" x="0px" y="0px"><title>a</title><path d="M94.3,28.507a45.9,45.9,0,0,0-6.962-1.684l.048-2.747a1.03,1.03,0,0,0-.651-.977,41.306,41.306,0,0,0-19.519-2.118c-7.266.935-13.321,3.741-17.21,7.946a22.888,22.888,0,0,0-7.487-5.28L43.576,18a3.227,3.227,0,0,0,3.058-2.621l.038-.2a3.217,3.217,0,0,0-2.569-3.75L32.489,9.269h0a3.226,3.226,0,0,0-3.753,2.572l-.038.2a3.214,3.214,0,0,0,1.9,3.545L29.636,20.7A40.3,40.3,0,0,0,13.27,23.1a1.03,1.03,0,0,0-.651.977l.048,2.747a45.9,45.9,0,0,0-6.962,1.684,1.033,1.033,0,0,0-.7,1L6.079,81.231a1.031,1.031,0,0,0,1.33.964c9.94-3.019,25.94-3.1,36.4,2.577v1.373a4.645,4.645,0,0,0,4.64,4.64H51.1a4.645,4.645,0,0,0,4.641-4.64V85.027c10.44-5.94,26.681-5.921,36.852-2.832a1.031,1.031,0,0,0,1.33-.964L95,29.507A1.033,1.033,0,0,0,94.3,28.507ZM51.031,30.87c3.521-4.151,9.343-6.931,16.443-7.844a39.6,39.6,0,0,1,17.834,1.738l-.046,2.593a1.01,1.01,0,0,0-.045.184,1.032,1.032,0,0,0,.034.451l-.8,45.4A42.524,42.524,0,0,0,66.74,72.136c-4.714.666-11,2.4-15.709,6.831ZM32.1,44.647a1.1,1.1,0,0,0,.189.017,1.031,1.031,0,0,0,.187-2.044l-4.7-.872.286-1.522,2.865.531a1.007,1.007,0,0,0,.189.017A1.031,1.031,0,0,0,31.3,38.73l-2.86-.53.286-1.523,4.706.873a1.007,1.007,0,0,0,.189.017,1.031,1.031,0,0,0,.186-2.044l-4.7-.871.286-1.523,2.865.532a1.1,1.1,0,0,0,.189.017,1.031,1.031,0,0,0,.186-2.044l-2.859-.53.286-1.523,4.7.873a1.116,1.116,0,0,0,.189.017,1.031,1.031,0,0,0,.187-2.044l-4.7-.872.286-1.522,2.864.531a1.03,1.03,0,1,0,.376-2.026l-2.859-.531.286-1.522,4.705.872a1.03,1.03,0,1,0,.376-2.026l-4.7-.872.83-4.418L41.535,17.7l-1.2,6.364,0,.009L36.464,44.676a4.319,4.319,0,0,1-5.208,3.12,4.8,4.8,0,0,1-3.086-1.957,3.842,3.842,0,0,1-.69-2.05ZM30.724,12.424l.038-.2a1.162,1.162,0,0,1,1.139-.946,1.094,1.094,0,0,1,.212.02L43.727,13.45a1.153,1.153,0,0,1,.919,1.342l-.038.2a1.161,1.161,0,0,1-1.351.926l-.327-.061h0L31.643,13.766a1.155,1.155,0,0,1-.919-1.342Zm-1.472,10.32-.357,1.9h0l-.667,3.547h0l-.667,3.545v0l-.667,3.545v0h0l-.667,3.545v0l-.667,3.545h0v0l-.049.258A5.788,5.788,0,0,0,26.47,47a6.877,6.877,0,0,0,4.411,2.819,7.11,7.11,0,0,0,1.306.121,6.255,6.255,0,0,0,6.3-4.887l3.631-19.32a20.281,20.281,0,0,1,6.848,5.136v48.1c-4.707-4.429-11-6.167-15.709-6.833a42.54,42.54,0,0,0-17.714,1.251l-.8-45.395a1.032,1.032,0,0,0,.034-.451,1.01,1.01,0,0,0-.045-.184l-.046-2.593A38.621,38.621,0,0,1,29.252,22.744ZM91.888,79.852c-10.8-2.878-27.173-2.585-37.669,3.669l-.007,0-.033.019-.02.014-.048.032-.039.029-.038.031-.041.037-.029.03-.04.044-.026.032-.034.045-.025.038-.027.044-.024.046-.02.041-.021.053-.014.038c-.007.019-.012.038-.017.057l-.011.041c0,.018-.008.036-.011.054l-.007.048,0,.048a.583.583,0,0,0,0,.059v1.741a2.583,2.583,0,0,1-2.58,2.579H48.444a2.582,2.582,0,0,1-2.579-2.579V84.16l0-.029q0-.031,0-.063c0-.016,0-.032-.006-.048s0-.033-.007-.049l-.012-.055-.011-.041c0-.019-.012-.038-.018-.056l-.014-.039c-.007-.017-.015-.035-.023-.052l-.019-.04c-.008-.015-.016-.03-.025-.045s-.017-.029-.027-.044l-.025-.036c-.011-.016-.022-.031-.034-.046l-.026-.031c-.013-.015-.026-.03-.04-.044l-.031-.03-.041-.037-.04-.032-.037-.028-.056-.035-.022-.015-.015-.008-.01-.005c-6.432-3.67-14.092-4.785-19.389-5.074a59.157,59.157,0,0,0-17.82,1.674L7.077,30.231A44.742,44.742,0,0,1,12.7,28.907l.807,45.918a1.031,1.031,0,0,0,1.38.952,39.592,39.592,0,0,1,18.082-1.6c4.991.7,11.858,2.675,16.228,8.057l0,0c.014.017.03.034.045.05l.016.018.013.013.028.025a.582.582,0,0,0,.053.046l.016.014.008,0,.013.009.051.035.04.025.056.03.038.018.064.026.012.005h0l.019.007q.037.012.078.021l.025.007.035.006.025,0,.031,0,.017,0a1,1,0,0,0,.11.006h0a1,1,0,0,0,.109-.006l.021,0,.022,0,.029-.005.037-.007.025-.006c.027-.007.054-.014.08-.023l.01,0,.018-.007h0l.071-.029.033-.016c.013-.006.026-.012.038-.019l.011-.007.013-.008.034-.02.057-.039.032-.025.007,0,0,0c.016-.013.031-.028.047-.042h0l.022-.02a1.033,1.033,0,0,0,.078-.085c4.37-5.382,11.236-7.351,16.227-8.056a39.592,39.592,0,0,1,18.082,1.6,1.031,1.031,0,0,0,1.38-.952L87.3,28.907a44.742,44.742,0,0,1,5.626,1.324ZM20.043,55.863a1.03,1.03,0,0,1,.866-1.172c8.88-1.329,17.948.136,24.258,3.918a1.031,1.031,0,0,1-.531,1.915,1.02,1.02,0,0,1-.529-.147c-5.913-3.544-14.471-4.908-22.893-3.648A1.03,1.03,0,0,1,20.043,55.863Zm0,7.266a1.03,1.03,0,0,1,.866-1.172c8.88-1.329,17.948.136,24.258,3.918a1.031,1.031,0,0,1-.531,1.915,1.02,1.02,0,0,1-.529-.147C38.194,64.1,29.636,62.736,21.214,64A1.03,1.03,0,0,1,20.043,63.129Zm34.133-24.7a1.03,1.03,0,0,1,.332-1.419c6.3-3.912,15.446-5.458,24.465-4.134a1.03,1.03,0,0,1-.3,2.039C70.122,33.659,61.5,35.1,55.6,38.76a1.028,1.028,0,0,1-1.419-.332Zm0,7.266a1.03,1.03,0,0,1,.332-1.419c6.3-3.912,15.446-5.458,24.465-4.134a1.03,1.03,0,1,1-.3,2.039c-8.552-1.255-17.179.183-23.079,3.846a1.028,1.028,0,0,1-1.419-.332Zm0,7.267a1.03,1.03,0,0,1,.332-1.419c6.3-3.913,15.447-5.458,24.465-4.135a1.03,1.03,0,1,1-.3,2.039c-8.552-1.255-17.18.183-23.079,3.846a1.017,1.017,0,0,1-.542.156A1.031,1.031,0,0,1,54.176,52.961Zm0,7.266a1.03,1.03,0,0,1,.332-1.419,31.849,31.849,0,0,1,12.469-4.219,1.031,1.031,0,0,1,.274,2.043A29.776,29.776,0,0,0,55.6,60.559a1.03,1.03,0,0,1-1.419-.332Zm10.991,2.947a1.03,1.03,0,0,1-.788,1.226A27.774,27.774,0,0,0,55.6,67.825a1.03,1.03,0,1,1-1.087-1.751,29.8,29.8,0,0,1,9.433-3.688A1.031,1.031,0,0,1,65.167,63.174Zm9.211-10.645a1.031,1.031,0,0,0-1.77,0c-.289.485-.729,1.164-1.237,1.951-2.5,3.86-4.406,6.945-4.406,8.621a6.543,6.543,0,0,0,13.056,0c0-1.676-1.91-4.762-4.406-8.622C75.106,53.693,74.667,53.014,74.378,52.529Zm-.885,14.6A4.271,4.271,0,0,1,69.026,63.1c0-1.2,2.753-5.457,4.075-7.5l.392-.606c.125.193.256.395.391.6,1.323,2.046,4.076,6.3,4.076,7.5A4.271,4.271,0,0,1,73.493,67.134Z"/><text x="0.0" y="117.5" font-size="5.0" font-weight="bold" font-family="Arbeit Regular, Helvetica, Arial-Unicode, Arial, Sans-serif" fill="#000000">Created by Icon Designer</text><text x="0.0" y="122.5" font-size="5.0" font-weight="bold" font-family="Arbeit Regular, Helvetica, Arial-Unicode, Arial, Sans-serif" fill="#000000">from Noun Project</text></svg>