<svg xmlns="http://www.w3.org/2000/svg" version="1.1" viewBox="-5.0 -10.0 110.0 135.0">
 <path d="m16.676 42.387c-0.25-0.25-0.59766-0.40625-0.98047-0.40625-0.38281 0-0.73047 0.15625-0.98047 0.40625s-0.40625 0.59766-0.40625 0.98047c0 0.38281 0.15625 0.73047 0.40625 0.98047s0.59766 0.40625 0.98047 0.40625c0.38281 0 0.73047-0.15625 0.98047-0.40625s0.40625-0.59766 0.40625-0.98047c0-0.38281-0.15625-0.73047-0.40625-0.98047zm-0.98438-2.4688c0.95312 0 1.8125 0.38672 2.4375 1.0117 0.39062 0.39062 0.68359 0.87109 0.85156 1.4062l6.3984-0.007813c0.56641 0 1.0273 0.46094 1.0273 1.0273 0 0.56641-0.46094 1.0273-1.0273 1.0273l-6.3984 0.007813c-0.16797 0.53906-0.46484 1.0234-0.85547 1.4141-0.625 0.625-1.4844 1.0117-2.4375 1.0117s-1.8125-0.38672-2.4375-1.0117-1.0117-1.4844-1.0117-2.4375c0-0.95313 0.38672-1.8125 1.0117-2.4375s1.4844-1.0117 2.4375-1.0117zm0.98438 15.719c-0.25-0.25-0.59766-0.40625-0.98047-0.40625-0.38281 0-0.73047 0.15625-0.98047 0.40625s-0.40625 0.59766-0.40625 0.98047c0 0.38281 0.15625 0.73047 0.40625 0.98047s0.59766 0.40625 0.98047 0.40625c0.38281 0 0.73047-0.15625 0.98047-0.40625s0.40625-0.59766 0.40625-0.98047c0-0.38281-0.15625-0.73047-0.40625-0.98047zm-0.98438-2.4648c0.95312 0 1.8125 0.38672 2.4375 1.0117 0.39062 0.39062 0.68359 0.87109 0.85156 1.4062l6.3984-0.007813c0.56641 0 1.0273 0.46094 1.0273 1.0273s-0.46094 1.0273-1.0273 1.0273l-6.3984 0.007812c-0.16797 0.53906-0.46484 1.0234-0.85547 1.4141-0.625 0.625-1.4844 1.0117-2.4375 1.0117s-1.8125-0.38672-2.4375-1.0117-1.0117-1.4844-1.0117-2.4375 0.38672-1.8125 1.0117-2.4375 1.4844-1.0117 2.4375-1.0117zm66.176-33.516c0.625-0.625 1.4844-1.0117 2.4375-1.0117 0.95312 0 1.8125 0.38672 2.4375 1.0117s1.0117 1.4844 1.0117 2.4375-0.38672 1.8125-1.0117 2.4375-1.4844 1.0117-2.4375 1.0117c-0.95313 0-1.8125-0.38672-2.4375-1.0117-0.39063-0.39062-0.6875-0.875-0.85547-1.4141l-6.3984-0.007813c-0.56641 0-1.0273-0.46094-1.0273-1.0273 0-0.56641 0.46094-1.0273 1.0273-1.0273l6.3984 0.007812c0.16797-0.53906 0.46484-1.0195 0.85156-1.4062zm2.4414 1.0547c-0.38281 0-0.73047 0.15625-0.98047 0.40625s-0.40625 0.59766-0.40625 0.98047c0 0.38281 0.15625 0.73047 0.40625 0.98047s0.59766 0.40625 0.98047 0.40625c0.38281 0 0.73047-0.15625 0.98047-0.40625s0.40625-0.59766 0.40625-0.98047c0-0.38281-0.15625-0.73047-0.40625-0.98047s-0.59766-0.40625-0.98047-0.40625zm-2.4414 54.598c0.625-0.625 1.4844-1.0117 2.4375-1.0117 0.95312 0 1.8125 0.38672 2.4375 1.0117s1.0117 1.4844 1.0117 2.4375-0.38672 1.8125-1.0117 2.4375-1.4844 1.0117-2.4375 1.0117c-0.95313 0-1.8125-0.38672-2.4375-1.0117-0.39063-0.39062-0.6875-0.875-0.85547-1.4141l-6.3984-0.007812c-0.56641 0-1.0273-0.46094-1.0273-1.0273s0.46094-1.0273 1.0273-1.0273l6.3984 0.007813c0.16797-0.53906 0.46484-1.0195 0.85156-1.4062zm2.4414 1.0508c-0.38281 0-0.73047 0.15625-0.98047 0.40625s-0.40625 0.59766-0.40625 0.98047c0 0.38281 0.15625 0.73047 0.40625 0.98047s0.59766 0.40625 0.98047 0.40625c0.38281 0 0.73047-0.15625 0.98047-0.40625s0.40625-0.59766 0.40625-0.98047c0-0.38281-0.15625-0.73047-0.40625-0.98047s-0.59766-0.40625-0.98047-0.40625zm-2.4414-28.789c0.625-0.625 1.4844-1.0117 2.4375-1.0117 0.95312 0 1.8125 0.38672 2.4375 1.0117s1.0117 1.4844 1.0117 2.4375c0 0.95313-0.38672 1.8125-1.0117 2.4375s-1.4844 1.0117-2.4375 1.0117c-0.95313 0-1.8125-0.38672-2.4375-1.0117-0.39063-0.39062-0.6875-0.875-0.85547-1.4141l-6.3984-0.007812c-0.56641 0-1.0273-0.46094-1.0273-1.0273s0.46094-1.0273 1.0273-1.0273l6.3984 0.007812c0.16797-0.53906 0.46484-1.0195 0.85156-1.4062zm2.4414 1.0508c-0.38281 0-0.73047 0.15625-0.98047 0.40625s-0.40625 0.59766-0.40625 0.98047c0 0.38281 0.15625 0.73047 0.40625 0.98047s0.59766 0.40625 0.98047 0.40625c0.38281 0 0.73047-0.15625 0.98047-0.40625s0.40625-0.59766 0.40625-0.98047c0-0.38281-0.15625-0.73047-0.40625-0.98047s-0.59766-0.40625-0.98047-0.40625zm-67.633 34.789c-0.25-0.25-0.59766-0.40625-0.98047-0.40625-0.38281 0-0.73047 0.15625-0.98047 0.40625s-0.40625 0.59766-0.40625 0.98047 0.15625 0.73047 0.40625 0.98047 0.59766 0.40625 0.98047 0.40625c0.38281 0 0.73047-0.15625 0.98047-0.40625s0.40625-0.59766 0.40625-0.98047-0.15625-0.73047-0.40625-0.98047zm-0.98438-2.4688c0.95312 0 1.8125 0.38672 2.4375 1.0117 0.39062 0.39062 0.68359 0.87109 0.85156 1.4062l6.3984-0.007813c0.56641 0 1.0273 0.46094 1.0273 1.0273s-0.46094 1.0273-1.0273 1.0273l-6.3984 0.007812c-0.16797 0.53906-0.46484 1.0234-0.85547 1.4141-0.625 0.625-1.4844 1.0117-2.4375 1.0117s-1.8125-0.38672-2.4375-1.0117-1.0117-1.4844-1.0117-2.4375 0.38672-1.8125 1.0117-2.4375 1.4844-1.0117 2.4375-1.0117zm0.98438-66.449c-0.25-0.25-0.59766-0.40625-0.98047-0.40625-0.38281 0-0.73047 0.15625-0.98047 0.40625s-0.40625 0.59766-0.40625 0.98047c0 0.38281 0.15625 0.73047 0.40625 0.98047s0.59766 0.40625 0.98047 0.40625c0.38281 0 0.73047-0.15625 0.98047-0.40625s0.40625-0.59766 0.40625-0.98047c0-0.38281-0.15625-0.73047-0.40625-0.98047zm-0.98438-2.4648c0.95312 0 1.8125 0.38672 2.4375 1.0117 0.39062 0.39063 0.68359 0.87109 0.85156 1.4062l6.3984-0.007812c0.56641 0 1.0273 0.46094 1.0273 1.0273s-0.46094 1.0273-1.0273 1.0273l-6.3984 0.007812c-0.16797 0.53906-0.46484 1.0234-0.85547 1.4141-0.625 0.625-1.4844 1.0117-2.4375 1.0117s-1.8125-0.38672-2.4375-1.0117-1.0117-1.4844-1.0117-2.4375c0-0.95312 0.38672-1.8125 1.0117-2.4375s1.4844-1.0117 2.4375-1.0117zm29.902 19.559 3.3516-2.1953c-2.1211-1.3867-4.1836-2.7695-6.043-4.1484-2.2734-1.6875-4.25-3.3711-5.6797-5.0508-1.3125-1.5391-2.0898-3.1328-2.0508-4.8047s0.875-3.3281 2.7852-4.9727c0.019531-0.019531 0.042969-0.039062 0.0625-0.058593 0.38672-0.32812 0.60156-0.78125 0.64062-1.2461 0.039063-0.47266-0.10156-0.95703-0.42969-1.3438s-0.78125-0.60156-1.2461-0.64062c-0.47266-0.039062-0.95703 0.10156-1.3438 0.42969l-0.003906-0.003907c-3.1016 2.6445-4.4609 5.1719-4.5156 7.6172-0.054688 2.4648 1.1914 4.9297 3.2969 7.4062 1.3555 1.5898 3.1133 3.1602 5.1211 4.7188 1.8867 1.4648 3.9375 2.8867 6.0586 4.293zm10.547 36.828-3.3516 2.1953c2.1211 1.3867 4.1836 2.7695 6.043 4.1484 2.2734 1.6875 4.25 3.3711 5.6797 5.0508 1.3125 1.5391 2.0898 3.1328 2.0508 4.8047-0.039062 1.6641-0.87109 3.3164-2.7656 4.957l-0.019531 0.019532h-0.003906c-0.019532 0.019531-0.039063 0.039062-0.0625 0.054687-0.38672 0.32812-0.60156 0.78125-0.64063 1.2461-0.039062 0.47266 0.10156 0.95703 0.42969 1.3438s0.78125 0.60156 1.2461 0.64062c0.47266 0.039062 0.95703-0.10156 1.3438-0.42969l0.003906 0.003907c3.1016-2.6445 4.4609-5.1719 4.5156-7.6172 0.058594-2.4648-1.1914-4.9297-3.2969-7.4062-1.3555-1.5898-3.1133-3.1602-5.1211-4.7188-1.8867-1.4648-3.9375-2.8867-6.0586-4.293zm-10.445-2.457c-8.5391-6.3125-12.816-11.176-12.824-15.914-0.007813-4.8359 4.4219-9.8242 13.293-16.371l5.2227-3.4219 0.003906-0.003906c2.5586-1.6719 5.0742-3.3438 7.3438-5.043 2.2734-1.6992 4.2461-3.3945 5.6602-5.0703 1.3047-1.5469 2.0742-3.1406 2.0273-4.8164-0.046875-1.6914-0.90625-3.3633-2.8672-5.0195-0.015626-0.011719-0.03125-0.023437-0.046876-0.035156-0.35937-0.32031-0.5625-0.75781-0.60156-1.2109-0.039062-0.47266 0.097656-0.96094 0.42188-1.3477s0.77734-0.60156 1.2461-0.64453c0.47266-0.039063 0.95703 0.097656 1.3438 0.42188l-0.003907 0.003906c3.1172 2.6328 4.4883 5.1562 4.5547 7.5977 0.066406 2.4609-1.1719 4.9336-3.2695 7.4141-1.3633 1.6133-3.1133 3.1914-5.0977 4.7461-1.9922 1.5625-4.2383 3.1133-6.5703 4.6641-0.011719 0.007812-0.023438 0.015625-0.03125 0.019531l-5.2305 3.4219c-0.023437 0.015625-0.046875 0.03125-0.066406 0.046875-8.9414 6.4961-13.418 10.398-13.414 14.586 0.003907 4 4.0938 7.7461 12.289 13.75l-3.3906 2.2188zm5.1992-3.4453c8.0352-5.8477 12.047-9.3242 12.051-12.523 0.003907-3.207-4.0195-6.6836-12.051-12.539-2.5312 1.8477-4.668 3.457-6.4023 4.8984l9.0898-0.019531c0.56641 0 1.0273 0.46094 1.0273 1.0273 0 0.56641-0.46094 1.0273-1.0273 1.0273l-11.277 0.023438c-0.042969 0-0.082032-0.003906-0.12109-0.007812-1.793 1.7305-2.8633 3.2109-3.2109 4.6055l20.176-0.042968c0.56641 0 1.0273 0.46094 1.0273 1.0273 0 0.56641-0.46094 1.0273-1.0273 1.0273l-20.152 0.042969c0.37109 1.3789 1.4453 2.8438 3.2266 4.5547 0.035156-0.003906 0.074219-0.007812 0.10938-0.007812l11.277-0.023438c0.56641 0 1.0273 0.46094 1.0273 1.0273s-0.46094 1.0273-1.0273 1.0273l-9.0781 0.019531c1.7266 1.4297 3.8477 3.0273 6.3633 4.8594zm7.0156-29.711c8.7266 6.5898 13.09 11.855 13.078 17.242-0.011719 5.3672-4.3594 10.594-13.043 17.105 1.9609 1.3086 3.8359 2.6211 5.5234 3.9297 2.0859 1.6211 3.9414 3.2852 5.418 5.0156 2.4219 2.8477 3.8594 5.7578 3.7891 8.7734-0.070312 3.0156-1.6289 6.0391-5.1797 9.0859l0.003906 0.003906c-0.039062 0.039063-0.078125 0.074219-0.125 0.10547-0.80859 0.66016-1.8047 0.94141-2.7734 0.86328s-1.9102-0.51953-2.6055-1.3047c-0.039063-0.039063-0.070313-0.078125-0.10156-0.12109-0.66016-0.80859-0.94141-1.8086-0.86328-2.7734 0.078125-0.96875 0.51953-1.9102 1.3047-2.6055 0.042968-0.042969 0.089843-0.078125 0.13672-0.11328 1.0586-0.91797 1.668-1.7891 1.918-2.6289-0.039063 0.003906-0.078125 0.007813-0.12109 0.007813l-21.152 0.042969c-0.56641 0-1.0273-0.46094-1.0273-1.0273s0.46094-1.0273 1.0273-1.0273l21.152-0.042969h0.046875c-0.25-0.72656-0.71875-1.4609-1.3516-2.2031-0.66406-0.78125-1.4727-1.5742-2.3906-2.375l-12.867 0.023438c-0.56641 0-1.0273-0.46094-1.0273-1.0273s0.46094-1.0273 1.0273-1.0273l10.324-0.019531c-0.13672-0.10156-0.26953-0.20312-0.40625-0.30469-2.0352-1.5117-4.3359-3.0391-6.6953-4.5703-2.375 1.5547-4.6797 3.1016-6.6797 4.5977-2.1523 1.6094-4.0117 3.2031-5.3203 4.7578-0.98828 1.1719-1.5742 2.3242-1.5469 3.4375 0.03125 1.0977 0.67578 2.2578 2.1406 3.4961 0.023437 0.019531 0.042968 0.035156 0.0625 0.058593 0.78516 0.69141 1.2266 1.6289 1.3086 2.5938 0.085938 0.98828-0.21094 2.0117-0.90625 2.8359l-0.058593 0.066406-0.019532 0.019531c-0.6875 0.76953-1.6172 1.207-2.5703 1.2891-0.98828 0.085937-2.0117-0.21094-2.8359-0.90625l-0.003906-0.003907-0.003906 0.003907c-3.6094-3.0469-5.1953-6.0859-5.2773-9.1211-0.082031-3.0195 1.3398-5.9375 3.75-8.793 1.4531-1.7227 3.3086-3.3945 5.4023-5.0352 1.7188-1.3477 3.5859-2.6641 5.5195-3.9727-8.6992-6.5195-13.055-11.746-13.062-17.121-0.011719-5.3711 4.3203-10.621 12.992-17.18-1.9648-1.3125-3.8477-2.6289-5.5391-3.9453-2.0859-1.6211-3.9414-3.2852-5.418-5.0156-2.4219-2.8477-3.8594-5.7578-3.7891-8.7734 0.070312-3.0312 1.6445-6.0781 5.2422-9.1406l0.003906-0.003906-0.003906-0.003906c0.82031-0.69531 1.8438-0.99609 2.832-0.91406 0.99219 0.082031 1.9609 0.54297 2.6562 1.3633 0.69531 0.82031 0.99609 1.8438 0.91406 2.832-0.082031 0.99219-0.54297 1.9609-1.3633 2.6562-0.019531 0.015625-0.039063 0.03125-0.058594 0.046875-1.4219 1.2266-2.043 2.3711-2.0664 3.457-0.027344 1.1172 0.5625 2.2656 1.5586 3.4375 1.3086 1.5391 3.1758 3.1211 5.3438 4.7305 2.0352 1.5117 4.3359 3.0391 6.6953 4.5703 2.375-1.5547 4.6797-3.1016 6.6797-4.5977 0.19922-0.14844 0.39844-0.30078 0.59375-0.44922l-10.402 0.019532c-0.56641 0-1.0273-0.46094-1.0273-1.0273s0.46094-1.0273 1.0273-1.0273l12.859-0.023437h0.046875c0.84766-0.75781 1.5977-1.5078 2.2266-2.25 0.67188-0.79688 1.1562-1.5781 1.3906-2.3516l-22.223 0.042969c-0.56641 0-1.0273-0.46094-1.0273-1.0273 0-0.56641 0.46094-1.0273 1.0273-1.0273l22.195-0.042969c-0.28516-0.80859-0.91406-1.6484-1.957-2.5312-0.023437-0.019531-0.042969-0.035157-0.0625-0.058594-0.78516-0.69141-1.2266-1.6289-1.3086-2.5938-0.085938-0.98828 0.21094-2.0117 0.90625-2.8359 0.69531-0.82422 1.6562-1.2891 2.6484-1.375 0.98828-0.085938 2.0117 0.21094 2.8359 0.90625l0.003907 0.003906 0.003906-0.003906c3.6094 3.0469 5.1953 6.0859 5.2773 9.1211 0.082031 3.0195-1.3398 5.9375-3.75 8.793-1.4531 1.7227-3.3086 3.3945-5.4023 5.0352-1.7031 1.3359-3.5508 2.6406-5.4648 3.9336zm-2.1992 33.445c-0.046876 0.019531-0.089844 0.046875-0.13672 0.074218l-5.2305 3.4258c-2.5586 1.6719-5.0742 3.3438-7.3438 5.043-2.2734 1.6992-4.2461 3.3945-5.6602 5.0703-1.3047 1.5469-2.0742 3.1406-2.0273 4.8164 0.046875 1.6914 0.90625 3.3633 2.8672 5.0195 0.015624 0.011719 0.03125 0.023438 0.046874 0.035157 0.35938 0.32031 0.5625 0.75781 0.60156 1.2109 0.039063 0.44922-0.082031 0.91016-0.37109 1.2852-0.035156 0.039063-0.070312 0.078126-0.10156 0.12109-0.32031 0.34766-0.75 0.54688-1.1953 0.58594-0.44922 0.039062-0.91016-0.082032-1.2852-0.37109-0.035156-0.03125-0.070312-0.0625-0.10547-0.089844-3.082-2.6172-4.4375-5.1289-4.5039-7.5586-0.066406-2.4609 1.1719-4.9336 3.2695-7.4141 1.3633-1.6133 3.1133-3.1914 5.0977-4.7461 1.9922-1.5625 4.2383-3.1133 6.5703-4.6641 0.011719-0.007813 0.023437-0.015625 0.035156-0.019532l5.2305-3.4219c0.023438-0.015626 0.042969-0.03125 0.066406-0.046876 8.9844-6.5117 13.469-10.422 13.473-14.609 0.003907-4.0078-4.1016-7.7539-12.289-13.762l3.3867-2.2148c8.5664 6.3828 12.852 11.281 12.84 16.035-0.007812 4.8086-4.4141 9.75-13.223 16.207z" fill-rule="evenodd"/>
<text x="0.0" y="117.5" font-size="5.0" font-weight="bold" font-family="Arbeit Regular, Helvetica, Arial-Unicode, Arial, Sans-serif" fill="#000000">Created by Icon Designer</text><text x="0.0" y="122.5" font-size="5.0" font-weight="bold" font-family="Arbeit Regular, Helvetica, Arial-Unicode, Arial, Sans-serif" fill="#000000">from Noun Project</text></svg>