<svg width="100" height="100" viewBox="0 0 100 100" fill="none" xmlns="http://www.w3.org/2000/svg">
<path fill-rule="evenodd" clip-rule="evenodd" d="M16.4375 42.4089C16.1875 42.1589 15.8398 42.0026 15.457 42.0026C15.0742 42.0026 14.7266 42.1589 14.4766 42.4089C14.2266 42.6589 14.0703 43.0065 14.0703 43.3893C14.0703 43.7721 14.2266 44.1198 14.4766 44.3698C14.7266 44.6198 15.0742 44.7761 15.457 44.7761C15.8398 44.7761 16.1875 44.6198 16.4375 44.3698C16.6875 44.1198 16.8437 43.7721 16.8437 43.3893C16.8437 43.0065 16.6875 42.6589 16.4375 42.4089ZM15.4531 39.9401C16.4062 39.9401 17.2656 40.3268 17.8906 40.9518C18.2812 41.3424 18.5742 41.8229 18.7422 42.358L25.1406 42.3502C25.707 42.3502 26.1679 42.8111 26.1679 43.3775C26.1679 43.9439 25.7069 44.4048 25.1406 44.4048L18.7422 44.4126C18.5742 44.9516 18.2773 45.436 17.8867 45.8267C17.2617 46.4517 16.4023 46.8384 15.4492 46.8384C14.4961 46.8384 13.6367 46.4516 13.0117 45.8267C12.3867 45.2017 12 44.3423 12 43.3892C12 42.436 12.3867 41.5767 13.0117 40.9517C13.6367 40.3267 14.4961 39.94 15.4492 39.94L15.4531 39.9401ZM16.4375 55.6591C16.1875 55.4091 15.8398 55.2528 15.457 55.2528C15.0742 55.2528 14.7266 55.4091 14.4766 55.6591C14.2266 55.9091 14.0703 56.2567 14.0703 56.6395C14.0703 57.0223 14.2266 57.37 14.4766 57.62C14.7266 57.87 15.0742 58.0263 15.457 58.0263C15.8398 58.0263 16.1875 57.87 16.4375 57.62C16.6875 57.37 16.8437 57.0223 16.8437 56.6395C16.8437 56.2567 16.6875 55.9091 16.4375 55.6591ZM15.4531 53.1943C16.4062 53.1943 17.2656 53.581 17.8906 54.206C18.2812 54.5966 18.5742 55.0771 18.7422 55.6122L25.1406 55.6044C25.707 55.6044 26.1679 56.0653 26.1679 56.6317C26.1679 57.198 25.7069 57.659 25.1406 57.659L18.7422 57.6668C18.5742 58.2058 18.2773 58.6902 17.8867 59.0809C17.2617 59.7059 16.4023 60.0926 15.4492 60.0926C14.4961 60.0926 13.6367 59.7058 13.0117 59.0809C12.3867 58.4559 12 57.5965 12 56.6434C12 55.6903 12.3867 54.8309 13.0117 54.2059C13.6367 53.5809 14.4961 53.1942 15.4492 53.1942L15.4531 53.1943ZM81.6291 19.6783C82.2541 19.0533 83.1135 18.6666 84.0666 18.6666C85.0197 18.6666 85.8791 19.0533 86.5041 19.6783C87.1291 20.3032 87.5158 21.1627 87.5158 22.1158C87.5158 23.0689 87.1291 23.9283 86.5041 24.5533C85.8791 25.1783 85.0197 25.565 84.0666 25.565C83.1135 25.565 82.2541 25.1782 81.6291 24.5533C81.2385 24.1626 80.9416 23.6783 80.7736 23.1392L74.3752 23.1314C73.8088 23.1314 73.3479 22.6704 73.3479 22.1041C73.3479 21.5376 73.8089 21.0768 74.3752 21.0768L80.7736 21.0846C80.9416 20.5455 81.2385 20.0651 81.6252 19.6784L81.6291 19.6783ZM84.0705 20.733C83.6877 20.733 83.34 20.8892 83.09 21.1392C82.84 21.3892 82.6838 21.7369 82.6838 22.1197C82.6838 22.5025 82.84 22.8502 83.09 23.1002C83.34 23.3502 83.6877 23.5064 84.0705 23.5064C84.4533 23.5064 84.801 23.3502 85.051 23.1002C85.301 22.8502 85.4572 22.5025 85.4572 22.1197C85.4572 21.7369 85.301 21.3892 85.051 21.1392C84.801 20.8892 84.4533 20.733 84.0705 20.733ZM81.6291 75.331C82.2541 74.706 83.1135 74.3193 84.0666 74.3193C85.0197 74.3193 85.8791 74.706 86.5041 75.331C87.1291 75.9559 87.5158 76.8154 87.5158 77.7685C87.5158 78.7216 87.1291 79.581 86.5041 80.206C85.8791 80.831 85.0197 81.2177 84.0666 81.2177C83.1135 81.2177 82.2541 80.8309 81.6291 80.206C81.2385 79.8153 80.9416 79.331 80.7736 78.7919L74.3752 78.7841C73.8088 78.7841 73.3479 78.3231 73.3479 77.7568C73.3479 77.1904 73.8089 76.7295 74.3752 76.7295L80.7736 76.7373C80.9416 76.1982 81.2385 75.7178 81.6252 75.3311L81.6291 75.331ZM84.0705 76.3818C83.6877 76.3818 83.34 76.538 83.09 76.788C82.84 77.038 82.6838 77.3857 82.6838 77.7685C82.6838 78.1513 82.84 78.499 83.09 78.749C83.34 78.999 83.6877 79.1552 84.0705 79.1552C84.4533 79.1552 84.801 78.999 85.051 78.749C85.301 78.499 85.4572 78.1513 85.4572 77.7685C85.4572 77.3857 85.301 77.038 85.051 76.788C84.801 76.538 84.4533 76.3818 84.0705 76.3818ZM81.6291 47.5928C82.2541 46.9678 83.1135 46.5811 84.0666 46.5811C85.0197 46.5811 85.8791 46.9678 86.5041 47.5928C87.1291 48.2177 87.5158 49.0772 87.5158 50.0303C87.5158 50.9834 87.1291 51.8428 86.5041 52.4678C85.8791 53.0928 85.0197 53.4795 84.0666 53.4795C83.1135 53.4795 82.2541 53.0927 81.6291 52.4678C81.2385 52.0771 80.9416 51.5928 80.7736 51.0537L74.3752 51.0459C73.8088 51.0459 73.3479 50.5849 73.3479 50.0186C73.3479 49.4522 73.8089 48.9913 74.3752 48.9913L80.7736 48.9991C80.9416 48.46 81.2385 47.9796 81.6252 47.5929L81.6291 47.5928ZM84.0705 48.6436C83.6877 48.6436 83.34 48.7998 83.09 49.0498C82.84 49.2998 82.6838 49.6475 82.6838 50.0303C82.6838 50.4131 82.84 50.7608 83.09 51.0108C83.34 51.2608 83.6877 51.417 84.0705 51.417C84.4533 51.417 84.801 51.2608 85.051 51.0108C85.301 50.7608 85.4572 50.4131 85.4572 50.0303C85.4572 49.6475 85.301 49.2998 85.051 49.0498C84.801 48.7998 84.4533 48.6436 84.0705 48.6436ZM16.4375 83.4326C16.1875 83.1826 15.8398 83.0263 15.457 83.0263C15.0742 83.0263 14.7266 83.1826 14.4766 83.4326C14.2266 83.6826 14.0703 84.0302 14.0703 84.413C14.0703 84.7958 14.2266 85.1435 14.4766 85.3935C14.7266 85.6435 15.0742 85.7998 15.457 85.7998C15.8398 85.7998 16.1875 85.6435 16.4375 85.3935C16.6875 85.1435 16.8438 84.7958 16.8438 84.413C16.8438 84.0302 16.6875 83.6826 16.4375 83.4326ZM15.4531 80.9638C16.4062 80.9638 17.2656 81.3505 17.8906 81.9755C18.2813 82.3661 18.5742 82.8466 18.7422 83.3817L25.1406 83.3739C25.707 83.3739 26.1679 83.8348 26.1679 84.4012C26.1679 84.9675 25.707 85.4285 25.1406 85.4285L18.7422 85.4363C18.5742 85.9753 18.2774 86.4597 17.8867 86.8504C17.2617 87.4754 16.4023 87.8621 15.4492 87.8621C14.4961 87.8621 13.6367 87.4753 13.0117 86.8504C12.3867 86.2254 12 85.366 12 84.4129C12 83.4598 12.3867 82.6004 13.0117 81.9754C13.6367 81.3504 14.4961 80.9637 15.4492 80.9637L15.4531 80.9638ZM16.4375 14.5148C16.1875 14.2648 15.8398 14.1085 15.457 14.1085C15.0742 14.1085 14.7266 14.2648 14.4766 14.5148C14.2266 14.7648 14.0703 15.1124 14.0703 15.4952C14.0703 15.878 14.2266 16.2257 14.4766 16.4757C14.7266 16.7257 15.0742 16.882 15.457 16.882C15.8398 16.882 16.1875 16.7257 16.4375 16.4757C16.6875 16.2257 16.8438 15.878 16.8438 15.4952C16.8438 15.1124 16.6875 14.7648 16.4375 14.5148ZM15.4531 12.05C16.4062 12.05 17.2656 12.4367 17.8906 13.0617C18.2813 13.4523 18.5742 13.9328 18.7422 14.4679L25.1406 14.4601C25.707 14.4601 26.1679 14.921 26.1679 15.4874C26.1679 16.0537 25.707 16.5147 25.1406 16.5147L18.7422 16.5225C18.5742 17.0615 18.2774 17.5459 17.8867 17.9366C17.2617 18.5616 16.4023 18.9483 15.4492 18.9483C14.4961 18.9483 13.6367 18.5615 13.0117 17.9366C12.3867 17.3116 12 16.4522 12 15.4991C12 14.5459 12.3867 13.6866 13.0117 13.0616C13.6367 12.4366 14.4961 12.0499 15.4492 12.0499L15.4531 12.05ZM45.3551 31.609L48.7067 29.4137C46.5856 28.027 44.5231 26.6442 42.6637 25.2653C40.3903 23.5778 38.4137 21.8942 36.984 20.2145C35.6715 18.6754 34.8942 17.0817 34.9332 15.4098C34.9722 13.7379 35.8082 12.0817 37.7184 10.4371C37.738 10.4175 37.7614 10.398 37.7809 10.3785C38.1676 10.0504 38.3825 9.59722 38.4216 9.13237C38.4606 8.65971 38.32 8.17534 37.9919 7.78857C37.6637 7.4018 37.2106 7.18701 36.7458 7.14795C36.2731 7.10889 35.7887 7.24951 35.402 7.57764L35.3981 7.57374C32.2965 10.2182 30.9372 12.7456 30.8825 15.1909C30.8278 17.6557 32.0739 20.1206 34.1794 22.5971C35.5349 24.1869 37.2927 25.7573 39.3005 27.3159C41.1872 28.7807 43.238 30.2026 45.3591 31.6089L45.3551 31.609ZM55.9021 68.437L52.5505 70.6323C54.6716 72.019 56.7341 73.4018 58.5935 74.7807C60.8669 76.4682 62.8435 78.1518 64.2732 79.8315C65.5857 81.3706 66.363 82.9643 66.324 84.6362C66.285 86.3003 65.4529 87.9526 63.5584 89.5932L63.5389 89.6127H63.535C63.5155 89.6322 63.4959 89.6518 63.4725 89.6674C63.0858 89.9955 62.8709 90.4486 62.8319 90.9135C62.7928 91.3861 62.9334 91.8705 63.2616 92.2573C63.5897 92.6441 64.0428 92.8588 64.5077 92.8979C64.9803 92.937 65.4647 92.7963 65.8515 92.4682L65.8554 92.4721C68.957 89.8276 70.3163 87.3002 70.371 84.8549C70.4296 82.3901 69.1796 79.9252 67.0741 77.4487C65.7186 75.8589 63.9608 74.2885 61.953 72.7299C60.0663 71.2651 58.0155 69.8432 55.8944 68.4369L55.9021 68.437ZM45.4571 65.98C36.918 59.6675 32.6411 54.804 32.6331 50.066C32.6253 45.2301 37.055 40.2418 45.9261 33.695L51.1488 30.2731L51.1527 30.2692C53.7113 28.5973 56.2269 26.9254 58.4965 25.2262C60.7699 23.527 62.7426 21.8317 64.1567 20.1559C65.4614 18.609 66.2309 17.0153 66.184 15.3395C66.1372 13.6481 65.2778 11.9762 63.3168 10.32C63.3012 10.3082 63.2856 10.2965 63.27 10.2848C62.9106 9.96449 62.7075 9.527 62.6684 9.07391C62.6293 8.60125 62.7661 8.11297 63.0903 7.72621C63.4145 7.33945 63.8676 7.12465 64.3364 7.08168C64.809 7.04261 65.2934 7.17933 65.6802 7.50356L65.6763 7.50746C68.7935 10.1403 70.1646 12.6637 70.231 15.1052C70.2974 17.5661 69.0591 20.0388 66.9615 22.5193C65.5982 24.1326 63.8482 25.7107 61.8638 27.2654C59.8716 28.8279 57.6255 30.3787 55.2935 31.9295C55.2818 31.9373 55.27 31.9451 55.2622 31.949L50.0317 35.3709C50.0083 35.3865 49.9848 35.4021 49.9653 35.4178C41.0239 41.9139 36.5473 45.8158 36.5513 50.0038C36.5552 54.0038 40.6451 57.7499 48.8403 63.7538L45.4497 65.9726L45.4571 65.98ZM50.6563 62.5347C58.6915 56.687 62.7033 53.2105 62.7073 50.0117C62.7112 46.8047 58.6878 43.3281 50.6563 37.4727C48.1251 39.3204 45.9883 40.9297 44.254 42.3711L53.3438 42.3515C53.9102 42.3515 54.3711 42.8125 54.3711 43.3788C54.3711 43.9452 53.9102 44.4061 53.3438 44.4061L42.0668 44.4296C42.0239 44.4296 41.9848 44.4257 41.9457 44.4218C40.1527 46.1523 39.0824 47.6327 38.7348 49.0273L58.9108 48.9843C59.4772 48.9843 59.9381 49.4452 59.9381 50.0116C59.9381 50.578 59.4772 51.0389 58.9108 51.0389L38.7588 51.0819C39.1299 52.4608 40.2041 53.9257 41.9854 55.6366C42.0206 55.6327 42.0597 55.6287 42.0948 55.6287L53.3718 55.6053C53.9382 55.6053 54.3991 56.0663 54.3991 56.6326C54.3991 57.199 53.9382 57.6599 53.3718 57.6599L44.2937 57.6794C46.0203 59.1091 48.1414 60.7067 50.657 62.5388L50.6563 62.5347ZM57.6719 32.8237C66.3985 39.4135 70.7619 44.6787 70.7499 50.0657C70.7382 55.4329 66.3905 60.6597 57.7069 67.1707C59.6678 68.4793 61.5428 69.7918 63.2303 71.1004C65.3162 72.7215 67.1717 74.3856 68.6483 76.116C71.0702 78.9637 72.5077 81.8738 72.4374 84.8894C72.3671 87.905 70.8085 90.9285 67.2577 93.9753L67.2616 93.9792C67.2226 94.0182 67.1835 94.0534 67.1366 94.0846C66.328 94.7448 65.3319 95.0261 64.3632 94.9479C63.3945 94.8698 62.453 94.4284 61.7577 93.6432C61.7187 93.6042 61.6874 93.5651 61.6562 93.5221C60.996 92.7135 60.7148 91.7135 60.7929 90.7487C60.871 89.78 61.3124 88.8385 62.0976 88.1432C62.1406 88.1003 62.1874 88.0651 62.2343 88.03C63.2929 87.112 63.9023 86.2409 64.1523 85.4011C64.1133 85.405 64.0742 85.4089 64.0312 85.4089L42.8792 85.4518C42.3128 85.4518 41.8519 84.9909 41.8519 84.4245C41.8519 83.8582 42.3129 83.3972 42.8792 83.3972L64.0312 83.3543H64.0781C63.8281 82.6277 63.3594 81.8934 62.7265 81.1512C62.0624 80.3699 61.2538 79.577 60.3359 78.7762L47.4689 78.7996C46.9025 78.7996 46.4416 78.3387 46.4416 77.7723C46.4416 77.2059 46.9025 76.745 47.4689 76.745L57.7929 76.7255C57.6562 76.6239 57.5234 76.5224 57.3867 76.4208C55.3514 74.9091 53.0507 73.3817 50.6913 71.8505C48.3163 73.4052 46.0117 74.9521 44.0117 76.4482C41.8594 78.0576 39.9999 79.6513 38.6913 81.206C37.7031 82.3779 37.1172 83.5302 37.1445 84.6435C37.1757 85.7412 37.8202 86.9013 39.285 88.1396C39.3085 88.1591 39.328 88.1747 39.3475 88.1982C40.1327 88.8896 40.5742 89.8271 40.6562 90.792C40.7421 91.7803 40.4452 92.8037 39.7499 93.6279L39.6913 93.6943L39.6718 93.7138C38.9843 94.4833 38.0546 94.9208 37.1015 95.0029C36.1132 95.0889 35.0898 94.792 34.2656 94.0967L34.2617 94.0928L34.2578 94.0967C30.6484 91.0498 29.0625 88.0108 28.9805 84.9756C28.8984 81.9561 30.3203 79.0381 32.7305 76.1826C34.1836 74.4599 36.0391 72.7881 38.1328 71.1474C39.8516 69.7997 41.7187 68.4833 43.6523 67.1747C34.9531 60.6552 30.5973 55.4287 30.5903 50.0537C30.5785 44.6826 34.9106 39.4327 43.5823 32.8737C41.6175 31.5612 39.7346 30.2448 38.0432 28.9284C35.9573 27.3073 34.1018 25.6432 32.6252 23.9128C30.2033 21.0651 28.7658 18.155 28.8361 15.1394C28.9064 12.1082 30.4806 9.06126 34.0783 5.99876L34.0822 5.99486L34.0783 5.99095C34.8986 5.29564 35.9221 4.99486 36.9103 5.07689C37.9025 5.15892 38.8712 5.61986 39.5665 6.44019C40.2618 7.2605 40.5626 8.28399 40.4805 9.27219C40.3985 10.2644 39.9376 11.2331 39.1172 11.9284C39.0977 11.944 39.0782 11.9596 39.0586 11.9753C37.6367 13.2019 37.0156 14.3464 36.9922 15.4323C36.9649 16.5495 37.5547 17.6979 38.5508 18.8698C39.8594 20.4089 41.7266 21.9909 43.8946 23.6003C45.9298 25.112 48.2305 26.6394 50.5899 28.1706C52.9649 26.6159 55.2696 25.069 57.2696 23.5729C57.4689 23.4244 57.6681 23.2721 57.8634 23.1236L47.4614 23.1432C46.895 23.1432 46.4341 22.6822 46.4341 22.1159C46.4341 21.5495 46.895 21.0886 47.4614 21.0886L60.3204 21.0651H60.3673C61.2149 20.3073 61.965 19.5573 62.5939 18.8151C63.2657 18.0183 63.7501 17.237 63.9845 16.4635L41.7615 16.5065C41.195 16.5065 40.7342 16.0456 40.7342 15.4792C40.7342 14.9128 41.1951 14.4519 41.7615 14.4519L63.9565 14.4089C63.6713 13.6004 63.0424 12.7605 61.9995 11.8777C61.976 11.8582 61.9565 11.8426 61.937 11.8191C61.1518 11.1277 60.7104 10.1902 60.6284 9.22535C60.5424 8.23707 60.8393 7.21365 61.5346 6.38945C62.2299 5.56523 63.1908 5.10035 64.183 5.01445C65.1713 4.92851 66.1947 5.22539 67.0189 5.9207L67.0228 5.9246L67.0267 5.9207C70.6361 8.9676 72.222 12.0066 72.304 15.0418C72.386 18.0613 70.9642 20.9793 68.554 23.8348C67.1009 25.5575 65.2454 27.2293 63.1517 28.87C61.4486 30.2059 59.6009 31.5106 57.6869 32.8036L57.6719 32.8237ZM55.4727 66.2687C55.4259 66.2882 55.3829 66.3155 55.336 66.3429L50.1055 69.7687C47.5469 71.4406 45.0313 73.1125 42.7617 74.8117C40.4883 76.5109 38.5156 78.2062 37.1015 79.882C35.7968 81.4289 35.0273 83.0226 35.0742 84.6984C35.1211 86.3898 35.9805 88.0617 37.9414 89.7179C37.957 89.7296 37.9727 89.7413 37.9883 89.753C38.3477 90.0734 38.5508 90.5109 38.5898 90.9639C38.6289 91.4132 38.5078 91.8741 38.2188 92.2491C38.1836 92.2882 38.1484 92.3273 38.1172 92.3702C37.7969 92.7179 37.3672 92.9171 36.9219 92.9562C36.4727 92.9952 36.0117 92.8741 35.6367 92.5851C35.6015 92.5538 35.5664 92.5226 35.5312 92.4952C32.4492 89.878 31.0937 87.3663 31.0273 84.9366C30.9609 82.4757 32.1992 80.003 34.2968 77.5225C35.6601 75.9092 37.4101 74.3311 39.3945 72.7764C41.3867 71.2139 43.6328 69.6631 45.9648 68.1123C45.9765 68.1045 45.9883 68.0967 46 68.0928L51.2305 64.6709C51.2539 64.6553 51.2734 64.6397 51.2969 64.624C60.2813 58.1123 64.7659 54.202 64.7699 50.015C64.7738 46.0072 60.6683 42.2611 52.4809 36.253L55.8676 34.0382C64.434 40.421 68.7196 45.3192 68.7076 50.0732C68.6998 54.8818 64.2935 59.8232 55.4846 66.2802L55.4727 66.2687Z" fill="black"/>
</svg>
