<svg width="100" height="100" viewBox="0 0 100 100" fill="none" xmlns="http://www.w3.org/2000/svg">
<path fill-rule="evenodd" clip-rule="evenodd" d="M54.1672 55.0044C53.5969 55.0044 53.136 54.5434 53.136 53.9732C53.136 53.4029 53.5969 52.942 54.1672 52.942H61.0891C60.0813 48.6022 57.7844 47.3404 55.4172 46.3561C53.7492 47.0475 52.1164 47.8795 50.9445 49.8288H57.7101C58.2804 49.8288 58.7413 50.2897 58.7413 50.86C58.7413 51.4302 58.2804 51.8912 57.7101 51.8912H50.0304C49.6984 52.9381 49.4523 54.1959 49.3234 55.7193C49.2765 56.2857 48.7804 56.7076 48.214 56.6607C47.6475 56.6138 47.2257 56.1177 47.2726 55.5513C47.8273 49.0669 50.1554 46.6919 52.8507 45.2743C50.128 43.9774 47.7882 41.9579 47.2726 35.9618C47.2257 35.3954 47.6476 34.8993 48.214 34.8524C48.7804 34.8055 49.2765 35.2274 49.3234 35.7938C49.4874 37.7196 49.882 39.1493 50.4328 40.243H57.7101C58.2804 40.243 58.7413 40.7039 58.7413 41.2742C58.7413 41.8445 58.2803 42.3054 57.7101 42.3054H52.0265C53.0304 43.1687 54.214 43.657 55.4171 44.1452C57.6124 43.2585 59.7491 42.3561 60.8429 39.1921H54.1671C53.5968 39.1921 53.1359 38.7312 53.1359 38.1609C53.1359 37.5906 53.5968 37.1297 54.1671 37.1297H61.3468C61.4132 36.7156 61.4679 36.2703 61.5069 35.7938C61.5538 35.2274 62.0499 34.8055 62.6163 34.8524C63.1827 34.8993 63.6046 35.3954 63.5577 35.9618C63.0421 41.9579 60.7022 43.9774 57.9796 45.2743C60.671 46.6923 62.9991 49.0673 63.5577 55.5513C63.6046 56.1177 63.1827 56.6138 62.6163 56.6607C62.0499 56.7076 61.5538 56.2857 61.5069 55.7193C61.4874 55.4732 61.4601 55.2388 61.4366 55.0044L54.1672 55.0044ZM49.1867 12.0634H27.3277C26.6011 12.0634 25.9371 12.3603 25.4605 12.8407C24.98 13.3212 24.6832 13.9813 24.6832 14.7079V15.0556C24.6832 15.7821 24.98 16.4462 25.4605 16.9228C25.941 17.4033 26.6011 17.7001 27.3277 17.7001H49.1867C49.9133 17.7001 50.5773 17.4032 51.0539 16.9228C51.5344 16.4423 51.8312 15.7822 51.8312 15.0556V14.7079C51.8312 13.9814 51.5344 13.3173 51.0539 12.8407C50.5734 12.3603 49.9133 12.0634 49.1867 12.0634ZM62.2567 66.5164C59.2489 67.5047 56.0731 67.825 52.9598 67.4773C51.034 67.2625 49.1356 66.7898 47.3114 66.0632C44.745 67.1179 42.1317 67.6257 39.4716 67.5827C36.6825 67.5398 33.8544 66.8913 30.9872 65.6413L30.952 65.6257C28.3973 64.3835 25.8036 63.7546 23.1708 63.7312C20.5263 63.7117 17.8231 64.3015 15.0653 65.5046C15.0146 65.528 14.9638 65.5437 14.9091 65.5593L8.3466 75.1609C7.48332 76.4226 7.0536 77.7703 7.0536 79.1062C7.0536 80.446 7.48329 81.7898 8.3466 83.0515C9.22551 84.3367 10.4247 85.3523 11.8505 86.0476C13.2919 86.7507 14.9677 87.1257 16.7763 87.1257H59.7373C61.5459 87.1257 63.2217 86.7507 64.6631 86.0476C66.0889 85.3523 67.2881 84.3367 68.167 83.0515C69.0303 81.7898 69.46 80.4421 69.46 79.1062C69.46 77.7664 69.0303 76.4226 68.167 75.1609L62.2567 66.5164ZM33.5577 45.6334C33.589 40.0357 35.7491 34.4534 40.0421 30.2114C42.2374 28.0395 44.7765 26.4262 47.4835 25.3755V19.7622H29.0385V40.5352C29.0385 42.0235 28.8354 43.4141 28.4096 44.754C27.9877 46.0899 27.3432 47.3712 26.4643 48.6563L16.9174 62.6253C19.0307 61.9768 21.1205 61.6565 23.1908 61.6761C26.1361 61.6995 29.0189 62.3948 31.8431 63.7659C34.4525 64.8987 37.0072 65.4886 39.5111 65.5276C41.2572 65.5549 42.9877 65.3166 44.6986 64.8088C42.9681 63.8362 41.3431 62.6096 39.8783 61.1252C35.6322 56.8322 33.5264 51.227 33.5577 45.6334ZM41.4874 31.6684C37.5968 35.5161 35.6358 40.5746 35.6085 45.6414C35.5812 50.7117 37.4874 55.7894 41.3351 59.6764C44.6437 63.0241 48.8507 64.942 53.1901 65.4303C56.237 65.774 59.3503 65.4107 62.2604 64.3405C62.2917 64.3288 62.3229 64.317 62.3542 64.3053C63.6394 63.8249 64.8814 63.2115 66.0611 62.4576C66.4752 62.192 67.0065 62.2662 67.3385 62.5982L68.1666 63.4381C68.315 63.5865 68.5064 63.6607 68.7017 63.6646C68.897 63.6646 69.0924 63.5943 69.2369 63.4498L72.9517 59.774C73.1001 59.6256 73.1744 59.4342 73.1783 59.2388C73.1783 59.0435 73.1079 58.8482 72.9634 58.7037L72.1353 57.8638C71.7876 57.5123 71.7447 56.9732 72.0025 56.5786C74.5259 52.7192 75.565 48.1684 75.1158 43.7386C74.6744 39.3988 72.8033 35.1722 69.4947 31.8286C65.647 27.938 60.5885 25.977 55.5217 25.9497C53.2912 25.938 51.0569 26.3013 48.9279 27.0395C48.8771 27.063 48.8263 27.0786 48.7716 27.0942C46.1154 28.0356 43.6232 29.563 41.4864 31.6762L41.4874 31.6684ZM80.6594 65.1484L75.2024 59.6757C75.2258 59.5311 75.2376 59.3866 75.2376 59.2421C75.2415 58.5233 74.9719 57.8007 74.4251 57.2499L74.1712 56.9921C76.6321 52.8905 77.6321 48.1523 77.1634 43.5311C76.679 38.7342 74.6086 34.0663 70.9524 30.3711C66.7102 26.082 61.1282 23.918 55.5304 23.8867C53.5148 23.875 51.4992 24.1445 49.5421 24.6875V19.7461C50.6983 19.6601 51.7375 19.1523 52.5149 18.3789C53.3664 17.5273 53.8976 16.3477 53.8976 15.0547V14.707C53.8976 13.4101 53.3703 12.2343 52.5149 11.3828C51.6633 10.5312 50.4837 10 49.1907 10H27.3316C26.0347 10 24.859 10.5273 24.0075 11.3828C23.1559 12.2344 22.6246 13.414 22.6246 14.707V15.0547C22.6246 16.3516 23.152 17.5274 24.0075 18.3789C24.7809 19.1523 25.8239 19.6601 26.9802 19.7461V40.5311C26.9802 41.8123 26.8083 42.9959 26.4489 44.1327C26.0856 45.2772 25.5309 46.3827 24.7692 47.496L6.6562 74C5.5507 75.6172 5 77.3555 5 79.1055C5 80.8516 5.55078 82.5938 6.6562 84.211C7.7421 85.8008 9.2148 87.0508 10.957 87.8985C12.6797 88.7383 14.6601 89.1876 16.7851 89.1876H59.7461C61.8711 89.1876 63.8516 88.7383 65.5742 87.8985C67.3164 87.0508 68.789 85.8008 69.875 84.211C70.9805 82.5938 71.5312 80.8555 71.5312 79.1055C71.5312 77.3594 70.9804 75.6172 69.875 74L64.2383 65.7578C64.9961 65.4257 65.7344 65.0468 66.461 64.6211L66.7227 64.8867C67.2657 65.4375 67.9844 65.7109 68.7071 65.7148C68.836 65.7148 68.9649 65.707 69.0938 65.6914L74.5508 71.1641C74.3399 71.5703 74.2344 72.0195 74.2305 72.4727C74.2266 73.2031 74.5001 73.9375 75.0508 74.4961C78.3438 77.8711 81.7031 81.207 85.0235 84.5581C85.754 85.2924 86.7188 85.6675 87.6876 85.6714C88.6564 85.6753 89.6251 85.3159 90.3595 84.5855C91.5353 83.4253 92.7189 82.2691 93.8829 81.1011C94.6173 80.3706 94.9884 79.4097 94.9923 78.4409C94.9962 77.476 94.6369 76.5112 93.9103 75.7729C90.5978 72.4096 87.2619 69.0659 83.9415 65.7109C83.3868 65.1523 82.6524 64.8671 81.9142 64.8632C81.4845 64.8593 81.0549 64.953 80.6603 65.1405L80.6594 65.1484ZM75.9055 69.6172L70.9446 64.6445L74.1204 61.5039L79.0813 66.4766L75.9016 69.6172H75.9055ZM81.3196 67.1602C81.4798 67 81.6907 66.9219 81.9016 66.9258C82.1126 66.9258 82.3196 67.0078 82.4798 67.168L92.4407 77.223C92.7727 77.5589 92.9367 78.0003 92.9367 78.4418C92.9328 78.8793 92.7649 79.3168 92.4328 79.6488L88.9133 83.1254C88.5735 83.4613 88.1321 83.6254 87.6906 83.6215C87.2492 83.6176 86.8078 83.4496 86.4758 83.1137C83.1555 79.7621 79.8508 76.3949 76.5149 73.0627C76.3587 72.9025 76.2806 72.6955 76.2806 72.4845C76.2806 72.2814 76.3587 72.0783 76.5149 71.9181C78.1087 70.3243 79.7219 68.7462 81.3274 67.1642L81.3196 67.1602ZM38.6126 45.6602C38.5892 49.961 40.2064 54.2696 43.472 57.5702C46.7337 60.8671 51.0267 62.5311 55.327 62.5546C59.6278 62.578 63.9364 60.9608 67.237 57.6952C70.5339 54.4335 72.1979 50.1405 72.2214 45.8402C72.2448 41.5394 70.6276 37.2308 67.362 33.9302C64.1003 30.6333 59.8073 28.9693 55.507 28.9458C51.2062 28.9223 46.8976 30.5396 43.597 33.8052C40.3001 37.0669 38.6361 41.3599 38.6126 45.6602ZM45.0423 35.2652C42.1439 38.1324 40.6829 41.898 40.6634 45.6712C40.6439 49.4444 42.0618 53.2298 44.9251 56.1242C47.7923 59.0226 51.5579 60.4836 55.3311 60.5031C59.1045 60.5226 62.8897 59.1047 65.7841 56.2414C68.6825 53.3742 70.1435 49.6086 70.163 45.8354C70.1825 42.062 68.7646 38.2768 65.9013 35.3824C63.0341 32.484 59.2685 31.023 55.4953 31.0035C51.7219 30.9839 47.9367 32.4019 45.0423 35.2652ZM21.1363 75.4212C21.3238 75.6087 21.4371 75.8626 21.4371 76.1477C21.4371 76.4329 21.3238 76.6868 21.1363 76.8743C20.9488 77.0618 20.6949 77.1751 20.4097 77.1751C20.1246 77.1751 19.8707 77.0618 19.6832 76.8743C19.4957 76.6868 19.3824 76.4329 19.3824 76.1477C19.3824 75.8626 19.4957 75.6087 19.6832 75.4212C19.8668 75.2337 20.1246 75.1204 20.4097 75.1204C20.6949 75.1204 20.9488 75.2337 21.1363 75.4212ZM20.4136 73.0579C21.2652 73.0579 22.0386 73.4055 22.5972 73.9602C23.1558 74.5188 23.4996 75.2883 23.4996 76.1438C23.4996 76.9954 23.1519 77.7688 22.5972 78.3274C22.0387 78.886 21.2652 79.2298 20.4136 79.2298C19.562 79.2298 18.7886 78.8821 18.23 78.3274C17.6715 77.7688 17.3277 76.9993 17.3277 76.1438C17.3277 75.2923 17.6754 74.5188 18.23 73.9602C18.7886 73.4016 19.5581 73.0579 20.4136 73.0579ZM42.9136 78.1946C43.2847 78.5657 43.5152 79.0813 43.5152 79.6477C43.5152 80.2141 43.2847 80.7297 42.9136 81.1008C42.5426 81.4719 42.0269 81.7023 41.4605 81.7023C40.8942 81.7023 40.3785 81.4719 40.0074 81.1008C39.6364 80.7297 39.4059 80.2141 39.4059 79.6477C39.4059 79.0813 39.6364 78.5657 40.0074 78.1946C40.3785 77.8235 40.8942 77.593 41.4605 77.593C42.0269 77.593 42.5425 77.8235 42.9136 78.1946ZM41.4605 75.5305C42.5972 75.5305 43.6246 75.9914 44.3707 76.7336C45.1168 77.4797 45.5738 78.507 45.5738 79.6438C45.5738 80.7806 45.1129 81.8079 44.3707 82.554C43.6247 83.3001 42.5973 83.7571 41.4605 83.7571C40.3237 83.7571 39.2964 83.2961 38.5503 82.554C37.8043 81.8079 37.3472 80.7806 37.3472 79.6438C37.3472 78.507 37.8082 77.4797 38.5503 76.7336C39.2964 75.9875 40.3237 75.5305 41.4605 75.5305ZM33.2535 71.3078C33.441 71.4953 33.5543 71.7492 33.5543 72.0343C33.5543 72.3195 33.441 72.5734 33.2535 72.7609C33.07 72.9484 32.8121 73.0617 32.527 73.0617C32.2418 73.0617 31.9879 72.9484 31.8004 72.7609C31.6129 72.5734 31.4996 72.3195 31.4996 72.0343C31.4996 71.7492 31.6129 71.4953 31.8004 71.3078C31.984 71.1203 32.2418 71.007 32.527 71.007C32.8121 71.007 33.066 71.1203 33.2535 71.3078ZM32.527 68.9445C33.3785 68.9445 34.152 69.2921 34.7106 69.8468C35.2692 70.4054 35.6129 71.1749 35.6129 72.0304C35.6129 72.882 35.2653 73.6554 34.7106 74.214C34.152 74.7726 33.3786 75.1164 32.527 75.1164C31.6754 75.1164 30.902 74.7687 30.3434 74.214C29.7848 73.6554 29.441 72.8859 29.441 72.0304C29.441 71.1789 29.7887 70.4054 30.3434 69.8468C30.902 69.2882 31.6715 68.9445 32.527 68.9445ZM59.754 74.9992C59.9415 75.1867 60.0548 75.4406 60.0548 75.7257C60.0548 76.0109 59.9415 76.2648 59.754 76.4523C59.5704 76.6398 59.3126 76.7531 59.0274 76.7531C58.7423 76.7531 58.4884 76.6398 58.3009 76.4523C58.1134 76.2687 58.0001 76.0109 58.0001 75.7257C58.0001 75.4406 58.1134 75.1867 58.3009 74.9992C58.4884 74.8117 58.7423 74.6984 59.0274 74.6984C59.3126 74.6984 59.5665 74.8117 59.754 74.9992ZM59.0274 72.6398C59.879 72.6398 60.6524 72.9874 61.211 73.5421C61.7696 74.1007 62.1134 74.8702 62.1134 75.7257C62.1134 76.5773 61.7657 77.3507 61.211 77.9093C60.6524 78.4679 59.879 78.8117 59.0274 78.8117C58.1759 78.8117 57.4024 78.464 56.8438 77.9093C56.2852 77.3507 55.9415 76.5812 55.9415 75.7257C55.9415 74.8742 56.2891 74.1007 56.8438 73.5421C57.4024 72.9835 58.1719 72.6398 59.0274 72.6398Z" fill="black"/>
</svg>
