<svg xmlns="http://www.w3.org/2000/svg" version="1.1" viewBox="-5.0 -10.0 110.0 135.0">
 <path d="m54.176 55.41c-0.57031 0-1.0312-0.46094-1.0312-1.0312 0-0.57031 0.46094-1.0312 1.0312-1.0312h6.9219c-1.0078-4.3398-3.3047-5.6016-5.6719-6.5859-1.668 0.69141-3.3008 1.5234-4.4727 3.4727h6.7656c0.57031 0 1.0312 0.46094 1.0312 1.0312s-0.46094 1.0312-1.0312 1.0312h-7.6797c-0.33203 1.0469-0.57812 2.3047-0.70703 3.8281-0.046875 0.56641-0.54297 0.98828-1.1094 0.94141s-0.98828-0.54297-0.94141-1.1094c0.55469-6.4844 2.8828-8.8594 5.5781-10.277-2.7227-1.2969-5.0625-3.3164-5.5781-9.3125-0.046875-0.56641 0.375-1.0625 0.94141-1.1094 0.56641-0.046874 1.0625 0.375 1.1094 0.94141 0.16406 1.9258 0.55859 3.3555 1.1094 4.4492h7.2773c0.57031 0 1.0312 0.46094 1.0312 1.0312 0 0.57031-0.46094 1.0312-1.0312 1.0312h-5.6836c1.0039 0.86328 2.1875 1.3516 3.3906 1.8398 2.1953-0.88672 4.332-1.7891 5.4258-4.9531h-6.6758c-0.57031 0-1.0312-0.46094-1.0312-1.0312 0-0.57031 0.46094-1.0312 1.0312-1.0312h7.1797c0.066406-0.41406 0.12109-0.85938 0.16016-1.3359 0.046875-0.56641 0.54297-0.98828 1.1094-0.94141 0.56641 0.046876 0.98828 0.54297 0.94141 1.1094-0.51562 5.9961-2.8555 8.0156-5.5781 9.3125 2.6914 1.418 5.0195 3.793 5.5781 10.277 0.046875 0.56641-0.375 1.0625-0.94141 1.1094s-1.0625-0.375-1.1094-0.94141c-0.019531-0.24609-0.046875-0.48047-0.070313-0.71484zm-4.9805-42.941h-21.859c-0.72656 0-1.3906 0.29688-1.8672 0.77734-0.48047 0.48047-0.77734 1.1406-0.77734 1.8672v0.34766c0 0.72656 0.29688 1.3906 0.77734 1.8672 0.48047 0.48047 1.1406 0.77734 1.8672 0.77734h21.859c0.72656 0 1.3906-0.29688 1.8672-0.77734 0.48047-0.48047 0.77734-1.1406 0.77734-1.8672v-0.34766c0-0.72656-0.29688-1.3906-0.77734-1.8672-0.48047-0.48047-1.1406-0.77734-1.8672-0.77734zm13.07 54.453c-3.0078 0.98828-6.1836 1.3086-9.2969 0.96094-1.9258-0.21484-3.8242-0.6875-5.6484-1.4141-2.5664 1.0547-5.1797 1.5625-7.8398 1.5195-2.7891-0.042969-5.6172-0.69141-8.4844-1.9414l-0.035156-0.015625c-2.5547-1.2422-5.1484-1.8711-7.7812-1.8945-2.6445-0.019531-5.3477 0.57031-8.1055 1.7734-0.050781 0.023438-0.10156 0.039063-0.15625 0.054688l-6.5625 9.6016c-0.86328 1.2617-1.293 2.6094-1.293 3.9453 0 1.3398 0.42969 2.6836 1.293 3.9453 0.87891 1.2852 2.0781 2.3008 3.5039 2.9961 1.4414 0.70312 3.1172 1.0781 4.9258 1.0781h42.961c1.8086 0 3.4844-0.375 4.9258-1.0781 1.4258-0.69531 2.625-1.7109 3.5039-2.9961 0.86328-1.2617 1.293-2.6094 1.293-3.9453 0-1.3398-0.42969-2.6836-1.293-3.9453zm-28.699-20.883c0.03125-5.5977 2.1914-11.18 6.4844-15.422 2.1953-2.1719 4.7344-3.7852 7.4414-4.8359v-5.6133h-18.445v20.773c0 1.4883-0.20312 2.8789-0.62891 4.2188-0.42188 1.3359-1.0664 2.6172-1.9453 3.9023l-9.5469 13.969c2.1133-0.64844 4.2031-0.96875 6.2734-0.94922 2.9453 0.023438 5.8281 0.71875 8.6523 2.0898 2.6094 1.1328 5.1641 1.7227 7.668 1.7617 1.7461 0.027344 3.4766-0.21094 5.1875-0.71875-1.7305-0.97266-3.3555-2.1992-4.8203-3.6836-4.2461-4.293-6.3516-9.8984-6.3203-15.492zm7.9297-13.965c-3.8906 3.8477-5.8516 8.9062-5.8789 13.973-0.027344 5.0703 1.8789 10.148 5.7266 14.035 3.3086 3.3477 7.5156 5.2656 11.855 5.7539 3.0469 0.34375 6.1602-0.019532 9.0703-1.0898 0.03125-0.011719 0.0625-0.023438 0.09375-0.035156 1.2852-0.48047 2.5273-1.0938 3.707-1.8477 0.41406-0.26562 0.94531-0.19141 1.2773 0.14062 0 0 0.82812 0.83984 0.82812 0.83984 0.14844 0.14844 0.33984 0.22266 0.53516 0.22656 0.19531 0 0.39062-0.070312 0.53516-0.21484l3.7148-3.6758c0.14844-0.14844 0.22266-0.33984 0.22656-0.53516 0-0.19531-0.070312-0.39062-0.21484-0.53516l-0.82812-0.83984c-0.34766-0.35156-0.39062-0.89062-0.13281-1.2852 2.5234-3.8594 3.5625-8.4102 3.1133-12.84-0.44141-4.3398-2.3125-8.5664-5.6211-11.91-3.8477-3.8906-8.9062-5.8516-13.973-5.8789-2.2305-0.011719-4.4648 0.35156-6.5938 1.0898-0.050781 0.023438-0.10156 0.039063-0.15625 0.054688-2.6562 0.94141-5.1484 2.4688-7.2852 4.582zm39.172 33.48-5.457-5.4727c0.023437-0.14453 0.035156-0.28906 0.035156-0.43359 0.003906-0.71875-0.26562-1.4414-0.8125-1.9922l-0.25391-0.25781c2.4609-4.1016 3.4609-8.8398 2.9922-13.461-0.48438-4.7969-2.5547-9.4648-6.2109-13.16-4.2422-4.2891-9.8242-6.4531-15.422-6.4844-2.0156-0.011719-4.0312 0.25781-5.9883 0.80078v-4.9414c1.1562-0.085938 2.1953-0.59375 2.9727-1.3672 0.85156-0.85156 1.3828-2.0312 1.3828-3.3242v-0.34766c0-1.2969-0.52734-2.4727-1.3828-3.3242-0.85156-0.85156-2.0312-1.3828-3.3242-1.3828h-21.859c-1.2969 0-2.4727 0.52734-3.3242 1.3828-0.85156 0.85156-1.3828 2.0312-1.3828 3.3242v0.34766c0 1.2969 0.52734 2.4727 1.3828 3.3242 0.77344 0.77344 1.8164 1.2812 2.9727 1.3672v20.785c0 1.2812-0.17188 2.4648-0.53125 3.6016-0.36328 1.1445-0.91797 2.25-1.6797 3.3633l-18.113 26.504c-1.1055 1.6172-1.6562 3.3555-1.6562 5.1055 0 1.7461 0.55078 3.4883 1.6562 5.1055 1.0859 1.5898 2.5586 2.8398 4.3008 3.6875 1.7227 0.83984 3.7031 1.2891 5.8281 1.2891h42.961c2.125 0 4.1055-0.44922 5.8281-1.2891 1.7422-0.84766 3.2148-2.0977 4.3008-3.6875 1.1055-1.6172 1.6562-3.3555 1.6562-5.1055 0-1.7461-0.55078-3.4883-1.6562-5.1055l-5.6367-8.2422c0.75781-0.33203 1.4961-0.71094 2.2227-1.1367l0.26172 0.26562c0.54297 0.55078 1.2617 0.82422 1.9844 0.82812 0.12891 0 0.25781-0.007813 0.38672-0.023438l5.457 5.4727c-0.21094 0.40625-0.31641 0.85547-0.32031 1.3086-0.003906 0.73047 0.26953 1.4648 0.82031 2.0234 3.293 3.375 6.6523 6.7109 9.9727 10.062 0.73047 0.73438 1.6953 1.1094 2.6641 1.1133s1.9375-0.35547 2.6719-1.0859c1.1758-1.1602 2.3594-2.3164 3.5234-3.4844 0.73438-0.73047 1.1055-1.6914 1.1094-2.6602 0.003906-0.96484-0.35547-1.9297-1.082-2.668-3.3125-3.3633-6.6484-6.707-9.9688-10.062-0.55469-0.55859-1.2891-0.84375-2.0273-0.84766-0.42969-0.003906-0.85938 0.089844-1.2539 0.27734zm-4.7539 4.4688-4.9609-4.9727 3.1758-3.1406 4.9609 4.9727-3.1797 3.1406zm5.4141-2.457c0.16016-0.16016 0.37109-0.23828 0.58203-0.23438 0.21094 0 0.41797 0.082031 0.57812 0.24219l9.9609 10.055c0.33203 0.33594 0.49609 0.77734 0.49609 1.2188-0.003906 0.4375-0.17187 0.875-0.50391 1.207l-3.5195 3.4766c-0.33984 0.33594-0.78125 0.5-1.2227 0.49609-0.44141-0.003906-0.88281-0.17188-1.2148-0.50781-3.3203-3.3516-6.625-6.7188-9.9609-10.051-0.15625-0.16016-0.23438-0.36719-0.23438-0.57812 0-0.20312 0.078126-0.40625 0.23438-0.56641 1.5938-1.5938 3.207-3.1719 4.8125-4.7539zm-42.707-21.5c-0.023438 4.3008 1.5938 8.6094 4.8594 11.91 3.2617 3.2969 7.5547 4.9609 11.855 4.9844 4.3008 0.023437 8.6094-1.5938 11.91-4.8594 3.2969-3.2617 4.9609-7.5547 4.9844-11.855 0.023437-4.3008-1.5938-8.6094-4.8594-11.91-3.2617-3.2969-7.5547-4.9609-11.855-4.9844-4.3008-0.023437-8.6094 1.5938-11.91 4.8594-3.2969 3.2617-4.9609 7.5547-4.9844 11.855zm6.4297-10.395c-2.8984 2.8672-4.3594 6.6328-4.3789 10.406s1.3984 7.5586 4.2617 10.453c2.8672 2.8984 6.6328 4.3594 10.406 4.3789 3.7734 0.019532 7.5586-1.3984 10.453-4.2617 2.8984-2.8672 4.3594-6.6328 4.3789-10.406 0.019531-3.7734-1.3984-7.5586-4.2617-10.453-2.8672-2.8984-6.6328-4.3594-10.406-4.3789-3.7734-0.019531-7.5586 1.3984-10.453 4.2617zm-23.906 40.156c0.1875 0.1875 0.30078 0.44141 0.30078 0.72656 0 0.28516-0.11328 0.53906-0.30078 0.72656s-0.44141 0.30078-0.72656 0.30078c-0.28516 0-0.53906-0.11328-0.72656-0.30078s-0.30078-0.44141-0.30078-0.72656c0-0.28516 0.11328-0.53906 0.30078-0.72656 0.18359-0.1875 0.44141-0.30078 0.72656-0.30078 0.28516 0 0.53906 0.11328 0.72656 0.30078zm-0.72266-2.3633c0.85156 0 1.625 0.34766 2.1836 0.90234 0.55859 0.55859 0.90234 1.3281 0.90234 2.1836 0 0.85156-0.34766 1.625-0.90234 2.1836-0.55859 0.55859-1.332 0.90234-2.1836 0.90234s-1.625-0.34766-2.1836-0.90234c-0.55859-0.55859-0.90234-1.3281-0.90234-2.1836 0-0.85156 0.34766-1.625 0.90234-2.1836 0.55859-0.55859 1.3281-0.90234 2.1836-0.90234zm22.5 5.1367c0.37109 0.37109 0.60156 0.88672 0.60156 1.4531 0 0.56641-0.23047 1.082-0.60156 1.4531-0.37109 0.37109-0.88672 0.60156-1.4531 0.60156s-1.082-0.23047-1.4531-0.60156c-0.37109-0.37109-0.60156-0.88672-0.60156-1.4531 0-0.56641 0.23047-1.082 0.60156-1.4531 0.37109-0.37109 0.88672-0.60156 1.4531-0.60156s1.082 0.23047 1.4531 0.60156zm-1.4531-2.6641c1.1367 0 2.1641 0.46094 2.9102 1.2031 0.74609 0.74609 1.2031 1.7734 1.2031 2.9102s-0.46094 2.1641-1.2031 2.9102c-0.74609 0.74609-1.7734 1.2031-2.9102 1.2031s-2.1641-0.46094-2.9102-1.2031c-0.74609-0.74609-1.2031-1.7734-1.2031-2.9102s0.46094-2.1641 1.2031-2.9102c0.74609-0.74609 1.7734-1.2031 2.9102-1.2031zm-8.207-4.2227c0.1875 0.1875 0.30078 0.44141 0.30078 0.72656s-0.11328 0.53906-0.30078 0.72656c-0.18359 0.1875-0.44141 0.30078-0.72656 0.30078s-0.53906-0.11328-0.72656-0.30078-0.30078-0.44141-0.30078-0.72656 0.11328-0.53906 0.30078-0.72656c0.18359-0.1875 0.44141-0.30078 0.72656-0.30078s0.53906 0.11328 0.72656 0.30078zm-0.72656-2.3633c0.85156 0 1.625 0.34766 2.1836 0.90234 0.55859 0.55859 0.90234 1.3281 0.90234 2.1836 0 0.85156-0.34766 1.625-0.90234 2.1836-0.55859 0.55859-1.332 0.90234-2.1836 0.90234-0.85156 0-1.625-0.34766-2.1836-0.90234-0.55859-0.55859-0.90234-1.3281-0.90234-2.1836 0-0.85156 0.34766-1.625 0.90234-2.1836 0.55859-0.55859 1.3281-0.90234 2.1836-0.90234zm27.227 6.0547c0.1875 0.1875 0.30078 0.44141 0.30078 0.72656 0 0.28516-0.11328 0.53906-0.30078 0.72656-0.18359 0.1875-0.44141 0.30078-0.72656 0.30078s-0.53906-0.11328-0.72656-0.30078c-0.1875-0.18359-0.30078-0.44141-0.30078-0.72656 0-0.28516 0.11328-0.53906 0.30078-0.72656s0.44141-0.30078 0.72656-0.30078 0.53906 0.11328 0.72656 0.30078zm-0.72656-2.3594c0.85156 0 1.625 0.34766 2.1836 0.90234 0.55859 0.55859 0.90234 1.3281 0.90234 2.1836 0 0.85156-0.34766 1.625-0.90234 2.1836-0.55859 0.55859-1.332 0.90234-2.1836 0.90234-0.85156 0-1.625-0.34766-2.1836-0.90234-0.55859-0.55859-0.90234-1.3281-0.90234-2.1836 0-0.85156 0.34766-1.625 0.90234-2.1836 0.55859-0.55859 1.3281-0.90234 2.1836-0.90234z" fill-rule="evenodd"/>
<text x="0.0" y="117.5" font-size="5.0" font-weight="bold" font-family="Arbeit Regular, Helvetica, Arial-Unicode, Arial, Sans-serif" fill="#000000">Created by Icon Designer</text><text x="0.0" y="122.5" font-size="5.0" font-weight="bold" font-family="Arbeit Regular, Helvetica, Arial-Unicode, Arial, Sans-serif" fill="#000000">from Noun Project</text></svg>