<svg width="100" height="100" viewBox="0 0 100 100" fill="none" xmlns="http://www.w3.org/2000/svg">
<path fill-rule="evenodd" clip-rule="evenodd" d="M14.3977 76.6308C13.1555 76.2988 12.0383 75.5019 11.3196 74.3183C11.2766 74.2597 11.2415 74.1972 11.2102 74.1308C10.5423 72.9199 10.4133 71.5527 10.7454 70.3105C11.0813 69.0566 11.886 67.9316 13.0813 67.2167C13.1321 67.1815 13.1907 67.1503 13.2453 67.1229C14.4562 66.455 15.8234 66.3261 17.0656 66.6581C18.3195 66.994 19.4445 67.7987 20.1594 68.994C20.1907 69.0409 20.218 69.0877 20.2415 69.1385C20.9173 70.3573 21.0501 71.7323 20.718 72.9823C20.3782 74.2557 19.5461 75.4042 18.3078 76.1151C17.0734 76.83 15.6672 76.9745 14.3937 76.6347L14.3977 76.6308ZM13.0422 73.2011C13.468 73.9394 14.1594 74.4355 14.9289 74.6425C15.6984 74.8495 16.5461 74.7636 17.2883 74.3339C18.0266 73.9081 18.5266 73.2167 18.7297 72.4472C18.9367 71.6777 18.8469 70.8339 18.4211 70.0917C17.9914 69.3495 17.3039 68.8495 16.5344 68.6464C15.7649 68.4394 14.9172 68.5253 14.1789 68.955V68.9589C13.4367 69.3886 12.9406 70.0761 12.7336 70.8456C12.5266 71.6151 12.6125 72.4628 13.0422 73.205V73.2011ZM9.08911 75.6269C10.1594 77.4785 11.8782 78.7207 13.7922 79.2363C15.7063 79.748 17.8195 79.5332 19.6672 78.4668V78.4629C20.4875 77.9902 21.1867 77.3926 21.7531 76.709C22.339 76.0019 22.7922 75.1973 23.0969 74.3379C23.3703 73.5683 23.7492 72.8848 24.2492 72.2871C24.7453 71.6894 25.343 71.1933 26.0539 70.7832L28.9641 69.1035C29.0383 69.0605 29.0891 68.9902 29.1086 68.912C29.1282 68.8339 29.1204 68.748 29.0813 68.6738L27.929 66.6777C27.9173 66.662 27.9095 66.6425 27.9016 66.6269C27.3548 65.7089 26.55 65.0371 25.6243 64.6777C24.6829 64.3105 23.6126 64.2558 22.5657 64.58C21.89 64.791 21.1985 64.8847 20.4993 64.8613C19.7962 64.8417 19.097 64.7089 18.4095 64.4628L18.3627 64.4472C17.3197 64.0839 16.2065 63.9394 15.101 64.041C14.019 64.1386 12.9408 64.4667 11.9369 65.0488C10.0853 66.1191 8.84307 67.8379 8.32747 69.7519C7.81575 71.666 8.03059 73.7792 9.097 75.6269H9.10091L9.08911 75.6269ZM33.1631 65.7402L30.6045 67.2168L29.7022 65.6504C29.6904 65.6309 29.6787 65.6113 29.667 65.5918C29.1709 64.748 28.5186 64.0527 27.7686 63.5176L33.167 60.3965V65.7363L33.1631 65.7402ZM36.6319 87.3852C37.1944 87.9477 37.9678 88.2953 38.8272 88.2953C39.6827 88.2953 40.46 87.9477 41.0225 87.3852C41.585 86.8227 41.9327 86.0493 41.9327 85.1899C41.9327 84.3344 41.585 83.5571 41.0225 82.9946C40.46 82.4321 39.6866 82.0844 38.8272 82.0844C37.9717 82.0844 37.1944 82.4321 36.6319 82.9946C36.0694 83.5571 35.7217 84.3305 35.7217 85.1899C35.7217 86.0454 36.0694 86.8227 36.6319 87.3852ZM38.8272 90.3579C37.4014 90.3579 36.1084 89.7798 35.1749 88.8462C34.2413 87.9126 33.6632 86.6196 33.6632 85.1939C33.6632 83.7682 34.2413 82.4751 35.1749 81.5416C36.1085 80.608 37.4015 80.0299 38.8272 80.0299C40.253 80.0299 41.546 80.608 42.4795 81.5416C43.413 82.4752 43.9912 83.7682 43.9912 85.1939C43.9912 86.6196 43.4131 87.9127 42.4795 88.8462C41.5459 89.7798 40.2529 90.3579 38.8272 90.3579ZM33.2256 90.6665C31.8233 89.2642 30.96 87.3306 30.96 85.1938C30.96 84.2485 31.128 83.3461 31.4366 82.5102C31.7569 81.643 32.2256 80.85 32.8155 80.1625C33.3506 79.5336 33.753 78.8656 34.0186 78.1391C34.2881 77.4125 34.417 76.6469 34.417 75.8266V72.4672C34.417 72.3812 34.4522 72.3031 34.5108 72.2484C34.5693 72.1898 34.6436 72.1547 34.7295 72.1547H37.0342C38.128 72.1547 39.1358 72.5219 39.9248 73.1508C40.7139 73.7836 41.292 74.6781 41.5342 75.7446C41.6905 76.436 41.9561 77.0844 42.3233 77.6821C42.6905 78.2758 43.1553 78.8149 43.7139 79.2915C44.5654 80.0141 45.2569 80.9204 45.7295 81.9438C46.1826 82.9282 46.4404 84.0297 46.4404 85.1899C46.4404 87.3266 45.5732 89.2641 44.1748 90.6626C42.7725 92.0649 40.8389 92.9282 38.7021 92.9282C36.5654 92.9282 34.6279 92.061 33.2294 90.6626L33.2256 90.6665ZM35.2256 70.0965H37.0303C38.0342 70.0965 38.9912 70.3152 39.8467 70.7098L39.8506 54.8188C39.8467 54.7797 39.8467 54.7406 39.8506 54.7016L39.8545 44.5536C39.0264 44.952 38.0928 45.7489 37.2725 46.7216C36.1045 48.1083 35.2217 49.7958 35.2217 51.1669V70.0969L35.2256 70.0965ZM49.4556 54.6665C48.2837 54.1626 47.3033 53.5142 46.4908 52.7056L41.9049 55.354L41.901 60.7017L47.0026 57.7564C47.5417 57.4439 48.0612 56.9243 48.5221 56.2837C48.8737 55.7954 49.1862 55.2485 49.4557 54.6704L49.4556 54.6665ZM45.2642 32.5925L46.0415 29.8152C44.0649 30.0886 42.1313 30.3308 40.3267 30.4753C37.9947 30.6628 35.8462 30.6863 34.0455 30.4167C32.358 30.1667 30.9791 29.5769 30.065 28.4792C29.1432 27.3737 28.7525 25.8269 29.069 23.6901C29.1236 23.323 29.026 22.9714 28.8268 22.7019C28.6275 22.4284 28.319 22.2331 27.9596 22.1784C27.5924 22.1237 27.2408 22.2175 26.9713 22.4206C26.6979 22.6198 26.5025 22.9284 26.4479 23.2878C25.9635 26.5495 26.4713 28.8034 27.7252 30.3034C28.983 31.8151 31.0494 32.6472 33.6471 33.0339C35.3502 33.2878 37.276 33.3112 39.3307 33.1902C41.2213 33.0808 43.2213 32.8581 45.2643 32.5886L45.2642 32.5925ZM71.9712 50.0225L71.1939 52.7998C73.1705 52.5263 75.1041 52.2841 76.9087 52.1396C79.2407 51.9521 81.3892 51.9287 83.1899 52.1982C84.8774 52.4482 86.2563 53.0381 87.1704 54.1357C88.0922 55.2412 88.4829 56.788 88.1665 58.9248C88.1118 59.292 88.2055 59.6436 88.4086 59.9131C88.6079 60.1865 88.9165 60.3818 89.2758 60.4365C89.643 60.4912 89.9946 60.3975 90.2641 60.1943C90.5376 59.9951 90.7329 59.6865 90.7876 59.3272C91.2719 56.0655 90.7641 53.8116 89.5103 52.3116C88.2525 50.7999 86.1861 49.9678 83.5884 49.5811C81.8853 49.3271 79.9595 49.3037 77.9048 49.4209C76.0142 49.5303 74.0142 49.753 71.9712 50.0225ZM63.8931 53.7998C58.2876 54.249 54.1314 54.1045 51.2211 53.1513C51.1938 53.1396 51.1703 53.1279 51.143 53.1201C51.1039 53.1045 51.0649 53.0967 51.0258 53.0849C49.5883 52.5849 48.4672 51.8779 47.6391 50.9326C47.5961 50.8819 47.5532 50.835 47.5102 50.7842C47.4946 50.7647 47.4828 50.749 47.4672 50.7295C45.0727 47.7529 45.1664 42.374 47.061 33.8035V33.7996L48.4438 28.8777C48.4477 28.8621 48.4516 28.8464 48.4594 28.8308C49.143 26.4011 49.7992 23.9949 50.2797 21.7566C50.768 19.4714 51.0766 17.3504 51.0453 15.5222C51.018 13.8152 50.6156 12.3699 49.6508 11.323C48.6742 10.2644 47.1938 9.67462 45.0297 9.70972C44.6625 9.71754 44.3266 9.573 44.0805 9.33472C43.8383 9.10034 43.682 8.77223 43.6781 8.40504C43.6703 8.03785 43.8149 7.70192 44.0531 7.45582C44.2875 7.21363 44.6156 7.05738 44.9828 7.05348C48.2719 6.99879 50.4398 7.79956 51.768 9.24097C53.1039 10.6902 53.6586 12.8465 53.7016 15.4715C53.729 17.1824 53.4985 19.0965 53.1118 21.1277C52.7212 23.1785 52.1743 25.3308 51.5766 27.5183C51.5688 27.5378 51.5649 27.5534 51.561 27.573L50.1743 32.5144C50.1665 32.5378 50.1626 32.5612 50.1586 32.5808C48.1195 41.4949 47.4556 46.3658 49.7719 49.0188C51.9594 51.5227 56.4828 51.6633 64.6939 50.9719L63.901 53.7961L63.8931 53.7998ZM65.2408 48.8662C67.0181 41.0537 67.608 36.8152 65.94 34.8972C64.2681 32.9792 59.983 32.9949 52.002 33.6902C51.4981 35.9207 51.088 37.8582 50.7989 39.534L56.0294 34.952C56.4552 34.5809 57.1036 34.6239 57.4786 35.0496C57.8497 35.4754 57.8067 36.1238 57.381 36.4988L50.4122 42.6043C50.4005 42.6121 50.3926 42.62 50.3809 42.6278C50.2286 44.452 50.338 45.8231 50.7715 46.8114L63.0525 36.0494C63.4783 35.6783 64.1267 35.7212 64.5017 36.147C64.8728 36.5728 64.8299 37.2212 64.4041 37.5962L52.1381 48.3462C53.0639 48.8892 54.4037 49.1704 56.2123 49.2642L56.2318 49.2447L63.2006 43.1392C63.6264 42.7681 64.2748 42.811 64.6498 43.2368C65.0209 43.6626 64.9779 44.311 64.5522 44.686L59.3256 49.268C61.017 49.2094 62.9779 49.0649 65.2358 48.8657L65.2408 48.8662ZM53.9288 26.6592C54.3936 24.8936 54.8116 23.1631 55.128 21.5069C55.5382 19.3585 55.7803 17.3155 55.753 15.4405C55.7022 12.3272 54.9913 9.70998 53.2764 7.85068C51.5537 5.98348 48.8858 4.93658 44.9483 5.00298C44.0108 5.0186 43.171 5.41314 42.5694 6.03418C41.9678 6.65527 41.6046 7.50688 41.6241 8.44038C41.6397 9.37788 42.0343 10.2177 42.6553 10.8193C43.2764 11.4208 44.128 11.7841 45.0615 11.7646C46.0107 11.749 46.749 11.8779 47.3115 12.1318L33.8035 23.9678C33.3777 24.3389 33.3347 24.9912 33.7058 25.417C34.0769 25.8428 34.7292 25.8857 35.155 25.5146L48.69 13.6556C48.8854 14.1908 48.9791 14.8314 48.9908 15.554C49.0025 16.3197 48.9479 17.1556 48.8385 18.0501L40.9166 24.9915C40.4908 25.3626 40.4478 26.0149 40.8189 26.4407C41.19 26.8665 41.8423 26.9095 42.2681 26.5384L48.2798 21.2728L48.2681 21.3314C47.8384 23.3275 47.2642 25.4759 46.6548 27.6556C44.4165 27.972 42.2173 28.2611 40.1704 28.4251C37.9751 28.6009 35.979 28.6282 34.3501 28.3861C33.147 28.2064 32.2017 27.8353 31.647 27.1713C31.1001 26.5189 30.8853 25.4994 31.1118 23.9916C31.2486 23.0697 30.9986 22.1791 30.4829 21.4799C29.9673 20.7845 29.186 20.2846 28.2641 20.144C27.3423 20.0072 26.4516 20.2572 25.7563 20.7729C25.061 21.2885 24.561 22.0698 24.4204 22.9917C23.8423 26.8823 24.5259 29.6636 26.1548 31.6206C27.7759 33.5659 30.2759 34.6167 33.354 35.0737C35.1978 35.3471 37.2563 35.3744 39.4517 35.2494C41.1587 35.1518 42.9439 34.9643 44.772 34.7299C43.1939 42.4096 43.1626 47.6519 45.2173 51.0659L41.9126 52.9721L41.9166 43.3315C41.9205 43.3003 41.9205 43.269 41.9205 43.2417C41.9205 42.6714 41.4595 42.2105 40.8893 42.2105C39.2604 42.2105 37.2487 43.5621 35.7096 45.3863C34.2604 47.1051 33.1705 49.2808 33.1705 51.1597V58.0191L25.4596 62.4722C24.3385 62.2104 23.1354 62.2417 21.9596 62.6089C21.4986 62.7534 21.026 62.8159 20.5534 62.8042C20.0846 62.7886 19.5963 62.6948 19.1003 62.519C19.0807 62.5112 19.0651 62.5073 19.0456 62.5034C17.7331 62.0425 16.3229 61.8628 14.9128 61.9917C13.5378 62.1167 12.1706 62.5308 10.9011 63.2651C8.55727 64.6167 6.98307 66.7924 6.33467 69.2143C5.68623 71.6284 5.96358 74.2963 7.31123 76.6362L7.31904 76.6479H7.31514C8.66674 78.9917 10.8424 80.5659 13.2643 81.2143C15.6784 81.8627 18.3463 81.5854 20.6862 80.2378L20.698 80.2299V80.2338C21.7253 79.6401 22.6082 78.8822 23.3308 78.015C24.0808 77.1127 24.655 76.0931 25.0339 75.0189C25.2292 74.4721 25.487 73.9994 25.8229 73.597C26.1589 73.1947 26.5729 72.851 27.0768 72.5618L29.987 70.8821C30.5534 70.554 30.9323 70.0306 31.0886 69.4446C31.1042 69.3939 31.116 69.3392 31.1238 69.2884L33.159 68.1126V70.679C33.1199 70.7141 33.0808 70.7493 33.0418 70.7884C32.6121 71.2181 32.3465 71.8118 32.3465 72.4642V75.8236C32.3465 76.4017 32.2566 76.9369 32.073 77.4291C31.8894 77.9213 31.6121 78.3861 31.241 78.8236C30.4949 79.6986 29.8972 80.7025 29.4949 81.8002C29.1043 82.8588 28.8894 83.9994 28.8894 85.1908C28.8894 87.8978 29.9871 90.347 31.7605 92.1205C33.5339 93.894 35.9871 94.9916 38.6902 94.9916C41.3972 94.9916 43.8464 93.8939 45.6199 92.1205C47.3934 90.3471 48.491 87.8939 48.491 85.1908C48.491 83.726 48.1668 82.3353 47.5887 81.0814C46.9871 79.7806 46.1121 78.6361 45.034 77.722C44.6356 77.3821 44.3113 77.011 44.0613 76.6048C43.8152 76.2024 43.6356 75.7649 43.5262 75.2962C43.2527 74.0931 42.6785 73.0345 41.8895 72.1907L41.8934 63.0696L48.0184 59.5344C48.827 59.0656 49.5575 58.343 50.1825 57.4797C50.6512 56.8312 51.0614 56.0969 51.3973 55.3313C54.3934 56.1281 58.3192 56.2649 63.3113 55.9055C62.8386 57.6907 62.4167 59.4367 62.1004 61.1086C61.6902 63.257 61.448 65.3 61.4754 67.175C61.5262 70.2883 62.2371 72.9055 63.952 74.7648C65.6629 76.6203 68.2997 77.6593 72.1864 77.6125C72.2137 77.6164 72.2372 77.6164 72.2645 77.6164V77.6125H72.2801C73.2176 77.5969 74.0574 77.2023 74.659 76.5813C75.2371 75.9836 75.5926 75.1751 75.6043 74.2805C75.6082 74.2532 75.6082 74.2219 75.6082 74.1907H75.6043V74.175C75.5887 73.2375 75.1942 72.3977 74.5731 71.7961C73.952 71.1946 73.1004 70.8313 72.1669 70.8508C70.6513 70.8743 69.6708 70.5266 69.0927 69.8977C68.5029 69.261 68.2607 68.2727 68.2412 67.0579C68.2138 65.4134 68.5029 63.4407 68.9677 61.2806C69.3974 59.2845 69.9716 57.1361 70.581 54.9564C72.7685 54.6439 74.9208 54.3626 76.9287 54.1986L70.9639 59.4213C70.5382 59.7924 70.4952 60.4447 70.8663 60.8705C71.2374 61.2963 71.8897 61.3392 72.3155 60.9681L80.21 54.054C81.1787 54.0579 82.0733 54.1126 82.8819 54.2298C83.542 54.3275 84.128 54.4837 84.6124 54.7142L71.7174 66.0152C71.2916 66.3863 71.2486 67.0386 71.6197 67.4644C71.9908 67.8902 72.6431 67.9332 73.0689 67.5621L86.0099 56.2181C86.217 56.8157 86.2677 57.5853 86.1232 58.5697C86.1154 58.6048 86.1115 58.6439 86.1076 58.679C85.9865 59.5775 86.2404 60.4485 86.7443 61.1321C87.2482 61.8118 88.0021 62.304 88.8927 62.4563C88.9357 62.4642 88.9786 62.472 89.0216 62.4759C89.92 62.5931 90.7911 62.3431 91.4747 61.8391C92.1544 61.3352 92.6466 60.5814 92.7989 59.6908C92.8067 59.6517 92.8145 59.6087 92.8184 59.5658C93.3848 55.7025 92.6974 52.9369 91.0762 50.9916C89.4551 49.0463 86.9551 47.9955 83.877 47.5385C82.0332 47.265 79.9747 47.2377 77.7793 47.3627C76.0801 47.4603 74.2988 47.6478 72.4824 47.8783C74.2988 39.2416 74.1308 33.6903 71.2246 30.3473C68.3027 26.984 62.7871 26.0504 53.9196 26.6559L53.9288 26.6592ZM70.2138 48.6982C70.1982 48.7372 70.1865 48.7763 70.1747 48.8154L68.7958 53.7334C68.7919 53.749 68.7841 53.7685 68.7802 53.7841C68.0966 56.2138 67.4404 58.62 66.9599 60.8583C66.4716 63.1435 66.163 65.2646 66.1943 67.0928C66.2216 68.7998 66.624 70.2451 67.5888 71.292C68.5654 72.3506 70.0458 72.9404 72.2099 72.9053C72.5771 72.8974 72.913 73.042 73.1591 73.2803C73.3974 73.5107 73.5536 73.8349 73.5615 74.1904H73.5575C73.5575 74.2178 73.5575 74.249 73.5615 74.2764C73.5497 74.6162 73.4091 74.9248 73.1865 75.1553C72.956 75.3935 72.6318 75.5498 72.2763 75.5576V75.5537C72.2411 75.5537 72.206 75.5576 72.1747 75.5576C68.9325 75.5967 66.7919 74.7959 65.4794 73.3701C64.1435 71.9209 63.5888 69.7646 63.5458 67.1396C63.5185 65.4287 63.749 63.5146 64.1357 61.4834C64.5263 59.4326 65.0732 57.2803 65.6709 55.0928C65.6787 55.0733 65.6826 55.0576 65.6904 55.0342L67.0771 50.0928C67.0849 50.0694 67.0888 50.0459 67.0927 50.0264C69.1513 41.0772 69.8154 36.1904 67.5029 33.5424C65.3154 31.0307 60.7841 30.8979 52.5689 31.5815L53.3619 28.7573C61.9752 28.101 67.1859 28.812 69.6859 31.687C72.2328 34.6167 72.1664 40.0073 70.2171 48.691L70.2138 48.6982ZM36.6708 60.8232C36.6708 60.2529 37.1317 59.792 37.702 59.792C38.2723 59.792 38.7332 60.2529 38.7332 60.8232V60.8427C38.7332 61.413 38.2723 61.8739 37.702 61.8739C37.1317 61.8739 36.6708 61.413 36.6708 60.8427V60.8232Z" fill="black"/>
</svg>
