<svg xmlns="http://www.w3.org/2000/svg" version="1.1" viewBox="-5.0 -10.0 110.0 135.0">
 <path d="m14.887 76.637c-1.2422-0.33203-2.3594-1.1289-3.0781-2.3125-0.042969-0.058594-0.078125-0.12109-0.10938-0.1875-0.66797-1.2109-0.79688-2.5781-0.46484-3.8203 0.33594-1.2539 1.1406-2.3789 2.3359-3.0938 0.050782-0.035156 0.10938-0.066406 0.16406-0.09375 1.2109-0.66797 2.5781-0.79688 3.8203-0.46484 1.2539 0.33594 2.3789 1.1406 3.0938 2.3359 0.03125 0.046875 0.058593 0.09375 0.082031 0.14453 0.67578 1.2188 0.80859 2.5938 0.47656 3.8438-0.33984 1.2734-1.1719 2.4219-2.4102 3.1328-1.2344 0.71484-2.6406 0.85938-3.9141 0.51953zm-1.3555-3.4297c0.42578 0.73828 1.1172 1.2344 1.8867 1.4414 0.76953 0.20703 1.6172 0.12109 2.3594-0.30859 0.73828-0.42578 1.2383-1.1172 1.4414-1.8867 0.20703-0.76953 0.11719-1.6133-0.30859-2.3555-0.42969-0.74219-1.1172-1.2422-1.8867-1.4453-0.76953-0.20703-1.6172-0.12109-2.3555 0.30859v0.003906c-0.74219 0.42969-1.2383 1.1172-1.4453 1.8867-0.20703 0.76953-0.12109 1.6172 0.30859 2.3594zm-3.9531 2.4258c1.0703 1.8516 2.7891 3.0938 4.7031 3.6094 1.9141 0.51172 4.0273 0.29687 5.875-0.76953v-0.003906c0.82031-0.47266 1.5195-1.0703 2.0859-1.7539 0.58594-0.70703 1.0391-1.5117 1.3438-2.3711 0.27344-0.76953 0.65234-1.4531 1.1523-2.0508 0.49609-0.59766 1.0938-1.0938 1.8047-1.5039l2.9102-1.6797c0.074219-0.042969 0.125-0.11328 0.14453-0.19141 0.019532-0.078125 0.011719-0.16406-0.027344-0.23828l-1.1523-1.9961c-0.011719-0.015625-0.019531-0.035156-0.027344-0.050782-0.54688-0.91797-1.3516-1.5898-2.2773-1.9492-0.94141-0.36719-2.0117-0.42188-3.0586-0.097656-0.67578 0.21094-1.3672 0.30469-2.0664 0.28125-0.70312-0.019532-1.4023-0.15234-2.0898-0.39844l-0.046876-0.015625c-1.043-0.36328-2.1562-0.50781-3.2617-0.40625-1.082 0.097656-2.1602 0.42578-3.1641 1.0078-1.8516 1.0703-3.0938 2.7891-3.6094 4.7031-0.51172 1.9141-0.29688 4.0273 0.76953 5.875h0.003906zm24.074-9.8867-2.5586 1.4766-0.90234-1.5664c-0.011718-0.019531-0.023437-0.039062-0.035156-0.058594-0.49609-0.84375-1.1484-1.5391-1.8984-2.0742l5.3984-3.1211v5.3398zm3.4688 21.645c0.5625 0.5625 1.3359 0.91016 2.1953 0.91016 0.85547 0 1.6328-0.34766 2.1953-0.91016s0.91016-1.3359 0.91016-2.1953c0-0.85547-0.34766-1.6328-0.91016-2.1953s-1.3359-0.91016-2.1953-0.91016c-0.85547 0-1.6328 0.34766-2.1953 0.91016s-0.91016 1.3359-0.91016 2.1953c0 0.85547 0.34766 1.6328 0.91016 2.1953zm2.1953 2.9727c-1.4258 0-2.7188-0.57812-3.6523-1.5117-0.93359-0.93359-1.5117-2.2266-1.5117-3.6523s0.57812-2.7188 1.5117-3.6523c0.93359-0.93359 2.2266-1.5117 3.6523-1.5117 1.4258 0 2.7188 0.57812 3.6523 1.5117s1.5117 2.2266 1.5117 3.6523-0.57812 2.7188-1.5117 3.6523c-0.93359 0.93359-2.2266 1.5117-3.6523 1.5117zm-5.6016 0.30859c-1.4023-1.4023-2.2656-3.3359-2.2656-5.4727 0-0.94531 0.16797-1.8477 0.47656-2.6836 0.32031-0.86719 0.78906-1.6602 1.3789-2.3477 0.53516-0.62891 0.9375-1.2969 1.2031-2.0234 0.26953-0.72656 0.39844-1.4922 0.39844-2.3125v-3.3594c0-0.085937 0.035156-0.16406 0.09375-0.21875 0.058594-0.058594 0.13281-0.09375 0.21875-0.09375h2.3047c1.0938 0 2.1016 0.36719 2.8906 0.99609 0.78906 0.63281 1.3672 1.5273 1.6094 2.5938 0.15625 0.69141 0.42187 1.3398 0.78906 1.9375 0.36719 0.59375 0.83203 1.1328 1.3906 1.6094 0.85156 0.72266 1.543 1.6289 2.0156 2.6523 0.45312 0.98438 0.71094 2.0859 0.71094 3.2461 0 2.1367-0.86719 4.0742-2.2656 5.4727-1.4023 1.4023-3.3359 2.2656-5.4727 2.2656-2.1367 0-4.0742-0.86719-5.4727-2.2656zm2-20.57h1.8047c1.0039 0 1.9609 0.21875 2.8164 0.61328l0.003906-15.891c-0.003906-0.039063-0.003906-0.078125 0-0.11719l0.003906-10.148c-0.82812 0.39844-1.7617 1.1953-2.582 2.168-1.168 1.3867-2.0508 3.0742-2.0508 4.4453v18.93zm14.23-15.43c-1.1719-0.50391-2.1523-1.1523-2.9648-1.9609l-4.5859 2.6484-0.003906 5.3477 5.1016-2.9453c0.53906-0.3125 1.0586-0.83203 1.5195-1.4727 0.35156-0.48828 0.66406-1.0352 0.93359-1.6133zm-4.1914-22.074 0.77734-2.7773c-1.9766 0.27344-3.9102 0.51563-5.7148 0.66016-2.332 0.1875-4.4805 0.21094-6.2812-0.058594-1.6875-0.25-3.0664-0.83984-3.9805-1.9375-0.92188-1.1055-1.3125-2.6523-0.99609-4.7891 0.054687-0.36719-0.042969-0.71875-0.24219-0.98828-0.19922-0.27344-0.50781-0.46875-0.86719-0.52344-0.36719-0.054688-0.71875 0.039062-0.98828 0.24219-0.27344 0.19922-0.46875 0.50781-0.52344 0.86719-0.48438 3.2617 0.023438 5.5156 1.2773 7.0156 1.2578 1.5117 3.3242 2.3438 5.9219 2.7305 1.7031 0.25391 3.6289 0.27734 5.6836 0.15625 1.8906-0.10937 3.8906-0.33203 5.9336-0.60156zm26.707 17.43-0.77734 2.7773c1.9766-0.27344 3.9102-0.51563 5.7148-0.66016 2.332-0.1875 4.4805-0.21094 6.2812 0.058594 1.6875 0.25 3.0664 0.83984 3.9805 1.9375 0.92188 1.1055 1.3125 2.6523 0.99609 4.7891-0.054688 0.36719 0.039062 0.71875 0.24219 0.98828 0.19922 0.27344 0.50781 0.46875 0.86719 0.52344 0.36719 0.054688 0.71875-0.039062 0.98828-0.24219 0.27344-0.19922 0.46875-0.50781 0.52344-0.86719 0.48438-3.2617-0.023438-5.5156-1.2773-7.0156-1.2578-1.5117-3.3242-2.3438-5.9219-2.7305-1.7031-0.25391-3.6289-0.27734-5.6836-0.16016-1.8906 0.10938-3.8906 0.33203-5.9336 0.60156zm-8.0781 3.7773c-5.6055 0.44922-9.7617 0.30469-12.672-0.64844-0.027344-0.011719-0.050782-0.023438-0.078126-0.03125-0.039062-0.015625-0.078124-0.023438-0.11719-0.035156-1.4375-0.5-2.5586-1.207-3.3867-2.1523-0.042968-0.050781-0.085937-0.097656-0.12891-0.14844-0.015625-0.019531-0.027344-0.035156-0.042969-0.054687-2.3945-2.9766-2.3008-8.3555-0.40625-16.926v-0.003906l1.3828-4.9219c0.003906-0.015624 0.007812-0.03125 0.015625-0.046874 0.68359-2.4297 1.3398-4.8359 1.8203-7.0742 0.48828-2.2852 0.79688-4.4062 0.76562-6.2344-0.027344-1.707-0.42969-3.1523-1.3945-4.1992-0.97656-1.0586-2.457-1.6484-4.6211-1.6133-0.36719 0.007812-0.70312-0.13672-0.94922-0.375-0.24219-0.23438-0.39844-0.5625-0.40234-0.92969-0.007813-0.36719 0.13672-0.70312 0.375-0.94922 0.23438-0.24219 0.5625-0.39844 0.92969-0.40234 3.2891-0.054688 5.457 0.74609 6.7852 2.1875 1.3359 1.4492 1.8906 3.6055 1.9336 6.2305 0.027344 1.7109-0.20312 3.625-0.58984 5.6562-0.39062 2.0508-0.9375 4.2031-1.5352 6.3906-0.007812 0.019531-0.011718 0.035156-0.015625 0.054687l-1.3867 4.9414c-0.007812 0.023438-0.011718 0.046875-0.015624 0.066407-2.0391 8.9141-2.7031 13.785-0.38672 16.438 2.1875 2.5039 6.7109 2.6445 14.922 1.9531l-0.79297 2.8242zm1.3477-4.9336c1.7773-7.8125 2.3672-12.051 0.69922-13.969-1.6719-1.918-5.957-1.9023-13.938-1.207-0.50391 2.2305-0.91406 4.168-1.2031 5.8438l5.2305-4.582c0.42578-0.37109 1.0742-0.32812 1.4492 0.097657 0.37109 0.42578 0.32812 1.0742-0.097656 1.4492l-6.9688 6.1055c-0.011719 0.007813-0.019532 0.015625-0.03125 0.023437-0.15234 1.8242-0.042969 3.1953 0.39062 4.1836l12.281-10.762c0.42578-0.37109 1.0742-0.32813 1.4492 0.097656 0.37109 0.42578 0.32812 1.0742-0.097657 1.4492l-12.266 10.75c0.92578 0.54297 2.2656 0.82422 4.0742 0.91797l0.019531-0.019531 6.9688-6.1055c0.42578-0.37109 1.0742-0.32812 1.4492 0.097657 0.37109 0.42578 0.32812 1.0742-0.097656 1.4492l-5.2266 4.582c1.6914-0.058594 3.6523-0.20313 5.9102-0.40234zm-11.312-22.207c0.46484-1.7656 0.88281-3.4961 1.1992-5.1523 0.41016-2.1484 0.65234-4.1914 0.625-6.0664-0.050782-3.1133-0.76172-5.7305-2.4766-7.5898-1.7227-1.8672-4.3906-2.9141-8.3281-2.8477-0.9375 0.015626-1.7773 0.41016-2.3789 1.0312-0.60156 0.62109-0.96484 1.4727-0.94531 2.4062 0.015625 0.9375 0.41016 1.7773 1.0312 2.3789 0.62109 0.60156 1.4727 0.96484 2.4062 0.94531 0.94922-0.015625 1.6875 0.11328 2.25 0.36719l-13.508 11.836c-0.42578 0.37109-0.46875 1.0234-0.097657 1.4492 0.37109 0.42578 1.0234 0.46875 1.4492 0.097656l13.535-11.859c0.19531 0.53516 0.28906 1.1758 0.30078 1.8984 0.011719 0.76562-0.042969 1.6016-0.15234 2.4961l-7.9219 6.9414c-0.42578 0.37109-0.46875 1.0234-0.097656 1.4492 0.37109 0.42578 1.0234 0.46875 1.4492 0.097657l6.0117-5.2656-0.011719 0.058594c-0.42969 1.9961-1.0039 4.1445-1.6133 6.3242-2.2383 0.31641-4.4375 0.60547-6.4844 0.76953-2.1953 0.17578-4.1914 0.20312-5.8203-0.039063-1.2031-0.17969-2.1484-0.55078-2.7031-1.2148-0.54688-0.65234-0.76172-1.6719-0.53516-3.1797 0.13672-0.92188-0.11328-1.8125-0.62891-2.5117-0.51562-0.69531-1.2969-1.1953-2.2188-1.3359-0.92188-0.13672-1.8125 0.11328-2.5078 0.62891-0.69531 0.51562-1.1953 1.2969-1.3359 2.2188-0.57812 3.8906 0.10547 6.6719 1.7344 8.6289 1.6211 1.9453 4.1211 2.9961 7.1992 3.4531 1.8438 0.27344 3.9023 0.30078 6.0977 0.17578 1.707-0.097656 3.4922-0.28516 5.3203-0.51953-1.5781 7.6797-1.6094 12.922 0.44531 16.336l-3.3047 1.9062 0.003906-9.6406c0.003906-0.03125 0.003906-0.0625 0.003906-0.089844 0-0.57031-0.46094-1.0312-1.0312-1.0312-1.6289 0-3.6406 1.3516-5.1797 3.1758-1.4492 1.7188-2.5391 3.8945-2.5391 5.7734v6.8594l-7.7109 4.4531c-1.1211-0.26172-2.3242-0.23047-3.5 0.13672-0.46094 0.14453-0.93359 0.20703-1.4062 0.19531-0.46875-0.015625-0.95703-0.10938-1.4531-0.28516-0.019532-0.007813-0.035156-0.011719-0.054688-0.015626-1.3125-0.46094-2.7227-0.64062-4.1328-0.51172-1.375 0.125-2.7422 0.53906-4.0117 1.2734-2.3438 1.3516-3.918 3.5273-4.5664 5.9492-0.64844 2.4141-0.37109 5.082 0.97656 7.4219l0.007813 0.011719h-0.003906c1.3516 2.3438 3.5273 3.918 5.9492 4.5664 2.4141 0.64844 5.082 0.37109 7.4219-0.97656l0.011719-0.007813v0.003906c1.0273-0.59375 1.9102-1.3516 2.6328-2.2188 0.75-0.90234 1.3242-1.9219 1.7031-2.9961 0.19531-0.54688 0.45312-1.0195 0.78906-1.4219 0.33594-0.40234 0.75-0.74609 1.2539-1.0352l2.9102-1.6797c0.56641-0.32812 0.94531-0.85156 1.1016-1.4375 0.015625-0.050781 0.027344-0.10547 0.035156-0.15625l2.0352-1.1758v2.5664c-0.039063 0.035156-0.078126 0.070312-0.11719 0.10938-0.42969 0.42969-0.69531 1.0234-0.69531 1.6758v3.3594c0 0.57812-0.089844 1.1133-0.27344 1.6055-0.18359 0.49219-0.46094 0.95703-0.83203 1.3945-0.74609 0.875-1.3438 1.8789-1.7461 2.9766-0.39062 1.0586-0.60547 2.1992-0.60547 3.3906 0 2.707 1.0977 5.1562 2.8711 6.9297s4.2266 2.8711 6.9297 2.8711c2.707 0 5.1562-1.0977 6.9297-2.8711s2.8711-4.2266 2.8711-6.9297c0-1.4648-0.32422-2.8555-0.90234-4.1094-0.60156-1.3008-1.4766-2.4453-2.5547-3.3594-0.39844-0.33984-0.72266-0.71094-0.97266-1.1172-0.24609-0.40234-0.42578-0.83984-0.53516-1.3086-0.27344-1.2031-0.84766-2.2617-1.6367-3.1055l0.003906-9.1211 6.125-3.5352c0.80859-0.46875 1.5391-1.1914 2.1641-2.0547 0.46875-0.64844 0.87891-1.3828 1.2148-2.1484 2.9961 0.79687 6.9219 0.93359 11.914 0.57422-0.47266 1.7852-0.89453 3.5312-1.2109 5.2031-0.41016 2.1484-0.65234 4.1914-0.625 6.0664 0.050781 3.1133 0.76172 5.7305 2.4766 7.5898 1.7109 1.8555 4.3477 2.8945 8.2344 2.8477 0.027344 0.003906 0.050781 0.003906 0.078125 0.003906v-0.003906h0.015625c0.9375-0.015626 1.7773-0.41016 2.3789-1.0312 0.57812-0.59766 0.93359-1.4062 0.94531-2.3008 0.003906-0.027344 0.003906-0.058594 0.003906-0.089844h-0.003906v-0.015624c-0.015625-0.9375-0.41016-1.7773-1.0312-2.3789-0.62109-0.60156-1.4727-0.96484-2.4062-0.94531-1.5156 0.023437-2.4961-0.32422-3.0742-0.95312-0.58984-0.63672-0.83203-1.625-0.85156-2.8398-0.027344-1.6445 0.26172-3.6172 0.72656-5.7773 0.42969-1.9961 1.0039-4.1445 1.6133-6.3242 2.1875-0.3125 4.3398-0.59375 6.3477-0.75781l-5.9648 5.2227c-0.42578 0.37109-0.46875 1.0234-0.097656 1.4492 0.37109 0.42578 1.0234 0.46875 1.4492 0.097656l7.8945-6.9141c0.96875 0.003906 1.8633 0.058594 2.6719 0.17578 0.66016 0.097656 1.2461 0.25391 1.7305 0.48438l-12.895 11.301c-0.42578 0.37109-0.46875 1.0234-0.097656 1.4492s1.0234 0.46875 1.4492 0.097656l12.941-11.344c0.20703 0.59766 0.25781 1.3672 0.11328 2.3516-0.007812 0.035156-0.011719 0.074219-0.015625 0.10938-0.12109 0.89844 0.13281 1.7695 0.63672 2.4531 0.50391 0.67969 1.2578 1.1719 2.1484 1.3242 0.042969 0.007812 0.085938 0.015624 0.12891 0.019531 0.89844 0.11719 1.7695-0.13281 2.4531-0.63672 0.67969-0.50391 1.1719-1.2578 1.3242-2.1484 0.007813-0.039062 0.015626-0.082031 0.019532-0.125 0.56641-3.8633-0.12109-6.6289-1.7422-8.5742-1.6211-1.9453-4.1211-2.9961-7.1992-3.4531-1.8438-0.27344-3.9023-0.30078-6.0977-0.17578-1.6992 0.097656-3.4805 0.28516-5.2969 0.51562 1.8164-8.6367 1.6484-14.188-1.2578-17.531-2.9219-3.3633-8.4375-4.2969-17.305-3.6914zm16.285 22.039c-0.015625 0.039063-0.027344 0.078125-0.039063 0.11719l-1.3789 4.918c-0.003906 0.015625-0.011718 0.035157-0.015625 0.050781-0.68359 2.4297-1.3398 4.8359-1.8203 7.0742-0.48828 2.2852-0.79688 4.4062-0.76562 6.2344 0.027344 1.707 0.42969 3.1523 1.3945 4.1992 0.97656 1.0586 2.457 1.6484 4.6211 1.6133 0.36719-0.007812 0.70312 0.13672 0.94922 0.375 0.23828 0.23047 0.39453 0.55469 0.40234 0.91016h-0.003906c0 0.027344 0 0.058594 0.003906 0.085938-0.011719 0.33984-0.15234 0.64844-0.375 0.87891-0.23047 0.23828-0.55469 0.39453-0.91016 0.40234v-0.003906c-0.035156 0-0.070313 0.003906-0.10156 0.003906-3.2422 0.039062-5.3828-0.76172-6.6953-2.1875-1.3359-1.4492-1.8906-3.6055-1.9336-6.2305-0.027344-1.7109 0.20312-3.625 0.58984-5.6562 0.39062-2.0508 0.9375-4.2031 1.5352-6.3906 0.007813-0.019531 0.011719-0.035156 0.019532-0.058594l1.3867-4.9414c0.007813-0.023437 0.011719-0.046875 0.015625-0.066406 2.0586-8.9492 2.7227-13.836 0.41016-16.484-2.1875-2.5117-6.7188-2.6445-14.934-1.9609l0.79297-2.8242c8.6133-0.65625 13.824 0.054687 16.324 2.9297 2.5469 2.9297 2.4805 8.3203 0.53125 17.004zm-33.543 12.125c0-0.57031 0.46094-1.0312 1.0312-1.0312 0.57031 0 1.0312 0.46094 1.0312 1.0312v0.019531c0 0.57031-0.46094 1.0312-1.0312 1.0312-0.57031 0-1.0312-0.46094-1.0312-1.0312z" fill-rule="evenodd"/>
<text x="0.0" y="117.5" font-size="5.0" font-weight="bold" font-family="Arbeit Regular, Helvetica, Arial-Unicode, Arial, Sans-serif" fill="#000000">Created by Icon Designer</text><text x="0.0" y="122.5" font-size="5.0" font-weight="bold" font-family="Arbeit Regular, Helvetica, Arial-Unicode, Arial, Sans-serif" fill="#000000">from Noun Project</text></svg>