<svg width="100" height="100" viewBox="0 0 100 100" fill="none" xmlns="http://www.w3.org/2000/svg">
<path d="M54.9237 48.1C53.3499 45.9212 52.5154 43.2956 52.5427 40.608V18.29C53.8039 18.2105 54.9875 17.6538 55.853 16.7331C56.7185 15.8124 57.2011 14.5967 57.2027 13.333V12.963C57.2003 11.6468 56.6761 10.3852 55.745 9.45485C54.8139 8.5245 53.5519 8.00132 52.2357 8H28.8417C27.5248 8.00132 26.2622 8.52506 25.3309 9.45626C24.3997 10.3875 23.876 11.6501 23.8747 12.967V13.337C23.8762 14.6007 24.3588 15.8164 25.2244 16.7371C26.0899 17.6578 27.2735 18.2145 28.5347 18.294V40.605C28.5626 43.2936 27.7281 45.9204 26.1537 48.1L6.76769 76.461C5.61895 78.0368 5 79.9365 5 81.8865C5 83.8365 5.61895 85.7362 6.76769 87.312C7.99073 89.0128 9.61477 90.3854 11.4957 91.3079C13.3765 92.2304 15.4561 92.6742 17.5497 92.6H63.5277C65.6206 92.6736 67.6994 92.2295 69.5796 91.3071C71.4597 90.3846 73.0831 89.0123 74.3057 87.312C75.4544 85.7362 76.0734 83.8365 76.0734 81.8865C76.0734 79.9365 75.4544 78.0368 74.3057 76.461L54.9237 48.1ZM25.9357 13.333V12.963C25.9365 12.1925 26.2429 11.4538 26.7877 10.909C27.3325 10.3642 28.0712 10.0578 28.8417 10.057H52.2357C53.0062 10.0578 53.7448 10.3642 54.2897 10.909C54.8345 11.4538 55.1409 12.1925 55.1417 12.963V13.333C55.1406 14.1034 54.8341 14.8419 54.2894 15.3867C53.7446 15.9314 53.0061 16.2379 52.2357 16.239H28.8417C28.0713 16.2379 27.3328 15.9314 26.788 15.3867C26.2433 14.8419 25.9367 14.1034 25.9357 13.333ZM27.8557 49.26C29.658 46.7357 30.617 43.7066 30.5957 40.605V18.3H50.4817V40.605C50.4604 43.7066 51.4194 46.7357 53.2217 49.26L64.3217 65.505C59.5327 64.025 56.3117 64.439 50.9027 66.821C48.0977 68.0617 45.0679 68.7132 42.0009 68.735C38.9338 68.7569 35.895 68.1486 33.0727 66.948C27.8653 64.619 21.9977 64.2251 16.5257 65.837L27.8557 49.26ZM72.6057 86.149C71.57 87.5717 70.1995 88.7169 68.6155 89.4834C67.0315 90.2498 65.2829 90.6138 63.5247 90.543H17.5497C15.7914 90.6138 14.0428 90.2498 12.4588 89.4834C10.8748 88.7169 9.50432 87.5717 8.46869 86.149C7.55401 84.9161 7.06019 83.4217 7.06019 81.8865C7.06019 80.3514 7.55401 78.8569 8.46869 77.624L14.6057 68.651C17.4086 67.4824 20.4202 66.8966 23.4568 66.9295C26.4935 66.9623 29.4917 67.613 32.2687 68.842L32.3047 68.858C35.3863 70.1135 38.6783 70.7725 42.0057 70.8C45.3601 70.7913 48.6753 70.0782 51.7367 68.707C57.6197 66.116 60.3577 66.054 66.2987 68.394L72.6077 77.624C73.5221 78.8571 74.0155 80.3517 74.0152 81.8868C74.0148 83.422 73.5206 84.9163 72.6057 86.149ZM41.9477 55.118L42.1777 54.798C42.3429 54.5926 42.5805 54.4583 42.8417 54.4226C43.1029 54.387 43.3678 54.4528 43.582 54.6064C43.7962 54.76 43.9434 54.9899 43.9934 55.2487C44.0433 55.5075 43.9923 55.7757 43.8507 55.998L43.6207 56.319C43.4592 56.5365 43.2187 56.6817 42.951 56.7232C42.6834 56.7647 42.4101 56.6993 42.1903 56.541C41.9706 56.3827 41.8219 56.1443 41.7765 55.8772C41.7311 55.6102 41.7926 55.336 41.9477 55.114V55.118ZM30.6277 57.63C30.6351 57.3622 30.7464 57.1078 30.9381 56.9206C31.1298 56.7335 31.3869 56.6283 31.6548 56.6274C31.9227 56.6265 32.1804 56.7299 32.3734 56.9158C32.5664 57.1016 32.6795 57.3552 32.6887 57.623V57.63C32.693 57.768 32.6695 57.9055 32.6197 58.0343C32.5698 58.1631 32.4946 58.2805 32.3985 58.3797C32.3024 58.4788 32.1873 58.5577 32.0601 58.6115C31.933 58.6654 31.7963 58.6931 31.6582 58.6931C31.5201 58.6931 31.3834 58.6654 31.2562 58.6115C31.1291 58.5577 31.014 58.4788 30.9179 58.3797C30.8218 58.2805 30.7466 58.1631 30.6967 58.0343C30.6469 57.9055 30.6234 57.768 30.6277 57.63ZM36.5497 47.389C36.5569 47.1212 36.6681 46.8667 36.8598 46.6794C37.0514 46.4922 37.3084 46.3869 37.5763 46.3859C37.8442 46.3848 38.102 46.4881 38.2951 46.6739C38.4882 46.8596 38.6014 47.1132 38.6107 47.381V47.389C38.615 47.527 38.5915 47.6645 38.5417 47.7933C38.4918 47.9221 38.4166 48.0395 38.3205 48.1387C38.2244 48.2378 38.1093 48.3167 37.9821 48.3705C37.855 48.4244 37.7183 48.4521 37.5802 48.4521C37.4421 48.4521 37.3054 48.4244 37.1782 48.3705C37.0511 48.3167 36.936 48.2378 36.8399 48.1387C36.7438 48.0395 36.6686 47.9221 36.6187 47.7933C36.5689 47.6645 36.5454 47.527 36.5497 47.389ZM34.7197 38.562C34.7149 38.424 34.7378 38.2865 34.7872 38.1575C34.8366 38.0286 34.9114 37.9109 35.0071 37.8113C35.1028 37.7118 35.2175 37.6326 35.3445 37.5783C35.4714 37.524 35.608 37.4957 35.7461 37.4952C35.8841 37.4946 36.0209 37.5218 36.1483 37.5751C36.2756 37.6285 36.391 37.7068 36.4875 37.8056C36.584 37.9044 36.6596 38.0215 36.71 38.15C36.7604 38.2786 36.7844 38.416 36.7807 38.554V38.562C36.7723 38.8297 36.6601 39.0837 36.4678 39.2702C36.2754 39.4566 36.0181 39.5609 35.7502 39.5609C35.4823 39.5609 35.2249 39.4566 35.0326 39.2702C34.8403 39.0837 34.728 38.8297 34.7197 38.562ZM39.6367 32.262C39.6439 31.9942 39.7551 31.7397 39.9468 31.5524C40.1384 31.3652 40.3954 31.2599 40.6633 31.2589C40.9312 31.2578 41.189 31.3611 41.3821 31.5469C41.5752 31.7326 41.6884 31.9862 41.6977 32.254V32.262C41.702 32.4 41.6785 32.5375 41.6287 32.6663C41.5788 32.7951 41.5036 32.9125 41.4075 33.0117C41.3114 33.1108 41.1963 33.1897 41.0691 33.2435C40.942 33.2974 40.8053 33.3251 40.6672 33.3251C40.5291 33.3251 40.3924 33.2974 40.2652 33.2435C40.1381 33.1897 40.023 33.1108 39.9269 33.0117C39.8308 32.9125 39.7556 32.7951 39.7057 32.6663C39.6559 32.5375 39.6324 32.4 39.6367 32.262ZM94.6057 18.55C94.0019 16.2452 92.7275 14.1714 90.944 12.5916C89.1605 11.0117 86.9481 9.99686 84.5873 9.67556C82.2264 9.35427 79.8233 9.74102 77.6825 10.7868C75.5417 11.8326 73.7595 13.4903 72.5617 15.55L60.8437 35.65C59.779 37.4766 59.214 39.5515 59.2057 41.6657C59.1974 43.78 59.746 45.8592 60.7963 47.6942C61.8467 49.5291 63.3617 51.0551 65.1889 52.1187C67.0162 53.1823 69.0914 53.746 71.2057 53.753C72.2545 53.7522 73.2987 53.6161 74.3127 53.348C75.844 52.9513 77.2815 52.2548 78.5419 51.2989C79.8023 50.343 80.8607 49.1466 81.6557 47.779L87.5147 37.732L93.3737 27.685C94.1728 26.3194 94.6931 24.8089 94.9046 23.2409C95.1161 21.6729 95.0145 20.0785 94.6057 18.55ZM79.8777 46.741C78.5384 49.023 76.3506 50.6825 73.792 51.357C71.2334 52.0315 68.5119 51.6662 66.2217 50.341L65.7017 51.232L66.2207 50.341C63.9384 49.0017 62.2788 46.8137 61.6042 44.2549C60.9297 41.6961 61.2952 38.9743 62.6207 36.684L67.9607 27.527L85.2137 37.587L79.8777 46.741ZM91.5957 26.641L86.2557 35.8L69.0057 25.742L74.3457 16.585C74.994 15.4287 75.866 14.4131 76.9109 13.5973C77.9559 12.7816 79.1527 12.1821 80.4318 11.8337C81.7108 11.4853 83.0464 11.3951 84.3607 11.5683C85.675 11.7415 86.9416 12.1747 88.0867 12.8425C89.2318 13.5103 90.2325 14.3995 91.0304 15.4581C91.8284 16.5167 92.4075 17.7235 92.7341 19.0083C93.0607 20.293 93.1283 21.63 92.9328 22.9411C92.7374 24.2523 92.2828 25.5114 91.5957 26.645V26.641ZM78.5257 43.479C77.4753 45.3298 75.8083 46.7529 73.8157 47.5C73.0148 47.7941 72.1689 47.9471 71.3157 47.952C70.1918 47.9572 69.0869 47.6617 68.1157 47.096C67.8796 46.9584 67.7079 46.7326 67.6384 46.4683C67.5688 46.2041 67.607 45.923 67.7447 45.687C67.8823 45.451 68.1081 45.2793 68.3723 45.2097C68.6366 45.1401 68.9176 45.1784 69.1537 45.316C69.7553 45.648 70.4232 45.8423 71.1091 45.8846C71.795 45.927 72.4817 45.8165 73.1197 45.561C74.6562 44.9769 75.9393 43.8725 76.7457 42.44C76.8116 42.3187 76.9012 42.2119 77.0092 42.126C77.1172 42.04 77.2413 41.9765 77.3743 41.9394C77.5072 41.9023 77.6462 41.8923 77.7831 41.9099C77.92 41.9275 78.052 41.9725 78.1712 42.042C78.2904 42.1116 78.3944 42.2044 78.4771 42.315C78.5598 42.4255 78.6194 42.5515 78.6525 42.6855C78.6855 42.8195 78.6913 42.9588 78.6696 43.0951C78.6478 43.2314 78.5989 43.362 78.5257 43.479ZM80.6507 39.835L80.3347 40.376C80.2665 40.4929 80.176 40.5952 80.0683 40.6771C79.9606 40.759 79.8379 40.8189 79.707 40.8533C79.5762 40.8878 79.4398 40.8961 79.3058 40.8779C79.1717 40.8596 79.0426 40.8152 78.9257 40.747C78.8088 40.6788 78.7065 40.5883 78.6246 40.4806C78.5427 40.3729 78.4828 40.2502 78.4484 40.1193C78.4139 39.9885 78.4056 39.8522 78.4238 39.7181C78.4421 39.584 78.4865 39.4549 78.5547 39.338L78.8697 38.797C79.0107 38.5678 79.2359 38.4028 79.4969 38.3373C79.758 38.2718 80.0344 38.311 80.2669 38.4466C80.4994 38.5821 80.6698 38.8032 80.7415 39.0626C80.8132 39.3221 80.7806 39.5993 80.6507 39.835Z" fill="black"/>
</svg>
