<svg xmlns="http://www.w3.org/2000/svg" data-name="Layer 1" viewBox="-5.0 -10.0 110.0 135.0" x="0px" y="0px"><title>a</title><path d="M54.918,47.8a12.577,12.577,0,0,1-2.381-7.492V17.99a4.973,4.973,0,0,0,4.66-4.957v-.37A4.972,4.972,0,0,0,52.23,7.7H28.836a4.972,4.972,0,0,0-4.967,4.967v.37a4.973,4.973,0,0,0,4.66,4.957V40.305A12.577,12.577,0,0,1,26.148,47.8L6.762,76.161a9.21,9.21,0,0,0,0,10.851A12.725,12.725,0,0,0,17.544,92.3H63.522A12.724,12.724,0,0,0,74.3,87.012a9.21,9.21,0,0,0,0-10.851ZM25.93,13.033v-.37a2.909,2.909,0,0,1,2.906-2.906H52.23a2.909,2.909,0,0,1,2.906,2.906v.37a2.91,2.91,0,0,1-2.906,2.906H28.836A2.91,2.91,0,0,1,25.93,13.033ZM27.85,48.96a14.721,14.721,0,0,0,2.74-8.655V18H50.476V40.305a14.721,14.721,0,0,0,2.74,8.655l11.1,16.245c-4.789-1.48-8.01-1.066-13.419,1.316a22.4,22.4,0,0,1-17.83.127A23.952,23.952,0,0,0,16.52,65.537ZM72.6,85.849a10.7,10.7,0,0,1-9.081,4.394H17.544a10.7,10.7,0,0,1-9.081-4.394,7.154,7.154,0,0,1,0-8.525L14.6,68.351a22.372,22.372,0,0,1,17.663.191l.036.016A26.288,26.288,0,0,0,42,70.5a23.958,23.958,0,0,0,9.731-2.093c5.883-2.591,8.621-2.653,14.562-.313l6.309,9.23A7.154,7.154,0,0,1,72.6,85.849ZM41.942,54.818l.23-.32a1.031,1.031,0,0,1,1.673,1.2l-.23.321a1.031,1.031,0,0,1-1.673-1.205ZM30.622,57.33a1.031,1.031,0,0,1,2.061-.007v.007a1.031,1.031,0,1,1-2.061,0Zm5.922-10.241a1.031,1.031,0,0,1,2.061-.008v.008a1.031,1.031,0,1,1-2.061,0Zm-1.83-8.827a1.031,1.031,0,1,1,2.061-.008v.008a1.031,1.031,0,0,1-2.061,0Zm4.917-6.3a1.031,1.031,0,0,1,2.061-.008v.008a1.031,1.031,0,1,1-2.061,0ZM94.6,18.25a12.034,12.034,0,0,0-22.044-3l-11.718,20.1A12.04,12.04,0,0,0,71.2,53.453a12.193,12.193,0,0,0,3.107-.405,11.964,11.964,0,0,0,7.343-5.569l5.859-10.047h0l5.859-10.047A11.966,11.966,0,0,0,94.6,18.25ZM79.872,46.441a10.017,10.017,0,0,1-13.656,3.6l-.52.891.519-.891a10.017,10.017,0,0,1-3.6-13.657l5.34-9.157,17.253,10.06Zm11.718-20.1L86.25,35.5,69,25.442l5.34-9.157A9.986,9.986,0,1,1,91.59,26.345ZM78.52,43.179A9.082,9.082,0,0,1,73.81,47.2a7.376,7.376,0,0,1-2.5.452,6.3,6.3,0,0,1-3.2-.856,1.03,1.03,0,0,1,1.038-1.78,4.639,4.639,0,0,0,3.966.245A7.026,7.026,0,0,0,76.74,42.14a1.031,1.031,0,1,1,1.78,1.039Zm2.125-3.644-.316.541a1.03,1.03,0,1,1-1.78-1.038l.315-.541a1.031,1.031,0,0,1,1.781,1.038Z"/><text x="0.0" y="117.5" font-size="5.0" font-weight="bold" font-family="Arbeit Regular, Helvetica, Arial-Unicode, Arial, Sans-serif" fill="#000000">Created by Icon Designer</text><text x="0.0" y="122.5" font-size="5.0" font-weight="bold" font-family="Arbeit Regular, Helvetica, Arial-Unicode, Arial, Sans-serif" fill="#000000">from Noun Project</text></svg>