<svg width="100" height="100" viewBox="0 0 100 100" fill="none" xmlns="http://www.w3.org/2000/svg">
<path d="M93.969 12.285C94.2424 12.285 94.5047 12.1764 94.698 11.983C94.8914 11.7897 95 11.5274 95 11.254V6.031C95 5.75756 94.8914 5.49532 94.698 5.30197C94.5047 5.10862 94.2424 5 93.969 5H6.031C5.75756 5 5.49532 5.10862 5.30197 5.30197C5.10862 5.49532 5 5.75756 5 6.031V11.259C5 11.3944 5.02667 11.5285 5.07848 11.6535C5.13029 11.7786 5.20624 11.8923 5.30197 11.988C5.39771 12.0838 5.51137 12.1597 5.63645 12.2115C5.76154 12.2633 5.89561 12.29 6.031 12.29H7.931V60.331H6.031C5.89565 60.3309 5.76161 60.3574 5.63653 60.4091C5.51145 60.4608 5.39778 60.5367 5.30203 60.6323C5.20628 60.728 5.13032 60.8416 5.0785 60.9666C5.02667 61.0916 5 61.2257 5 61.361V66.589C5 66.7243 5.02667 66.8584 5.0785 66.9834C5.13032 67.1084 5.20628 67.222 5.30203 67.3177C5.39778 67.4133 5.51145 67.4892 5.63653 67.5409C5.76161 67.5926 5.89565 67.6191 6.031 67.619H34.1L22.947 92.819C22.8773 92.9759 22.848 93.1476 22.8616 93.3187C22.8752 93.4898 22.9314 93.6548 23.025 93.7987C23.1186 93.9425 23.2466 94.0607 23.3975 94.1425C23.5484 94.2243 23.7174 94.2671 23.889 94.267H31C31.1997 94.2668 31.3951 94.2086 31.5624 94.0997C31.7298 93.9907 31.862 93.8355 31.943 93.653L35.527 85.553H64.477L68.061 93.653C68.1419 93.8356 68.2741 93.9908 68.4415 94.0998C68.6088 94.2088 68.8043 94.2669 69.004 94.267H76.112C76.2835 94.2668 76.4523 94.2239 76.6031 94.142C76.7538 94.0602 76.8818 93.942 76.9753 93.7982C77.0689 93.6544 77.125 93.4896 77.1388 93.3186C77.1525 93.1476 77.1234 92.9759 77.054 92.819L65.9 67.619H93.969C94.1043 67.6191 94.2384 67.5926 94.3635 67.5409C94.4886 67.4892 94.6022 67.4133 94.698 67.3177C94.7937 67.222 94.8697 67.1084 94.9215 66.9834C94.9733 66.8584 95 66.7243 95 66.589V61.361C95 61.2257 94.9733 61.0916 94.9215 60.9666C94.8697 60.8416 94.7937 60.728 94.698 60.6323C94.6022 60.5367 94.4886 60.4608 94.3635 60.4091C94.2384 60.3574 94.1043 60.3309 93.969 60.331H92.074V12.285H93.969ZM7.061 7.056H92.939V10.223H7.061V7.056ZM30.325 92.206H25.471L36.353 67.619H41.207L35.863 79.692L33.9 84.122L30.325 92.206ZM56.539 67.619L61.605 79.065H38.4L43.466 67.619H56.539ZM36.439 83.493L37.483 81.131H62.517L63.565 83.498L36.439 83.493ZM74.533 92.206H69.675L66.1 84.124L64.142 79.699L58.793 67.619H63.647L74.533 92.206ZM92.943 65.558H7.061V62.391H92.939L92.943 65.558ZM90.013 60.331H9.987V12.285H90.013V60.331ZM18.786 20.417C18.7714 20.2805 18.7841 20.1425 18.8235 20.011C18.8629 19.8796 18.9282 19.7573 19.0154 19.6514C19.1027 19.5454 19.2103 19.458 19.3318 19.3942C19.4533 19.3304 19.5863 19.2915 19.7231 19.2798C19.8598 19.268 19.9976 19.2837 20.1282 19.3259C20.2588 19.3682 20.3796 19.436 20.4837 19.5255C20.5877 19.6151 20.6728 19.7245 20.734 19.8473C20.7952 19.9702 20.8312 20.104 20.84 20.241C20.9714 22.9403 21.6408 25.5861 22.809 28.023H35.036C35.3037 28.0313 35.5577 28.1436 35.7442 28.3359C35.9306 28.5283 36.0349 28.7856 36.0349 29.0535C36.0349 29.3214 35.9306 29.5787 35.7442 29.7711C35.5577 29.9634 35.3037 30.0757 35.036 30.084H24.207C26.095 32.262 28.58 33.266 31.256 34.346L31.324 34.374L31.393 34.346C35.58 32.656 39.299 31.154 40.993 25.046H29.3C29.162 25.0503 29.0245 25.0268 28.8957 24.977C28.7669 24.9271 28.6495 24.8519 28.5503 24.7558C28.4512 24.6597 28.3723 24.5446 28.3185 24.4175C28.2646 24.2903 28.2369 24.1536 28.2369 24.0155C28.2369 23.8774 28.2646 23.7407 28.3185 23.6136C28.3723 23.4864 28.4512 23.3713 28.5503 23.2752C28.6495 23.1791 28.7669 23.1039 28.8957 23.054C29.0245 23.0042 29.162 22.9807 29.3 22.985H41.457C41.606 22.144 41.724 21.232 41.809 20.241C41.8178 20.104 41.8538 19.9702 41.915 19.8473C41.9762 19.7245 42.0613 19.6151 42.1653 19.5255C42.2694 19.436 42.3902 19.3682 42.5208 19.3259C42.6514 19.2837 42.7892 19.268 42.9259 19.2798C43.0627 19.2915 43.1957 19.3304 43.3172 19.3942C43.4387 19.458 43.5463 19.5454 43.6336 19.6514C43.7208 19.7573 43.7861 19.8796 43.8255 20.011C43.8649 20.1425 43.8776 20.2805 43.863 20.417C42.988 30.609 38.624 33.503 33.982 35.507C38.53 37.639 42.918 41.184 43.863 52.198C43.886 52.4703 43.8001 52.7406 43.624 52.9496C43.448 53.1587 43.1962 53.2893 42.924 53.313H42.835C42.5772 53.3127 42.3288 53.2158 42.1389 53.0415C41.949 52.8671 41.8313 52.6279 41.809 52.371C41.757 51.765 41.695 51.186 41.623 50.63H29.3C29.162 50.6343 29.0245 50.6108 28.8957 50.561C28.7669 50.5111 28.6495 50.4359 28.5503 50.3398C28.4512 50.2437 28.3723 50.1286 28.3185 50.0015C28.2646 49.8743 28.2369 49.7376 28.2369 49.5995C28.2369 49.4614 28.2646 49.3247 28.3185 49.1975C28.3723 49.0704 28.4512 48.9553 28.5503 48.8592C28.6495 48.7631 28.7669 48.6879 28.8957 48.638C29.0245 48.5882 29.162 48.5647 29.3 48.569H41.291C39.71 40.458 35.691 38.383 31.324 36.596C28.052 37.937 24.97 39.44 22.967 43.531H35.036C35.3037 43.5393 35.5577 43.6516 35.7442 43.8439C35.9306 44.0363 36.0349 44.2936 36.0349 44.5615C36.0349 44.8294 35.9306 45.0867 35.7442 45.2791C35.5577 45.4714 35.3037 45.5837 35.036 45.592H22.218C22.188 45.592 22.159 45.592 22.13 45.592C21.4334 47.7941 21.0003 50.071 20.84 52.375C20.8175 52.6318 20.6998 52.8709 20.5099 53.0452C20.32 53.2195 20.0718 53.3165 19.814 53.317C19.784 53.317 19.755 53.317 19.725 53.317C19.4526 53.2936 19.2007 53.163 19.0247 52.9539C18.8486 52.7448 18.7627 52.4744 18.786 52.202C19.731 41.188 24.119 37.643 28.667 35.511C24.025 33.503 19.661 30.609 18.786 20.417ZM51.219 20.161C51.219 20.0257 51.2456 19.8918 51.2974 19.7668C51.3492 19.6419 51.425 19.5283 51.5207 19.4327C51.6163 19.337 51.7299 19.2612 51.8548 19.2094C51.9798 19.1576 52.1137 19.131 52.249 19.131H68.465C68.603 19.1267 68.7405 19.1502 68.8693 19.2C68.9981 19.2499 69.1155 19.3251 69.2147 19.4212C69.3138 19.5173 69.3927 19.6324 69.4465 19.7596C69.5004 19.8867 69.5281 20.0234 69.5281 20.1615C69.5281 20.2996 69.5004 20.4363 69.4465 20.5635C69.3927 20.6906 69.3138 20.8057 69.2147 20.9018C69.1155 20.9979 68.9981 21.0731 68.8693 21.123C68.7405 21.1728 68.603 21.1963 68.465 21.192H52.249C51.9757 21.1917 51.7138 21.083 51.5206 20.8897C51.3275 20.6964 51.219 20.4343 51.219 20.161ZM60.699 27.161H80.964C81.102 27.1567 81.2395 27.1802 81.3683 27.23C81.4971 27.2799 81.6145 27.3551 81.7137 27.4512C81.8128 27.5473 81.8917 27.6624 81.9455 27.7895C81.9994 27.9167 82.0271 28.0534 82.0271 28.1915C82.0271 28.3296 81.9994 28.4663 81.9455 28.5935C81.8917 28.7206 81.8128 28.8357 81.7137 28.9318C81.6145 29.0279 81.4971 29.1031 81.3683 29.153C81.2395 29.2028 81.102 29.2263 80.964 29.222H60.7C60.562 29.2263 60.4245 29.2028 60.2957 29.153C60.1669 29.1031 60.0495 29.0279 59.9503 28.9318C59.8512 28.8357 59.7723 28.7206 59.7185 28.5935C59.6646 28.4663 59.6369 28.3296 59.6369 28.1915C59.6369 28.0534 59.6646 27.9167 59.7185 27.7895C59.7723 27.6624 59.8512 27.5473 59.9503 27.4512C60.0495 27.3551 60.1669 27.2799 60.2957 27.23C60.4245 27.1802 60.561 27.1567 60.699 27.161ZM51.219 28.191C51.219 28.0557 51.2456 27.9218 51.2974 27.7968C51.3492 27.6719 51.425 27.5583 51.5207 27.4627C51.6163 27.367 51.7299 27.2912 51.8548 27.2394C51.9798 27.1876 52.1137 27.161 52.249 27.161H56.163C56.4307 27.1693 56.6847 27.2816 56.8712 27.4739C57.0576 27.6663 57.1619 27.9236 57.1619 28.1915C57.1619 28.4594 57.0576 28.7167 56.8712 28.9091C56.6847 29.1014 56.4307 29.2137 56.163 29.222H52.249C51.9759 29.2217 51.7141 29.1131 51.521 28.92C51.3279 28.7269 51.2193 28.4651 51.219 28.192V28.191ZM82 36.223C82 36.3584 81.9733 36.4925 81.9215 36.6175C81.8697 36.7426 81.7938 36.8563 81.698 36.952C81.6023 37.0478 81.4886 37.1237 81.3635 37.1755C81.2385 37.2273 81.1044 37.254 80.969 37.254H75.276C75.138 37.2583 75.0005 37.2348 74.8717 37.185C74.7429 37.1351 74.6255 37.0599 74.5263 36.9638C74.4271 36.8677 74.3483 36.7526 74.2945 36.6255C74.2406 36.4983 74.2129 36.3616 74.2129 36.2235C74.2129 36.0854 74.2406 35.9487 74.2945 35.8215C74.3483 35.6944 74.4271 35.5793 74.5263 35.4832C74.6255 35.3871 74.7429 35.3119 74.8717 35.262C75.0005 35.2122 75.138 35.1887 75.276 35.193H80.964C81.0998 35.1922 81.2343 35.2183 81.36 35.2697C81.4857 35.3211 81.5999 35.3968 81.6962 35.4925C81.7925 35.5883 81.8689 35.7021 81.921 35.8274C81.9732 35.9528 82 36.0872 82 36.223ZM51.224 36.223C51.224 35.9498 51.3325 35.6878 51.5257 35.4947C51.7188 35.3015 51.9808 35.193 52.254 35.193H70.74C71.0077 35.2013 71.2617 35.3136 71.4482 35.5059C71.6346 35.6983 71.7389 35.9556 71.7389 36.2235C71.7389 36.4914 71.6346 36.7487 71.4482 36.9411C71.2617 37.1334 71.0077 37.2457 70.74 37.254H52.249C51.9757 37.2537 51.7138 37.145 51.5206 36.9517C51.3275 36.7584 51.219 36.4963 51.219 36.223H51.224ZM51.224 44.255C51.2239 44.1197 51.2504 43.9856 51.3021 43.8605C51.3538 43.7355 51.4297 43.6218 51.5253 43.526C51.621 43.4303 51.7346 43.3543 51.8596 43.3025C51.9846 43.2507 52.1187 43.224 52.254 43.224H80.964C81.102 43.2197 81.2395 43.2432 81.3683 43.293C81.4971 43.3429 81.6145 43.4181 81.7137 43.5142C81.8128 43.6103 81.8917 43.7254 81.9455 43.8526C81.9994 43.9797 82.0271 44.1164 82.0271 44.2545C82.0271 44.3926 81.9994 44.5293 81.9455 44.6565C81.8917 44.7836 81.8128 44.8987 81.7137 44.9948C81.6145 45.0909 81.4971 45.1661 81.3683 45.216C81.2395 45.2658 81.102 45.2893 80.964 45.285H52.249C51.9758 45.285 51.7138 45.1765 51.5207 44.9833C51.3275 44.7902 51.219 44.5282 51.219 44.255H51.224ZM82 52.286C82 52.4213 81.9733 52.5554 81.9215 52.6804C81.8697 52.8054 81.7937 52.919 81.698 53.0147C81.6022 53.1103 81.4886 53.1862 81.3635 53.2379C81.2384 53.2896 81.1043 53.3161 80.969 53.316H62.957C62.6893 53.3077 62.4353 53.1954 62.2488 53.0031C62.0624 52.8107 61.9581 52.5534 61.9581 52.2855C61.9581 52.0176 62.0624 51.7603 62.2488 51.5679C62.4353 51.3756 62.6893 51.2633 62.957 51.255H80.964C81.0998 51.2543 81.2344 51.2805 81.3601 51.332C81.4857 51.3836 81.6 51.4594 81.6963 51.5552C81.7925 51.651 81.8689 51.7649 81.921 51.8903C81.9732 52.0157 82 52.1502 82 52.286ZM51.224 52.286C51.224 52.0127 51.3325 51.7506 51.5256 51.5573C51.7188 51.364 51.9807 51.2553 52.254 51.255H58.426C58.564 51.2507 58.7015 51.2742 58.8303 51.324C58.9591 51.3739 59.0765 51.4491 59.1757 51.5452C59.2749 51.6413 59.3537 51.7564 59.4075 51.8835C59.4614 52.0107 59.4891 52.1474 59.4891 52.2855C59.4891 52.4236 59.4614 52.5603 59.4075 52.6875C59.3537 52.8146 59.2749 52.9297 59.1757 53.0258C59.0765 53.1219 58.9591 53.1971 58.8303 53.247C58.7015 53.2968 58.564 53.3203 58.426 53.316H52.249C51.9758 53.316 51.7138 53.2075 51.5207 53.0143C51.3275 52.8212 51.219 52.5592 51.219 52.286H51.224Z" fill="black"/>
</svg>
