<svg xmlns="http://www.w3.org/2000/svg" data-name="Layer 1" viewBox="-5.0 -10.0 110.0 135.0" x="0px" y="0px"><title>a</title><path d="M93.969,12.654A1.031,1.031,0,0,0,95,11.623V6.4a1.031,1.031,0,0,0-1.031-1.031H6.031A1.031,1.031,0,0,0,5,6.4v5.228a1.031,1.031,0,0,0,1.031,1.031h1.9V60.7h-1.9A1.03,1.03,0,0,0,5,61.73v5.228a1.03,1.03,0,0,0,1.031,1.03H34.1l-11.153,25.2a1.03,1.03,0,0,0,.942,1.448H31a1.033,1.033,0,0,0,.943-.614l3.584-8.1H64.477l3.584,8.1a1.032,1.032,0,0,0,.943.614h7.108a1.031,1.031,0,0,0,.942-1.448L65.9,67.988H93.969A1.03,1.03,0,0,0,95,66.958V61.73A1.03,1.03,0,0,0,93.969,60.7H92.074V12.654ZM7.061,7.425H92.939v3.167H7.061Zm23.264,85.15H25.471L36.353,67.988h4.854L35.863,80.061v0L33.9,84.491h0ZM56.539,67.988l5.066,11.446H38.4l5.066-11.446Zm-20.1,15.874L37.483,81.5H62.517l1.048,2.367Zm38.094,8.713H69.675L66.1,84.493l0,0-1.958-4.425,0,0L58.793,67.988h4.854Zm18.41-26.648H7.061V62.76H92.939ZM90.013,60.7H9.987V12.654H90.013ZM18.786,20.786a1.031,1.031,0,1,1,2.054-.176,20.283,20.283,0,0,0,1.969,7.782H35.036a1.031,1.031,0,0,1,0,2.061H24.207c1.888,2.178,4.373,3.182,7.049,4.262l.068.028.069-.028c4.187-1.69,7.906-3.192,9.6-9.3H29.3a1.031,1.031,0,1,1,0-2.061H41.457c.149-.841.267-1.753.352-2.744a1.031,1.031,0,1,1,2.054.176c-.875,10.192-5.239,13.086-9.881,15.09,4.548,2.132,8.936,5.677,9.881,16.691a1.032,1.032,0,0,1-.939,1.115l-.089,0a1.031,1.031,0,0,1-1.026-.942c-.052-.606-.114-1.185-.186-1.741H29.3a1.031,1.031,0,1,1,0-2.061H41.291c-1.581-8.111-5.6-10.186-9.967-11.973-3.272,1.341-6.354,2.844-8.357,6.935H35.036a1.031,1.031,0,0,1,0,2.061H22.218c-.03,0-.059,0-.088,0a29.211,29.211,0,0,0-1.29,6.783,1.032,1.032,0,0,1-1.026.942c-.03,0-.059,0-.089,0a1.031,1.031,0,0,1-.939-1.115c.945-11.014,5.333-14.559,9.881-16.691C24.025,33.872,19.661,30.978,18.786,20.786Zm32.433-.256a1.03,1.03,0,0,1,1.03-1.03H68.465a1.031,1.031,0,1,1,0,2.061H52.249A1.031,1.031,0,0,1,51.219,20.53Zm9.48,7H80.964a1.031,1.031,0,1,1,0,2.061H60.7a1.031,1.031,0,1,1,0-2.061Zm-9.48,1.03a1.03,1.03,0,0,1,1.03-1.03h3.914a1.031,1.031,0,0,1,0,2.061H52.249A1.031,1.031,0,0,1,51.219,28.561ZM82,36.592a1.031,1.031,0,0,1-1.031,1.031H75.276a1.031,1.031,0,1,1,0-2.061h5.688A1.03,1.03,0,0,1,82,36.592Zm-30.776,0a1.03,1.03,0,0,1,1.03-1.03H70.74a1.031,1.031,0,0,1,0,2.061H52.249A1.031,1.031,0,0,1,51.219,36.592Zm0,8.032a1.03,1.03,0,0,1,1.03-1.031H80.964a1.031,1.031,0,1,1,0,2.061H52.249A1.03,1.03,0,0,1,51.219,44.624ZM82,52.655a1.03,1.03,0,0,1-1.031,1.03H62.957a1.031,1.031,0,0,1,0-2.061H80.964A1.031,1.031,0,0,1,82,52.655Zm-30.776,0a1.031,1.031,0,0,1,1.03-1.031h6.172a1.031,1.031,0,1,1,0,2.061H52.249A1.03,1.03,0,0,1,51.219,52.655Z"/><text x="0.0" y="117.5" font-size="5.0" font-weight="bold" font-family="Arbeit Regular, Helvetica, Arial-Unicode, Arial, Sans-serif" fill="#000000">Created by Icon Designer</text><text x="0.0" y="122.5" font-size="5.0" font-weight="bold" font-family="Arbeit Regular, Helvetica, Arial-Unicode, Arial, Sans-serif" fill="#000000">from Noun Project</text></svg>