<svg xmlns="http://www.w3.org/2000/svg" version="1.1" viewBox="-5.0 -10.0 110.0 135.0">
 <path d="m44.23 77.164c-0.70312-1.4297-5.418-2.1719-10.117-2.9102-0.97266-0.15234-1.9453-0.30469-2.8906-0.46875-1.9453 0.28125-3.7305 0.60938-5.0469 1.0664-1.043 0.35938-1.75 0.75781-1.9023 1.2188l-0.085938 5.8359c2.2695-1.1562 6.0508-1.6367 9.8438-2.1211 4.7227-0.60156 9.4609-1.207 10.199-2.6172zm-12.312-34.609c-0.066407 0.015624-0.13281 0.027343-0.20312 0.027343-3.6133 0.51562-6.6367 1.1406-6.9922 2.2891l-0.003906 0.30078c0.42578 1.4805 5.2305 2.2383 10.055 2.9961 0.44531 0.070312 0.89453 0.14062 1.3398 0.21094 2.293-0.30469 4.4883-0.63672 6.1602-1.1367 1.3555-0.40234 2.2891-0.86328 2.4727-1.4297l0.085937-5.8164c-2.2969 1.1836-6.1367 1.6758-9.9688 2.1641-0.99219 0.12891-1.9883 0.25391-2.9414 0.38672zm-7.1289-4.668c0.027344-0.089844 0.039063-0.17969 0.039063-0.27734l0.078125-5.4141c2.2344 1.2227 6 1.8125 9.7773 2.4062 0.48047 0.074219 0.95703 0.15234 1.4336 0.22656 0.027343 0.007813 0.058593 0.011719 0.089843 0.015625 4.1523 0.66406 7.9688 1.3945 8.5977 2.668-0.73828 1.4102-5.4766 2.0156-10.199 2.6172-0.97656 0.125-1.9531 0.25-2.9023 0.38672-1.9336-0.33984-3.7031-0.71875-5.0117-1.2109-1.082-0.41016-1.793-0.85156-1.8828-1.3398-0.003906-0.027344-0.011719-0.050782-0.015625-0.078125zm7.3555-10.93c-0.066406 0.015625-0.13281 0.027344-0.20312 0.027344-3.6133 0.51562-6.6367 1.1406-6.9922 2.2891l-0.003907 0.30078c0.42578 1.4844 5.2305 2.2383 10.055 2.9961 0.44531 0.070313 0.89453 0.14063 1.3398 0.21094 2.293-0.30469 4.4883-0.63672 6.1602-1.1367 1.3555-0.40234 2.2891-0.86328 2.4727-1.4297l0.085938-5.8164c-2.2969 1.1836-6.1367 1.6758-9.9688 2.1641-0.99219 0.12891-1.9883 0.25391-2.9414 0.38672zm42.617 59.516c-0.70312-1.4297-5.418-2.1719-10.117-2.9102-0.97266-0.15234-1.9453-0.30469-2.8906-0.46875-1.9453 0.28125-3.7305 0.60938-5.0469 1.0664-1.043 0.35938-1.75 0.75781-1.9023 1.2188l-0.085938 5.8359c2.2695-1.1562 6.0508-1.6367 9.8438-2.1211 4.7227-0.60156 9.4609-1.207 10.199-2.6172zm-19.895-8.082c0.007812-0.027344 0.015624-0.054687 0.019531-0.078125 0.32422-1.5234 5.2305-2.1484 10.156-2.7773 0.44922-0.058594 0.89844-0.11328 1.3438-0.17188 2.2812 0.36719 4.4648 0.76562 6.125 1.3125 1.3398 0.44141 2.2578 0.92969 2.4297 1.4922l-0.085937 5.8203c-2.2578-1.25-6.0859-1.8516-9.9023-2.4492-0.99219-0.15625-1.9805-0.3125-2.9336-0.47266-0.0625-0.015625-0.12891-0.027344-0.19531-0.03125-3.6719-0.63281-6.7227-1.3633-6.9453-2.5664-0.003906-0.023438-0.011718-0.050781-0.015625-0.074219zm7.3555-10.934c-0.066406 0.015625-0.13672 0.027344-0.20312 0.027344-3.6133 0.51562-6.6328 1.1406-6.9922 2.2891l-0.085938 5.8398c2.2695-1.1562 6.0508-1.6367 9.8438-2.1211 0.48047-0.0625 0.96094-0.12109 1.4414-0.18359 0.03125-0.003906 0.0625-0.007813 0.089844-0.011719 4.3398-0.56641 8.3164-1.2109 8.7305-2.5742l0.085937-5.8164c-2.2969 1.1836-6.1367 1.6758-9.9688 2.1641-0.99219 0.12891-1.9883 0.25391-2.9414 0.38672zm-7.1289-4.668c0.027344-0.089843 0.039062-0.17969 0.039062-0.27734l0.078126-5.4141c2.2344 1.2227 6 1.8125 9.7773 2.4062 0.48047 0.074219 0.96094 0.15234 1.4336 0.22656 0.027344 0.007812 0.058594 0.011719 0.089844 0.015625 4.1523 0.66406 7.9688 1.3945 8.5977 2.668-0.73828 1.4102-5.4766 2.0156-10.199 2.6172-0.97656 0.125-1.9531 0.25-2.9023 0.38672-1.9336-0.33984-3.7031-0.71875-5.0117-1.2109-1.082-0.41016-1.793-0.85156-1.8828-1.3398-0.003906-0.027344-0.011719-0.050782-0.015625-0.078126zm0.38281-23.906c0.42578 1.4844 5.2305 2.2383 10.055 2.9961 0.44531 0.070313 0.89453 0.14062 1.3398 0.21094 2.293-0.30469 4.4883-0.63672 6.1602-1.1367 1.3555-0.40234 2.2891-0.86328 2.4727-1.4297l0.085938-5.8164c-2.2969 1.1836-6.1367 1.6758-9.9688 2.1641-4.8477 0.61719-9.6797 1.2344-10.137 2.707l-0.003906 0.30078zm-0.16016 8.3086c0.027344-0.089844 0.039063-0.17969 0.039063-0.27734l0.078125-5.4141c2.2344 1.2227 6 1.8125 9.7773 2.4062 0.48047 0.074219 0.95703 0.15234 1.4336 0.22656 0.027344 0.007813 0.058594 0.011719 0.089844 0.015626 4.1523 0.66406 7.9688 1.3945 8.5977 2.668-0.73828 1.4102-5.4766 2.0156-10.199 2.6172-0.97656 0.125-1.9531 0.25-2.9023 0.38672-1.9336-0.33984-3.7031-0.71875-5.0117-1.2109-1.082-0.41016-1.793-0.85156-1.8828-1.3398-0.003907-0.027343-0.011719-0.050781-0.015626-0.078125zm-10.758-24.773c-1.4805 1.0625-5.6094 1.5898-9.7266 2.1133-0.97656 0.125-1.9531 0.25-2.9023 0.38672-1.9336-0.33984-3.7031-0.71875-5.0117-1.2109-1.082-0.41016-1.793-0.85156-1.8828-1.3398-0.003906-0.027344-0.011718-0.050782-0.015625-0.078126 0.027344-0.089843 0.039063-0.17969 0.039063-0.27734l0.089844-6.0508c2.0664 1.0742 5.5742 2.3203 9.8164 3.6445 0.15625 0.10156 0.33984 0.16016 0.53125 0.16406 2.7891 0.85938 5.8711 1.75 9.0664 2.6484zm11.141 0.94922c3.9961 1.0977 7.8398 2.168 11.164 3.1602 0.027344-0.007813 0.058594-0.011719 0.085938-0.015625 2.3438-0.30859 4.6016-0.64453 6.3047-1.1523 1.3555-0.40234 2.2891-0.86328 2.4727-1.4297l0.085938-5.8164c-2.2969 1.1836-6.1367 1.6758-9.9688 2.1641-4.8477 0.61719-9.6797 1.2344-10.137 2.707l-0.007812 0.37891zm-30.527-9.4141c0.31641 0.63281 4.4844 2.0352 10.32 3.7578 2.5859-0.34375 5.3516-0.875 7.3477-1.6172 1.2852-0.47656 2.1875-0.98047 2.3594-1.4727l0.085937-5.8125c-2.2969 1.1836-6.1367 1.6758-9.9688 2.1641-4.8477 0.61719-9.6797 1.2344-10.137 2.707l-0.003907 0.27344zm21.863 15.43 0.089844-6.2461c1.957 0.54297 3.9336 1.0859 5.8906 1.6211l1.3438 0.36719 0.007813 0.003906 0.046874 0.015625c10.391 2.8516 19.82 5.457 21.074 6.1836-0.91406 1.3359-5.5312 1.9258-10.137 2.5117-0.55859 0.070312-1.1172 0.14453-1.6719 0.21484-0.039063-0.015626-0.078126-0.03125-0.11719-0.042969-3.1211-0.89062-5.8242-1.6406-8.6641-2.4297-2.2422-0.62109-4.5781-1.2695-7.8711-2.2031zm-0.34375 23.844v-0.019531c0.003906-0.027343 0.003906-0.054687 0-0.085937v-0.015625c0.003906-0.14844-0.027344-0.28516-0.082031-0.41406-0.46094-1.5391-2.3359-2.4961-4.8477-3.1875 0.38281-0.089844 0.75-0.1875 1.0977-0.28906 1.9844-0.59375 3.4102-1.4492 3.8438-2.7695 0.0625-0.13672 0.097656-0.28516 0.09375-0.44141v-0.097656l0.12109-8.2969v-0.039063c0.011719-0.17187-0.019531-0.33984-0.085938-0.48828-0.46875-1.5312-2.3398-2.4805-4.8438-3.168 0.38281-0.089843 0.75-0.1875 1.0977-0.28906 1.6875-0.50391 2.9688-1.1953 3.582-2.2031 2.9062 0.82031 5.3477 1.4961 7.6914 2.1484 1.4727 0.41016 2.9062 0.80469 4.5742 1.2734-2.9141 0.64453-5.1055 1.6133-5.4844 3.3867-0.019531 0.089843-0.027344 0.17969-0.019531 0.26562l-0.007813 0.44531c0 0.027344-0.003906 0.050782 0 0.078125l-0.11328 7.875c0 0.09375 0.011718 0.1875 0.03125 0.27344-0.046875 0.14844-0.054688 0.3125-0.023438 0.47656 0.24219 1.3203 1.4297 2.2305 3.1797 2.8945 0.24609 0.09375 0.50781 0.18359 0.77734 0.26953-0.82422 0.24219-1.5586 0.52344-2.1719 0.85938-2.8594 0.52344-5.6836 1.0508-8.4102 1.5703zm-15.176 2.8906c-1.9492-0.33984-3.7344-0.72266-5.0547-1.2188-1.082-0.41016-1.793-0.85156-1.8828-1.3398-0.003906-0.027344-0.011719-0.050782-0.015625-0.078125 0.027344-0.089844 0.039062-0.17969 0.039062-0.27734l0.078126-5.4141c2.2344 1.2227 6 1.8125 9.7773 2.4062 0.48047 0.074219 0.95703 0.15234 1.4336 0.22656 0.027344 0.007813 0.058594 0.011719 0.089844 0.015625 4.3125 0.69141 8.2656 1.4492 8.6562 2.8203l-0.003907 0.35938c-1.75 0.33203-3.4492 0.66016-5.0781 0.97266-2.6641 0.51172-5.1562 0.98828-7.0234 1.3398-0.38672 0.074218-0.71875 0.13281-1.0117 0.1875zm24.637-2.7969c-0.12891 0.14844-0.30078 0.26563-0.49609 0.32031-0.20312 0.16406-0.33984 0.34375-0.39844 0.53906l-0.003906 0.30078c0.42578 1.4805 5.2305 2.2383 10.055 2.9961 0.44531 0.070313 0.89453 0.14063 1.3398 0.21094 2.293-0.30469 4.4883-0.63672 6.1602-1.1367 1.3555-0.40234 2.2891-0.86328 2.4727-1.4297l0.085938-5.8164c-2.2969 1.1836-6.1367 1.6758-9.9688 2.1641-0.99219 0.12891-1.9883 0.25391-2.9414 0.38672-0.066406 0.015625-0.13281 0.027343-0.20312 0.027343-2.5898 0.36719-4.875 0.79688-6.0938 1.4297zm-20.426 12.75 0.13281-0.015624c2.2812 0.36719 4.4648 0.76562 6.1211 1.3125 1.3398 0.44141 2.2578 0.92969 2.4297 1.4922l-0.085937 5.8203c-2.2578-1.25-6.0859-1.8516-9.9023-2.4492-0.99219-0.15625-1.9805-0.3125-2.9336-0.47266-0.0625-0.015624-0.12891-0.027343-0.19531-0.03125-3.6719-0.63281-6.7227-1.3633-6.9453-2.5664-0.003906-0.023437-0.011718-0.050781-0.015625-0.074218 0.007813-0.027344 0.015625-0.054688 0.019531-0.078126 0.32422-1.5234 5.2305-2.1484 10.156-2.7773 0.40625-0.050781 0.80859-0.10156 1.125-0.14453 0.03125-0.003907 0.058594-0.007813 0.089844-0.011719zm17.355-3.6562c-3.6875 0.69141-6.3945 1.3047-9.043 1.9023-0.97266 0.21875-1.9375 0.4375-2.9414 0.65625 0.54297 0.13672 1.0547 0.28125 1.5273 0.4375 1.9727 0.65234 3.375 1.5508 3.7617 2.8906 0.054687 0.13281 0.082031 0.27344 0.078125 0.42188v0.082032l-0.12109 8.3008c0.003906 0.039062 0.003906 0.082031 0 0.12109-0.003906 0.14453-0.035156 0.28125-0.09375 0.41016-0.91016 2.7773-6.4492 3.4805-11.965 4.1875-4.9258 0.62891-9.832 1.2539-10.156 2.7773-0.11719 0.55469-0.66406 0.91016-1.2188 0.79297-0.51172-0.10938-0.85547-0.58203-0.8125-1.0898l0.12109-8.3242c-0.003906-0.089844 0.003906-0.17578 0.019531-0.26562 0.28125-1.3125 1.4922-2.1875 3.2656-2.7969 0.25-0.085938 0.51562-0.16797 0.78906-0.24609-2.1602-0.69922-3.6914-1.6602-3.9609-3.1367-0.03125-0.16406-0.019531-0.32422 0.023438-0.47266-0.03125-0.10938-0.039063-0.22656-0.03125-0.34766l0.11719-8.2383v-0.066406c0.082032-1.8086 1.6523-2.668 4.1055-3.2969-0.28125-0.089843-0.55469-0.18359-0.80859-0.27734-1.7539-0.66406-2.9375-1.5703-3.1797-2.8945-0.03125-0.16406-0.019532-0.32812 0.023437-0.47656-0.023437-0.085938-0.035156-0.17969-0.03125-0.27344l0.11328-7.8711v-0.078124l0.007813-0.44141c-0.003906-0.089843 0.003906-0.17578 0.019531-0.26562 0.3125-1.4688 1.8672-2.3828 4.0508-3.0234-0.26953-0.085938-0.53125-0.17578-0.77734-0.26953-1.7539-0.66406-2.9375-1.5703-3.1797-2.8945-0.03125-0.16406-0.019531-0.32812 0.023438-0.47656-0.023438-0.085938-0.035156-0.17969-0.03125-0.27344l0.11328-7.875v-0.078125l0.007813-0.44531c-0.003907-0.089844 0.003906-0.17578 0.019531-0.26562 0.3125-1.4688 1.8672-2.3828 4.0508-3.0234-0.26953-0.085937-0.53125-0.17578-0.77734-0.26953-1.7539-0.66406-2.9375-1.5703-3.1797-2.8945-0.03125-0.16406-0.019531-0.32812 0.023437-0.47656-0.023437-0.085937-0.035156-0.17969-0.03125-0.27344l0.11328-7.875v-0.078125l0.007812-0.44531c-0.003906-0.089844 0.003906-0.17578 0.019531-0.26562 0.62891-2.9492 6.2578-3.668 11.91-4.3867 4.9648-0.63281 9.9453-1.2695 10.281-2.8438 0.11719-0.55469 0.66406-0.91016 1.2188-0.79297 0.51172 0.10938 0.85547 0.58203 0.8125 1.0898l-0.12109 8.3242c0.003906 0.046875 0.003906 0.09375-0.003906 0.14062-0.003907 0.14453-0.039063 0.28125-0.097657 0.40234-0.40625 1.1758-1.7578 2.0781-3.5977 2.7617-1.0391 0.38672-2.2617 0.71875-3.5469 1 4.2383 1.2031 8.9531 2.5 13.547 3.7617l0.097656 0.027344c0.003907-0.058594 0.007813-0.11719 0.023438-0.17578 0.62891-2.9492 6.2578-3.668 11.91-4.3867 4.9648-0.63281 9.9453-1.2695 10.281-2.8398 0.11719-0.55469 0.66406-0.91016 1.2188-0.79297 0.51172 0.10938 0.85547 0.58203 0.8125 1.0898l-0.12109 8.3242c0.003907 0.046875 0.003907 0.09375-0.003906 0.14062-0.003906 0.13672-0.035156 0.26562-0.085937 0.38281-0.42188 1.332-1.8555 2.1914-3.8477 2.7891-0.76172 0.22656-1.6172 0.42188-2.5352 0.59375 2.5234 0.84375 4.4453 1.6133 5.4883 2.2695 0.023438 0.003906 0.042969 0.007812 0.066406 0.011718 0.50781 0.10938 0.84766 0.57031 0.8125 1.0742v0.039063l-0.12109 8.3008c0.003906 0.046875 0.003906 0.09375-0.003907 0.14062-0.003906 0.13672-0.035156 0.26562-0.085937 0.38281-0.42188 1.332-1.8555 2.1914-3.8477 2.7852-0.34766 0.10547-0.71484 0.19922-1.0977 0.28906 2.5 0.6875 4.3711 1.6406 4.8438 3.168 0.066407 0.14844 0.097657 0.31641 0.085938 0.48828v0.039063l-0.12109 8.3008c0.003906 0.03125 0.003906 0.0625 0 0.097656 0.003906 0.15625-0.03125 0.30859-0.09375 0.44141-0.42969 1.3203-1.8555 2.1758-3.8438 2.7695-0.34766 0.10547-0.71484 0.19922-1.0977 0.28906 2.5 0.6875 4.3711 1.6367 4.8438 3.168 0.066406 0.14844 0.097656 0.31641 0.089844 0.48828v0.039063l-0.12109 8.2969c0.003906 0.03125 0.003906 0.0625 0 0.097657 0.003906 0.16016-0.03125 0.3125-0.097656 0.44922-0.50781 1.5195-2.4102 2.418-4.9336 3.0352 0.37891 0.10156 0.74219 0.21094 1.0859 0.32031 1.9727 0.65234 3.375 1.5508 3.7617 2.8906 0.054688 0.13281 0.082032 0.27344 0.078125 0.42188v0.082032l-0.12109 8.2969c0.003906 0.039063 0.003906 0.082032 0 0.125-0.003907 0.14453-0.035157 0.28125-0.09375 0.41016-0.91406 2.7734-6.4492 3.4805-11.965 4.1875-4.9258 0.62891-9.832 1.2539-10.156 2.7773-0.11719 0.55469-0.66406 0.91016-1.2188 0.79297-0.51172-0.10938-0.85547-0.58203-0.8125-1.0898l0.12109-8.3242c-0.003907-0.089844 0.003906-0.17578 0.019531-0.26562 0.28125-1.3125 1.4922-2.1875 3.2656-2.7969 0.25-0.085938 0.51562-0.16797 0.78906-0.24609-2.1602-0.69922-3.6914-1.6602-3.9609-3.1367-0.03125-0.16406-0.019531-0.32422 0.023437-0.47266-0.03125-0.10938-0.039062-0.22656-0.03125-0.34766l0.12109-8.3242c-0.003906-0.089844 0.003906-0.17578 0.019531-0.26562 0.3125-1.4688 1.8672-2.3828 4.0508-3.0234-0.26953-0.085937-0.53125-0.17578-0.77734-0.26953-1.7539-0.66406-2.9375-1.5703-3.1797-2.8945-0.03125-0.16406-0.019531-0.32812 0.023438-0.47656-0.023438-0.085938-0.035157-0.17969-0.03125-0.27344v-0.074219zm-0.10156-2.0703c0.042969-0.007812 0.089843-0.011719 0.13281-0.015625l0.082031-5.7148v-0.078125l0.007813-0.4375c-4.4414 0.82422-9.0703 1.7109-13.262 2.5117-2.418 0.46484-4.6836 0.89844-7.0312 1.3398-0.5 0.09375-1.2266 0.22656-1.9258 0.35156-3.7344 0.67188-6.4336 1.1562-6.4805 2.1875v0.015625l-0.085937 5.8086c2.2695-1.1562 6.0508-1.6367 9.8438-2.1211 0.33203-0.042968 0.66406-0.085937 1.1172-0.14453 3.2383-0.60938 5.6992-1.1641 8.2148-1.7344 2.7266-0.61328 5.5117-1.2422 9.3906-1.9688z" fill-rule="evenodd"/>
<text x="0.0" y="117.5" font-size="5.0" font-weight="bold" font-family="Arbeit Regular, Helvetica, Arial-Unicode, Arial, Sans-serif" fill="#000000">Created by Icon Designer</text><text x="0.0" y="122.5" font-size="5.0" font-weight="bold" font-family="Arbeit Regular, Helvetica, Arial-Unicode, Arial, Sans-serif" fill="#000000">from Noun Project</text></svg>