<svg xmlns="http://www.w3.org/2000/svg" version="1.1" viewBox="-5.0 -10.0 110.0 135.0">
 <path d="m25.195 77.188c1.0547-1.4922-0.94531-6.4648-2.9375-11.422-0.41016-1.0195-0.82031-2.0391-1.2031-3.0352-1.3789-1.6953-2.7031-3.2109-3.8945-4.2109-0.96875-0.81641-1.7852-1.2734-2.3516-1.1367l-5.7656 3.3281c2.4062 1.4375 5.0625 4.8281 7.7305 8.2266 3.2969 4.2031 6.6016 8.4219 8.4258 8.2461zm-3.7188-23.707c0.035157-0.007813 0.070313-0.019531 0.10547-0.03125 1.707-0.58203 5.1133 3.7578 8.5273 8.1133 0.3125 0.39844 0.625 0.80078 0.9375 1.1953 0.94922 2.3945 1.8203 4.7148 2.2383 6.5938 0.34766 1.5664 0.40234 2.7539-0.078125 3.2656l-5.7578 3.3242c-0.027344-2.8398-1.6562-6.8984-3.2852-10.945-0.42187-1.0469-0.83984-2.0898-1.2305-3.1016-0.011719-0.039062-0.027344-0.082031-0.046875-0.12109-1.5039-3.9062-2.5586-7.2852-1.4883-8.2227 0.027343-0.023437 0.054687-0.050781 0.078124-0.074219zm14.703 0.81641c0.67187 0.83594 1.3594 1.7109 2.0469 2.5859 2.6953 3.4336 5.3945 6.8789 7.8398 8.3203l-5.7461 3.3203c-1.6016 0.41406-4.5156-3.0508-7.5547-6.9023-0.007813-0.007813-0.015625-0.019532-0.023437-0.027344-0.33594-0.42578-0.67578-0.85938-1.0156-1.2891-2.6641-3.3984-5.3242-6.7891-7.7305-8.2266l5.7695-3.3281c1.3555-0.34766 3.707 2.2031 6.2812 5.3867 0.039063 0.058593 0.082031 0.11328 0.13281 0.16016zm0.25391-9.4492c-0.023438 0.027344-0.050782 0.050782-0.078125 0.074219-0.44531 0.39062-0.46875 1.3555-0.23828 2.6562 0.27344 1.5391 0.92187 3.4453 1.6992 5.4844 0.67188 0.82812 1.3477 1.6914 2.0234 2.5547 3.2969 4.2031 6.6016 8.4219 8.4258 8.2461 1.0547-1.4922-0.94531-6.4648-2.9375-11.422-1.6094-4.0078-3.2148-8-3.2578-10.801l-5.3477 3.0898c-0.09375 0.054687-0.19141 0.09375-0.28906 0.11328zm14.703 0.8125c-0.050781-0.050781-0.09375-0.10547-0.13281-0.16406-2.5703-3.1797-4.918-5.7266-6.2734-5.3906l-0.32422 0.1875c-1.2266 1.2891 0.79688 6.3281 2.8281 11.387 0.19141 0.47266 0.37891 0.94141 0.56641 1.4141 1.5938 2.0156 3.1641 3.9219 4.5938 5.2305 1.1875 1.0898 2.1914 1.7305 2.8789 1.5625l5.7461-3.3203c-2.4453-1.4453-5.1484-4.8867-7.8398-8.3203-0.6875-0.875-1.3711-1.75-2.043-2.5859zm0.25391-9.4531c0.097656-0.023437 0.19531-0.058593 0.28516-0.10938l5.3516-3.0898c0.039062 2.8008 1.6484 6.7969 3.2578 10.805 1.9922 4.9531 3.9883 9.9258 2.9375 11.422-1.8203 0.17188-5.1289-4.0469-8.4258-8.2461-0.67578-0.86328-1.3516-1.7227-2.0234-2.5547-0.77734-2.0391-1.4258-3.9453-1.6992-5.4844-0.23047-1.3047-0.21094-2.2656 0.23828-2.6562 0.027344-0.023438 0.054688-0.050781 0.078125-0.078125zm22.938-13.188c-1.2383 1.2812 0.78906 6.3281 2.8242 11.391 0.1875 0.47266 0.37891 0.94141 0.56641 1.4141 1.5938 2.0156 3.1641 3.9219 4.5938 5.2305 1.1875 1.0898 2.1914 1.7305 2.8789 1.5625l5.7461-3.3203c-2.4453-1.4453-5.1484-4.8867-7.8398-8.3203-3.3711-4.2969-6.7266-8.5781-8.457-8.1367l-0.30859 0.17969zm-8.2344 14.008c0.67188 0.83594 1.3594 1.7109 2.0469 2.5859 2.6914 3.4336 5.3906 6.875 7.8398 8.3203l-5.7539 3.3203c-0.68359 0.16406-1.6875-0.47656-2.8711-1.5625-1.4297-1.3125-3-3.2188-4.5938-5.2305-0.1875-0.46875-0.37891-0.94141-0.56641-1.4141-2.0352-5.0625-4.0625-10.109-2.8242-11.391l0.30859-0.17969c1.3555-0.34766 3.707 2.2031 6.2812 5.3867 0.039062 0.058594 0.082031 0.11328 0.13281 0.16016zm0.25781-9.4531c0.097657-0.023438 0.19531-0.058594 0.28516-0.10938l5.3516-3.0898c0.039063 2.8008 1.6484 6.7969 3.2578 10.805 1.9922 4.9531 3.9883 9.9258 2.9375 11.422-1.8203 0.17188-5.1289-4.0469-8.4258-8.2461-0.67578-0.86328-1.3516-1.7227-2.0234-2.5547-0.77734-2.0391-1.4258-3.9453-1.6992-5.4844-0.23047-1.3047-0.21094-2.2656 0.23828-2.6562 0.027343-0.023437 0.054687-0.050781 0.078124-0.078125zm-1.4336-1.4688c0.13281-0.11719 0.28906-0.19141 0.45312-0.23047 0.070312-0.074219 0.14844-0.14062 0.24219-0.19141l7.543-4.3555c0.027344-0.015625 0.054688-0.03125 0.078125-0.046875l0.42578-0.24609c0.074219-0.050781 0.15625-0.09375 0.24609-0.12109 3.082-1.0508 6.9375 3.8672 10.805 8.8008 3.4414 4.3906 6.8984 8.7969 8.6602 8.1992 0.53906-0.18359 1.1211 0.10547 1.3047 0.64453 0.16797 0.49609-0.066406 1.0312-0.52344 1.2539l-7.9883 4.6094c-0.039062 0.027344-0.085937 0.054687-0.13281 0.074219-0.12109 0.066406-0.24609 0.10547-0.375 0.12109-1.4648 0.34766-3.0664-0.51172-4.7422-2.0508-0.39062-0.35938-0.79297-0.76172-1.1992-1.1914 0.85938 2.9258 1.0977 5.3867-0.12891 6.7305-0.09375 0.13281-0.21875 0.24609-0.36719 0.32422l-0.011719 0.007812-8.0312 4.6367c-0.015625 0.011719-0.03125 0.019531-0.046875 0.027343-0.14062 0.089844-0.29297 0.14063-0.44922 0.15625-1.4609 0.33594-3.0508-0.52734-4.7188-2.0547-0.39063-0.35938-0.79297-0.76172-1.1992-1.1914 0.85938 2.9258 1.0977 5.3867-0.12891 6.7305-0.09375 0.13672-0.22266 0.25-0.37891 0.32812-0.015625 0.007813-0.03125 0.015626-0.046875 0.023438l-7.957 4.5938c-0.027344 0.015625-0.050781 0.035156-0.078125 0.050781-0.14062 0.089844-0.29688 0.14062-0.45312 0.15234-1.4609 0.33203-3.0508-0.52734-4.7148-2.0547-0.39062-0.35938-0.79297-0.76172-1.1992-1.1914 0.85937 2.9258 1.0977 5.3867-0.12891 6.7305-0.09375 0.13672-0.22266 0.25-0.37891 0.32812-0.015625 0.007813-0.027344 0.015625-0.042969 0.023437l-7.9609 4.5938c-0.027344 0.015626-0.050781 0.035157-0.078125 0.050782-0.14062 0.089844-0.30078 0.14062-0.46094 0.15625-1.7773 0.39062-3.7891-1.0508-5.8945-3.2578 0.17188 0.57031 0.31641 1.1172 0.43359 1.6406 0.48828 2.1953 0.4375 4-0.56641 5.0977-0.097656 0.14063-0.22656 0.25781-0.38672 0.33594l-8.0273 4.6367c-0.019531 0.011719-0.039062 0.023437-0.0625 0.035156l-0.019531 0.011719c-0.13281 0.074218-0.27344 0.12109-0.41406 0.13281-3.0859 0.69141-6.8789-4.1445-10.656-8.9609-3.4141-4.3555-6.8203-8.6953-8.5273-8.1133-0.53906 0.18359-1.1211-0.10547-1.3047-0.64453-0.16797-0.49609 0.0625-1.0312 0.52344-1.2539l7.9883-4.6133c0.074218-0.050781 0.15625-0.09375 0.24609-0.12109 1.3594-0.46484 2.8438 0.18359 4.4023 1.4961 0.30859 0.26172 0.625 0.55078 0.94531 0.85938-0.64062-2.5781-0.65625-4.6836 0.61719-5.8008 0.13281-0.11719 0.28516-0.19141 0.44922-0.23047 0.085938-0.09375 0.1875-0.17188 0.30859-0.23047l7.9883-4.6133c0.074219-0.050782 0.15625-0.09375 0.24609-0.12109 1.6016-0.54688 3.4141 0.51953 5.3242 2.3633-0.10938-0.43359-0.20313-0.84766-0.27344-1.2461-0.35547-2-0.17188-3.6055 0.91406-4.5586 0.13281-0.11719 0.28906-0.19141 0.44922-0.23047 0.070313-0.074219 0.14844-0.14062 0.24219-0.19531l8.0859-4.668c0.066406-0.042969 0.14062-0.074219 0.21484-0.10156 0.007812-0.003906 0.011719-0.003906 0.019531-0.007812l0.015625-0.003907c1.5938-0.51953 3.3906 0.54688 5.2891 2.375-0.10938-0.43359-0.20312-0.85156-0.27344-1.2461-0.35547-2-0.17188-3.6055 0.91406-4.5586 0.13281-0.11719 0.28906-0.19141 0.45312-0.23047 0.070312-0.074218 0.14844-0.14062 0.24219-0.19141l7.543-4.3555c0.027344-0.015625 0.054687-0.03125 0.082031-0.046875l0.42578-0.24609c0.074218-0.050781 0.15625-0.09375 0.24609-0.12109 1.6016-0.54688 3.4141 0.51953 5.3242 2.3633-0.10938-0.43359-0.20312-0.84766-0.27344-1.2461-0.35547-2-0.17187-3.6055 0.91406-4.5586z" fill-rule="evenodd"/>
<text x="0.0" y="117.5" font-size="5.0" font-weight="bold" font-family="Arbeit Regular, Helvetica, Arial-Unicode, Arial, Sans-serif" fill="#000000">Created by Icon Designer</text><text x="0.0" y="122.5" font-size="5.0" font-weight="bold" font-family="Arbeit Regular, Helvetica, Arial-Unicode, Arial, Sans-serif" fill="#000000">from Noun Project</text></svg>