<svg width="100" height="100" viewBox="0 0 100 100" fill="none" xmlns="http://www.w3.org/2000/svg">
<path fill-rule="evenodd" clip-rule="evenodd" d="M24.9209 77.4168C25.9756 75.9246 23.9756 70.952 21.9834 65.9948C21.5733 64.9753 21.1631 63.9557 20.7803 62.9596C19.4014 61.2643 18.0773 59.7487 16.8859 58.7487C15.9171 57.9323 15.1007 57.4753 14.5343 57.612L8.76865 60.9401C11.1749 62.3776 13.8311 65.7682 16.4991 69.1667C19.796 73.3698 23.1007 77.5886 24.9249 77.4128L24.9209 77.4168ZM21.2022 53.7098C21.2373 53.702 21.2725 53.6903 21.3076 53.6786C23.0146 53.0965 26.4209 57.4364 29.8349 61.7919C30.1474 62.1903 30.4599 62.5927 30.7724 62.9872C31.7216 65.3817 32.5927 67.702 33.0107 69.581C33.3584 71.1474 33.4131 72.3349 32.9326 72.8466L27.1748 76.1708C27.1475 73.331 25.5186 69.2724 23.8896 65.2258C23.4677 64.1789 23.0498 63.136 22.6591 62.1242C22.6474 62.0851 22.6318 62.0421 22.6122 62.0031C21.1083 58.0969 20.0536 54.7179 21.1239 53.7804C21.1513 53.7569 21.1786 53.7296 21.202 53.7062L21.2022 53.7098ZM35.9051 54.5262C36.577 55.3622 37.2646 56.2371 37.9521 57.1121C40.6474 60.5457 43.3466 63.991 45.7919 65.4324L40.0458 68.7527C38.4442 69.1668 35.5301 65.7019 32.491 61.8504C32.4832 61.8426 32.4754 61.8309 32.4676 61.8231C32.1317 61.3973 31.7918 60.9637 31.452 60.534C28.7879 57.1356 26.1278 53.7449 23.7215 52.3074L29.491 48.9793C30.8465 48.6316 33.198 51.1824 35.7722 54.366C35.8113 54.4246 35.8544 54.4794 35.9051 54.5262ZM36.1591 45.077C36.1356 45.1044 36.1083 45.1278 36.0809 45.1513C35.6356 45.5419 35.6122 46.5068 35.8427 47.8075C36.1161 49.3466 36.7645 51.2528 37.5419 53.2919C38.2137 54.12 38.8896 54.9833 39.5653 55.8466C42.8622 60.0497 46.1669 64.2685 47.9911 64.0927C49.0458 62.6005 47.0457 57.6279 45.0536 52.6707C43.4442 48.6629 41.8388 44.6707 41.7958 41.8697L36.4481 44.9595C36.3543 45.0141 36.2566 45.0532 36.159 45.0727L36.1591 45.077ZM50.8621 45.8895C50.8113 45.8388 50.7683 45.7841 50.7293 45.7255C48.159 42.5458 45.8113 39.9989 44.4559 40.3349L44.1316 40.5224C42.905 41.8115 44.9285 46.8505 46.9597 51.9094C47.1511 52.382 47.3386 52.8508 47.5261 53.3235C49.1199 55.3391 50.6902 57.2454 52.1199 58.554C53.3074 59.6438 54.3113 60.2845 54.9988 60.1165L60.7449 56.7962C58.2996 55.3509 55.5965 51.9095 52.9051 48.4759C52.2176 47.6009 51.534 46.7254 50.8621 45.8895ZM51.116 36.4364C51.2136 36.413 51.3113 36.3778 51.4011 36.3271L56.7527 33.2373C56.7918 36.0381 58.4011 40.0342 60.0105 44.0423C62.0027 48.9954 63.9988 53.9681 62.948 55.4643C61.1277 55.6361 57.8191 51.4174 54.5222 47.2182C53.8465 46.3549 53.1706 45.4955 52.4988 44.6635C51.7215 42.6244 51.073 40.7182 50.7996 39.1791C50.5692 37.8744 50.5887 36.9135 51.0379 36.5229C51.0653 36.4994 51.0926 36.4721 51.116 36.4447L51.116 36.4364ZM74.054 23.2484C72.8157 24.5296 74.843 29.5765 76.8782 34.6394C77.0657 35.1121 77.2571 35.5808 77.4446 36.0535C79.0384 38.0691 80.6087 39.9754 82.0384 41.284C83.2259 42.3738 84.2298 43.0145 84.9173 42.8465L90.6634 39.5262C88.2181 38.0809 85.515 34.6395 82.8236 31.2059C79.4525 26.909 76.097 22.6278 74.3666 23.0692L74.058 23.2489L74.054 23.2484ZM65.8196 37.2564C66.4915 38.0924 67.179 38.9673 67.8665 39.8423C70.5579 43.2759 73.2571 46.7173 75.7063 48.1626L69.9524 51.4829C69.2688 51.647 68.2649 51.0064 67.0813 49.9204C65.6516 48.6079 64.0813 46.7016 62.4875 44.6899C62.3 44.2212 62.1086 43.7485 61.9211 43.2758C59.8859 38.2133 57.8586 33.1668 59.0969 31.8848L59.4055 31.7051C60.761 31.3575 63.1125 33.9082 65.6867 37.0918C65.7257 37.1504 65.7687 37.2051 65.8195 37.252L65.8196 37.2564ZM66.0774 27.8033C66.175 27.7799 66.2727 27.7447 66.3625 27.694L71.7141 24.6042C71.7532 27.405 73.3625 31.4011 74.9719 35.4092C76.9641 40.3623 78.9602 45.335 77.9094 46.8312C76.0891 47.003 72.7805 42.7843 69.4836 38.5851C68.8079 37.7218 68.132 36.8624 67.4602 36.0304C66.6829 33.9913 66.0344 32.0851 65.761 30.546C65.5306 29.2413 65.5501 28.2804 65.9993 27.8898C66.0267 27.8663 66.054 27.839 66.0774 27.8116L66.0774 27.8033ZM64.6438 26.3345C64.7766 26.2173 64.9328 26.1431 65.0969 26.1041C65.1672 26.0298 65.2453 25.9634 65.3391 25.9127L72.8821 21.5572C72.9094 21.5415 72.9368 21.5259 72.9602 21.5103L73.386 21.2642C73.4602 21.2134 73.5422 21.1704 73.6321 21.1431C76.7141 20.0923 80.5696 25.0103 84.4371 29.9439C87.8785 34.3345 91.3355 38.7408 93.0973 38.1431C93.6364 37.9595 94.2184 38.2486 94.402 38.7876C94.57 39.2837 94.3356 39.8188 93.8785 40.0415L85.8902 44.6509C85.8512 44.6783 85.8043 44.7056 85.7574 44.7251C85.6363 44.7916 85.5113 44.8306 85.3824 44.8462C83.9176 45.1939 82.316 44.3345 80.6402 42.7954C80.2496 42.4361 79.8473 42.0337 79.441 41.604C80.3004 44.5298 80.5387 46.9907 79.3121 48.3345C79.2184 48.4673 79.0934 48.5806 78.9449 48.6588L78.9332 48.6666L70.902 53.3033C70.8864 53.315 70.8708 53.3228 70.8551 53.3306C70.7145 53.4205 70.5622 53.4712 70.4059 53.4869C68.945 53.8228 67.3551 52.9595 65.6871 51.4322C65.2965 51.0728 64.8942 50.6704 64.4879 50.2408C65.3473 53.1666 65.5856 55.6275 64.359 56.9713C64.2653 57.108 64.1364 57.2213 63.9801 57.2994C63.9645 57.3072 63.9489 57.315 63.9332 57.3228L55.9762 61.9166C55.9489 61.9322 55.9254 61.9518 55.8981 61.9674C55.7575 62.0572 55.6012 62.108 55.445 62.1197C53.9841 62.4518 52.3942 61.5924 50.7302 60.065C50.3396 59.7057 49.9372 59.3033 49.531 58.8736C50.3904 61.7994 50.6287 64.2603 49.4021 65.6041C49.3083 65.7409 49.1794 65.8541 49.0232 65.9323C49.0075 65.9401 48.9958 65.9479 48.9802 65.9557L41.0193 70.5495C40.992 70.5651 40.9685 70.5847 40.9412 70.6003C40.8005 70.6901 40.6404 70.7409 40.4802 70.7565C38.7029 71.1472 36.6911 69.7057 34.5857 67.4987C34.7576 68.069 34.9021 68.6159 35.0193 69.1393C35.5076 71.3346 35.4568 73.1393 34.4529 74.237C34.3552 74.3777 34.2263 74.4948 34.0662 74.573L26.0389 79.2097C26.0194 79.2214 25.9998 79.2331 25.9764 79.2448L25.9569 79.2565C25.824 79.3308 25.6834 79.3776 25.5428 79.3894C22.4569 80.0808 18.6639 75.2449 14.8868 70.4285C11.4727 66.073 8.0665 61.7332 6.3595 62.3152C5.82044 62.4987 5.2384 62.2097 5.0548 61.6706C4.88683 61.1745 5.1173 60.6394 5.57824 60.4167L13.5665 55.8034C13.6408 55.7526 13.7228 55.7097 13.8126 55.6823C15.172 55.2175 16.6564 55.8659 18.2149 57.1784C18.5235 57.4402 18.8399 57.7292 19.1602 58.0378C18.5196 55.4597 18.504 53.3542 19.7774 52.237C19.9102 52.1198 20.0626 52.0456 20.2266 52.0065C20.3126 51.9128 20.4141 51.8347 20.5352 51.7761L28.5235 47.1628C28.5978 47.112 28.6798 47.069 28.7696 47.0417C30.3712 46.4948 32.1837 47.5612 34.0938 49.405C33.9844 48.9714 33.8907 48.5573 33.8204 48.1589C33.4649 46.1589 33.6485 44.5534 34.7344 43.6003C34.8673 43.4831 35.0235 43.4089 35.1837 43.3698C35.254 43.2956 35.3321 43.2292 35.4259 43.1745L43.5118 38.5065C43.5782 38.4635 43.6524 38.4323 43.7266 38.4049C43.7344 38.401 43.7383 38.401 43.7461 38.3971L43.7618 38.3932C45.3556 37.8737 47.1524 38.9401 49.0509 40.7682C48.9415 40.3346 48.8477 39.9167 48.7774 39.5221C48.4219 37.5221 48.6055 35.9166 49.6915 34.9635C49.8243 34.8463 49.9805 34.7721 50.1446 34.7331C50.2149 34.6588 50.293 34.5924 50.3868 34.5416L57.9298 30.1861C57.9571 30.1705 57.9845 30.1549 58.0118 30.1393L58.4376 29.8932C58.5118 29.8424 58.5938 29.7994 58.6837 29.7721C60.2853 29.2252 62.0978 30.2916 64.0079 32.1354C63.8985 31.7018 63.8048 31.2877 63.7344 30.8893C63.379 28.8893 63.5626 27.2838 64.6485 26.3307L64.6438 26.3345Z" fill="black"/>
</svg>
