<svg width="100" height="100" viewBox="0 0 100 100" fill="none" xmlns="http://www.w3.org/2000/svg">
<path fill-rule="evenodd" clip-rule="evenodd" d="M44.1369 76.8765C43.4338 75.4468 38.7189 74.7046 34.0199 73.9663C33.0473 73.814 32.0746 73.6616 31.1293 73.4976C29.184 73.7788 27.3988 74.1069 26.0824 74.564C25.0394 74.9233 24.3324 75.3218 24.1801 75.7828L24.0942 81.6187C26.3637 80.4625 30.145 79.982 33.938 79.4976C38.6607 78.896 43.3989 78.2906 44.137 76.8804L44.1369 76.8765ZM31.8249 42.2675C31.7585 42.2831 31.6921 42.2949 31.6218 42.2949C28.0085 42.8105 24.9851 43.4355 24.6296 44.584L24.6257 44.8847C25.0515 46.3652 29.8562 47.123 34.6807 47.8808C35.126 47.9511 35.5752 48.0215 36.0205 48.0918C38.3135 47.7871 40.5088 47.4551 42.1807 46.9551C43.5362 46.5527 44.4698 46.0918 44.6534 45.5254L44.7393 39.709C42.4424 40.8926 38.6026 41.3848 34.7705 41.8731C33.7784 42.002 32.7822 42.127 31.8291 42.2598L31.8249 42.2675ZM24.696 37.5995C24.7234 37.5097 24.7351 37.4198 24.7351 37.3222L24.8132 31.9081C27.0476 33.1308 30.8132 33.7206 34.5905 34.3143C35.071 34.3885 35.5476 34.4666 36.0241 34.5408C36.0515 34.5486 36.0827 34.5525 36.114 34.5565C40.2663 35.2205 44.0828 35.951 44.7117 37.2245C43.9734 38.6347 39.2351 39.2401 34.5127 39.8417C33.5361 39.9667 32.5596 40.0917 31.6104 40.2284C29.6768 39.8885 27.9073 39.5096 26.5987 39.0175C25.5167 38.6073 24.8057 38.1659 24.7159 37.6777C24.712 37.6503 24.7041 37.6269 24.7002 37.5995L24.696 37.5995ZM32.0515 26.6695C31.9851 26.6851 31.9187 26.6969 31.8484 26.6969C28.2351 27.2125 25.2117 27.8375 24.8562 28.986L24.8523 29.2867C25.2781 30.7711 30.0828 31.525 34.9073 32.2828C35.3526 32.3531 35.8018 32.4235 36.2471 32.4938C38.5401 32.1891 40.7354 31.8571 42.4073 31.3571C43.7628 30.9547 44.6964 30.4938 44.88 29.9274L44.9659 24.111C42.669 25.2946 38.8292 25.7868 34.9971 26.2751C34.005 26.404 33.0088 26.529 32.0557 26.6618L32.0515 26.6695ZM74.6685 86.1855C73.9654 84.7558 69.2505 84.0136 64.5515 83.2753C63.5789 83.123 62.6062 82.9706 61.6609 82.8066C59.7156 83.0878 57.9304 83.4159 56.614 83.873C55.571 84.2323 54.864 84.6308 54.7117 85.0918L54.6258 90.9277C56.8953 89.7715 60.6766 89.291 64.4696 88.8066C69.1923 88.205 73.9305 87.5996 74.6686 86.1894L74.6685 86.1855ZM54.7735 78.1035C54.7813 78.0762 54.7892 78.0488 54.7931 78.0254C55.1173 76.502 60.0236 75.877 64.9491 75.2481C65.3983 75.1895 65.8475 75.1348 66.2929 75.0762C68.5741 75.4434 70.7577 75.8418 72.4179 76.3887C73.7577 76.8301 74.6757 77.3184 74.8476 77.8809L74.7616 83.7012C72.5038 82.4512 68.6757 81.8496 64.8593 81.252C63.8671 81.0958 62.8788 80.9395 61.9257 80.7793C61.8632 80.7637 61.7968 80.752 61.7304 80.7481C58.0585 80.1153 55.0077 79.3848 54.7851 78.1817C54.7812 78.1583 54.7734 78.1309 54.7695 78.1075L54.7735 78.1035ZM62.129 67.1695C62.0626 67.1851 61.9923 67.1969 61.9259 67.1969C58.3126 67.7125 55.2931 68.3375 54.9337 69.486L54.8478 75.3258C57.1173 74.1696 60.8986 73.6891 64.6916 73.2047C65.172 73.1422 65.6525 73.0836 66.133 73.0211C66.1642 73.0172 66.1955 73.0133 66.2228 73.0093C70.5626 72.4429 74.5392 71.7984 74.9533 70.4351L75.0393 64.6187C72.7424 65.8023 68.9026 66.2945 65.0705 66.7828C64.0783 66.9118 63.0821 67.0367 62.129 67.1695ZM55.0001 62.5015C55.0275 62.4117 55.0392 62.3218 55.0392 62.2242L55.1173 56.8101C57.3517 58.0328 61.1173 58.6226 64.8946 59.2163C65.3751 59.2905 65.8556 59.3686 66.3282 59.4428C66.3556 59.4506 66.3868 59.4545 66.4181 59.4585C70.5704 60.1225 74.3869 60.853 75.0158 62.1265C74.2775 63.5367 69.5392 64.1421 64.8168 64.7437C63.8402 64.8687 62.8637 64.9937 61.9145 65.1304C59.9809 64.7905 58.2114 64.4116 56.9028 63.9195C55.8208 63.5093 55.1098 63.0679 55.02 62.5797C55.0161 62.5523 55.0082 62.5289 55.0043 62.5015L55.0001 62.5015ZM55.3829 38.5955C55.8087 40.0799 60.6134 40.8338 65.4379 41.5916C65.8833 41.6619 66.3325 41.7322 66.7777 41.8025C69.0707 41.4979 71.266 41.1658 72.9379 40.6658C74.2934 40.2635 75.227 39.8026 75.4106 39.2361L75.4966 33.4198C73.1997 34.6034 69.3599 35.0956 65.5278 35.5839C60.6801 36.201 55.8481 36.8182 55.3908 38.2908L55.3869 38.5916L55.3829 38.5955ZM55.2228 46.9041C55.2501 46.8143 55.2618 46.7244 55.2618 46.6268L55.34 41.2127C57.5744 42.4354 61.34 43.0252 65.1173 43.6189C65.5977 43.6931 66.0743 43.7712 66.5509 43.8454C66.5782 43.8532 66.6095 43.8571 66.6407 43.8611C70.793 44.5251 74.6095 45.2556 75.2384 46.5291C74.5001 47.9393 69.7618 48.5447 65.0394 49.1463C64.0629 49.2713 63.0863 49.3963 62.1371 49.533C60.2035 49.1931 58.434 48.8142 57.1254 48.3221C56.0434 47.9119 55.3324 47.4705 55.2426 46.9823C55.2387 46.9549 55.2309 46.9315 55.227 46.9042L55.2228 46.9041ZM44.4648 22.1311C42.9843 23.1936 38.8554 23.7209 34.7382 24.2444C33.7616 24.3694 32.7851 24.4944 31.8359 24.6311C29.9023 24.2913 28.1328 23.9124 26.8242 23.4202C25.7422 23.0101 25.0312 22.5687 24.9414 22.0804C24.9375 22.0531 24.9297 22.0296 24.9258 22.0023C24.9531 21.9125 24.9648 21.8226 24.9648 21.725L25.0547 15.6742C27.1211 16.7484 30.6289 17.9945 34.8711 19.3187C35.0273 19.4202 35.2109 19.4788 35.4023 19.4827C38.1914 20.3421 41.2734 21.2327 44.4687 22.1311L44.4648 22.1311ZM55.6058 23.0803C59.6019 24.178 63.4456 25.2483 66.7698 26.2405C66.7971 26.2327 66.8284 26.2288 66.8557 26.2249C69.1995 25.9163 71.4573 25.5804 73.1604 25.0726C74.5159 24.6703 75.4495 24.2093 75.6331 23.6429L75.7191 17.8265C73.4222 19.0101 69.5824 19.5023 65.7503 19.9906C60.9026 20.6078 56.0706 21.225 55.6133 22.6976L55.6054 23.0765L55.6058 23.0803ZM25.0788 13.6662C25.3952 14.299 29.5632 15.7014 35.3988 17.424C37.9847 17.0803 40.7504 16.549 42.7465 15.8068C44.0317 15.3303 44.934 14.8264 45.1059 14.3341L45.1918 8.52163C42.8949 9.70523 39.0551 10.1974 35.223 10.6857C30.3753 11.3029 25.5433 11.9201 25.086 13.3927L25.0821 13.6662L25.0788 13.6662ZM46.9418 29.0962L47.0316 22.8501C48.9886 23.3931 50.9652 23.936 52.9222 24.4712L54.266 24.8384L54.2738 24.8423L54.3207 24.858C64.7117 27.7096 74.1407 30.315 75.3947 31.0416C74.4807 32.3775 69.8635 32.9674 65.2577 33.5533C64.6991 33.6236 64.1405 33.6978 63.5858 33.7681C63.5468 33.7525 63.5077 33.7368 63.4686 33.7251C60.3475 32.8345 57.6444 32.0845 54.8045 31.2954C52.5623 30.6743 50.2264 30.0259 46.9334 29.0923L46.9418 29.0962ZM46.598 52.9402V52.9207C46.6019 52.8934 46.6019 52.866 46.598 52.8348V52.8191C46.6019 52.6707 46.5707 52.534 46.516 52.4051C46.0551 50.866 44.1801 49.909 41.6683 49.2176C42.0511 49.1277 42.4183 49.0301 42.766 48.9285C44.7504 48.3348 46.1762 47.4793 46.6098 46.159C46.6723 46.0223 46.7075 45.8739 46.7036 45.7176V45.6199L46.8246 37.3231V37.284C46.8364 37.1121 46.8051 36.9441 46.7387 36.7957C46.27 35.2645 44.3989 34.3152 41.8949 33.6277C42.2777 33.5379 42.6449 33.4402 42.9926 33.3386C44.6801 32.8347 45.9614 32.1433 46.5746 31.1355C49.4808 31.9559 51.9223 32.6316 54.266 33.2839C55.7387 33.6941 57.1722 34.0886 58.8402 34.5573C55.9261 35.2019 53.7347 36.1706 53.3558 37.944C53.3363 38.0339 53.3285 38.1237 53.3363 38.2097L53.3285 38.655C53.3285 38.6823 53.3246 38.7058 53.3285 38.7331L53.2152 46.6081C53.2152 46.7019 53.2269 46.7956 53.2464 46.8815C53.1996 47.03 53.1917 47.194 53.223 47.3581C53.4652 48.6784 54.6527 49.5886 56.4027 50.2526C56.6488 50.3464 56.9105 50.4362 57.18 50.5221C56.3558 50.7643 55.6214 51.0456 55.0081 51.3815C52.1487 51.905 49.3245 52.4323 46.5979 52.9518L46.598 52.9402ZM31.422 55.8308C29.4728 55.491 27.6876 55.1082 26.3673 54.612C25.2853 54.2019 24.5743 53.7605 24.4845 53.2722C24.4806 53.2449 24.4728 53.2214 24.4689 53.1941C24.4963 53.1043 24.508 53.0144 24.508 52.9168L24.5861 47.5027C26.8205 48.7254 30.5861 49.3152 34.3634 49.9089C34.8439 49.9831 35.3204 50.0612 35.797 50.1354C35.8243 50.1432 35.8556 50.1471 35.8868 50.1511C40.1993 50.8425 44.1524 51.6002 44.543 52.9713L44.5391 53.3307C42.7891 53.6628 41.0899 53.9909 39.461 54.3034C36.7969 54.8151 34.3048 55.2917 32.4376 55.6432C32.0509 55.7174 31.7189 55.776 31.4259 55.8307L31.422 55.8308ZM56.059 53.0339C55.9301 53.1824 55.7583 53.2996 55.5629 53.3542C55.3598 53.5183 55.2231 53.698 55.1645 53.8933L55.1606 54.1941C55.5864 55.6746 60.3911 56.4324 65.2156 57.1902C65.6609 57.2605 66.1101 57.3308 66.5554 57.4011C68.8484 57.0964 71.0437 56.7644 72.7156 56.2644C74.0711 55.8621 75.0047 55.4011 75.1883 54.8347L75.2742 49.0183C72.9773 50.2019 69.1375 50.6941 65.3054 51.1824C64.3132 51.3113 63.3171 51.4363 62.364 51.5691C62.2976 51.5848 62.2312 51.5965 62.1609 51.5965C59.5711 51.9637 57.2859 52.3934 56.0671 53.0262L56.059 53.0339ZM35.633 65.7839L35.7658 65.7683C38.047 66.1355 40.2306 66.5339 41.8869 67.0808C43.2267 67.5222 44.1447 68.0105 44.3166 68.573L44.2307 74.3933C41.9729 73.1433 38.1448 72.5417 34.3284 71.9441C33.3362 71.7879 32.3479 71.6316 31.3948 71.4714C31.3323 71.4558 31.2659 71.4441 31.1995 71.4402C27.5276 70.8074 24.4768 70.0769 24.2542 68.8738C24.2503 68.8504 24.2425 68.823 24.2386 68.7996C24.2464 68.7722 24.2542 68.7449 24.2581 68.7215C24.5823 67.1981 29.4886 66.5731 34.4141 65.9442C34.8204 65.8934 35.2227 65.8426 35.5391 65.7996C35.5704 65.7957 35.5977 65.7918 35.6289 65.7879L35.633 65.7839ZM52.988 62.1277C49.3005 62.8191 46.5935 63.4324 43.945 64.03C42.9724 64.2488 42.0075 64.4675 41.0036 64.6863C41.5466 64.823 42.0583 64.9675 42.5309 65.1238C44.5036 65.7761 45.9059 66.6746 46.2926 68.0144C46.3473 68.1472 46.3747 68.2878 46.3708 68.4363V68.5183L46.2497 76.8191C46.2536 76.8582 46.2536 76.9011 46.2497 76.9402C46.2458 77.0847 46.2145 77.2214 46.1559 77.3503C45.2458 80.1276 39.7067 80.8308 34.1909 81.5378C29.2651 82.1668 24.3589 82.7917 24.0349 84.3151C23.9177 84.8698 23.3709 85.2253 22.8161 85.1081C22.3044 84.9987 21.9606 84.5261 22.0036 84.0183L22.1247 75.6941C22.1208 75.6043 22.1286 75.5183 22.1442 75.4285C22.4255 74.116 23.6364 73.241 25.4098 72.6316C25.6598 72.5457 25.9255 72.4636 26.1989 72.3855C24.0387 71.6863 22.5075 70.7253 22.238 69.2488C22.2068 69.0847 22.2185 68.9246 22.2614 68.7761C22.2302 68.6668 22.2224 68.5496 22.2302 68.4285L22.3474 60.1902V60.1238C22.4294 58.3152 23.9997 57.4558 26.4529 56.8269C26.1716 56.737 25.8982 56.6433 25.6443 56.5495C23.8904 55.8855 22.7068 54.9792 22.4646 53.655C22.4333 53.491 22.4451 53.3269 22.488 53.1785C22.4646 53.0925 22.4529 52.9988 22.4568 52.905L22.5701 45.0339V44.9558L22.5779 44.5144C22.574 44.4246 22.5818 44.3386 22.5974 44.2488C22.9099 42.78 24.4646 41.866 26.6482 41.2254C26.3787 41.1394 26.1169 41.0496 25.8709 40.9559C24.117 40.2918 22.9334 39.3856 22.6912 38.0614C22.6599 37.8973 22.6716 37.7332 22.7146 37.5848C22.6912 37.4989 22.6794 37.4051 22.6833 37.3114L22.7966 29.4364V29.3582L22.8044 28.9129C22.8005 28.8231 22.8083 28.7371 22.824 28.6473C23.1365 27.1785 24.6912 26.2645 26.8748 25.6239C26.6052 25.538 26.3435 25.4481 26.0974 25.3544C24.3435 24.6903 23.1599 23.7841 22.9177 22.4599C22.8865 22.2958 22.8982 22.1317 22.9412 21.9833C22.9177 21.8974 22.906 21.8036 22.9099 21.7099L23.0232 13.8349V13.7567L23.031 13.3114C23.0271 13.2216 23.0349 13.1357 23.0505 13.0458C23.6795 10.0966 29.3083 9.37781 34.9605 8.65911C39.9253 8.0263 44.9058 7.38961 45.2415 5.81531C45.3587 5.26062 45.9056 4.90515 46.4603 5.02234C46.9721 5.13172 47.3158 5.60437 47.2728 6.11214L47.1518 14.4363C47.1557 14.4832 47.1557 14.5301 47.1478 14.577C47.1439 14.7215 47.1088 14.8582 47.0502 14.9793C46.6439 16.1551 45.2924 17.0574 43.4525 17.741C42.4134 18.1277 41.1908 18.4598 39.9056 18.741C44.1439 19.9441 48.8587 21.241 53.4526 22.5027L53.5502 22.53C53.5542 22.4715 53.5581 22.4129 53.5737 22.3543C54.2026 19.4051 59.8315 18.6863 65.4837 17.9676C70.4485 17.3348 75.429 16.6981 75.7647 15.1278C75.8819 14.5731 76.4287 14.2176 76.9835 14.3348C77.4952 14.4442 77.8389 14.9168 77.796 15.4246L77.6749 23.7488C77.6788 23.7957 77.6788 23.8425 77.671 23.8894C77.6671 24.0261 77.6358 24.155 77.585 24.2722C77.1632 25.6042 75.7295 26.4636 73.7373 27.0613C72.9756 27.2879 72.1201 27.4832 71.2021 27.6551C73.7255 28.4988 75.6474 29.2684 76.6904 29.9246C76.7139 29.9285 76.7334 29.9324 76.7569 29.9363C77.2647 30.0457 77.6045 30.5066 77.5694 31.0105V31.0496L77.4483 39.3504C77.4522 39.3972 77.4522 39.4441 77.4444 39.491C77.4404 39.6277 77.4092 39.7566 77.3584 39.8738C76.9365 41.2058 75.5029 42.0652 73.5107 42.659C73.1631 42.7645 72.7959 42.8582 72.413 42.948C74.913 43.6355 76.7841 44.5886 77.2568 46.116C77.3232 46.2645 77.3545 46.4325 77.3428 46.6043V46.6434L77.2217 54.9442C77.2256 54.9754 77.2256 55.0067 77.2217 55.0418C77.2256 55.1981 77.1904 55.3504 77.1279 55.4833C76.6982 56.8036 75.2724 57.6591 73.2841 58.2528C72.9365 58.3582 72.5693 58.452 72.1864 58.5418C74.6864 59.2293 76.5575 60.1785 77.0302 61.7098C77.0966 61.8583 77.1279 62.0262 77.1201 62.1981V62.2372L76.999 70.5341C77.0029 70.5653 77.0029 70.5966 76.999 70.6317C77.0029 70.7919 76.9677 70.9442 76.9013 71.0809C76.3935 72.6004 74.4911 73.4989 71.9677 74.1161C72.3466 74.2177 72.7099 74.3271 73.0536 74.4364C75.0263 75.0888 76.4286 75.9872 76.8153 77.327C76.87 77.4599 76.8974 77.6005 76.8934 77.7489V77.831L76.7724 86.1279C76.7763 86.1669 76.7763 86.2099 76.7724 86.2529C76.7684 86.3974 76.7372 86.5341 76.6786 86.663C75.7645 89.4364 70.2294 90.1435 64.7136 90.8505C59.7878 91.4794 54.8816 92.1044 54.5576 93.6278C54.4404 94.1825 53.8935 94.538 53.3388 94.4208C52.8271 94.3114 52.4833 93.8388 52.5263 93.331L52.6474 85.0068C52.6435 84.9169 52.6513 84.831 52.6669 84.7412C52.9482 83.4287 54.1591 82.5537 55.9325 81.9443C56.1825 81.8583 56.4481 81.7763 56.7216 81.6982C54.5614 80.999 53.0302 80.038 52.7607 78.5615C52.7294 78.3974 52.7412 78.2373 52.7841 78.0888C52.7529 77.9794 52.7451 77.8623 52.7529 77.7412L52.874 69.417C52.8701 69.3271 52.8779 69.2412 52.8935 69.1513C53.206 67.6825 54.7607 66.7685 56.9443 66.1279C56.6748 66.042 56.413 65.9522 56.167 65.8584C54.4131 65.1943 53.2295 64.2881 52.9873 62.9639C52.956 62.7998 52.9677 62.6358 53.0107 62.4873C52.9873 62.4014 52.9755 62.3077 52.9794 62.2139V62.1397L52.988 62.1277ZM52.8865 60.0574C52.9294 60.0496 52.9763 60.0457 53.0193 60.0418L53.1013 54.327V54.2489L53.1091 53.8114C48.6677 54.6356 44.0388 55.5223 39.8471 56.3231C37.4291 56.7879 35.1635 57.2215 32.8159 57.6629C32.3159 57.7566 31.5893 57.8894 30.8901 58.0144C27.1557 58.6863 24.4565 59.1706 24.4096 60.2019V60.2176L24.3237 66.0262C26.5932 64.87 30.3745 64.3895 34.1675 63.9051C34.4995 63.8621 34.8316 63.8191 35.2847 63.7605C38.523 63.1512 40.9839 62.5964 43.4995 62.0261C46.2261 61.4129 49.0112 60.7839 52.8901 60.0573L52.8865 60.0574Z" fill="black"/>
</svg>
